<?xml version="1.0" encoding="UTF-8" standalone="no"?>
<svg
   width="1024"
   height="1024"
   viewBox="0 0 1024 1024"
   version="1.1"
   id="svg61"
   sodipodi:docname="velociraptor-skull-with-sunglasses--3-4-portrait--.svg"
   inkscape:version="1.4.3 (fcd0343856, 2026-01-01)"
   xmlns:inkscape="http://www.inkscape.org/namespaces/inkscape"
   xmlns:sodipodi="http://sodipodi.sourceforge.net/DTD/sodipodi-0.dtd"
   xmlns="http://www.w3.org/2000/svg"
   xmlns:svg="http://www.w3.org/2000/svg">
  <sodipodi:namedview
     id="namedview61"
     pagecolor="#505050"
     bordercolor="#eeeeee"
     borderopacity="1"
     inkscape:showpageshadow="0"
     inkscape:pageopacity="0"
     inkscape:pagecheckerboard="0"
     inkscape:deskcolor="#505050"
     inkscape:zoom="0.60421722"
     inkscape:cx="566.0216"
     inkscape:cy="540.36858"
     inkscape:window-width="2048"
     inkscape:window-height="1083"
     inkscape:window-x="0"
     inkscape:window-y="0"
     inkscape:window-maximized="1"
     inkscape:current-layer="svg61" />
  <path
     fill="white"
     d="M0 0L1024 0L1024 1024L0 1024L0 0Z"
     id="path1"
     style="fill:#808080" />
  <path
     fill="#DBD0A0"
     d="M212.247 404.12C213.187 393.383 212.884 379.589 213.091 368.454C214.375 299.505 222.339 228.56 272.167 176.153C295.148 151.983 344.314 106.717 380.325 123.957C404.115 135.347 433.953 161.154 451.977 180.902C466.042 196.337 478.889 212.84 490.402 230.261C495.234 237.548 499.607 245.129 503.497 252.959C506.327 258.645 509.351 265.505 512.564 270.856C518.93 281.458 537.433 281.29 548.638 282.776C562.357 284.517 576.036 286.553 589.667 288.882C601.438 290.931 612.547 294.761 623.819 296.329C627.487 296.839 640.306 293.66 644.903 292.87C679.968 286.841 709.749 289.381 740.732 308.494C746.098 311.804 750.274 315.185 755.35 318.8C773.936 315.807 803.95 313.059 822.668 314.971C852.433 315.572 888.563 322.932 912.423 341.365C917.538 342.777 926.448 342.824 931.971 343.751C936.347 344.178 952.096 345.036 954.826 347.157C955.75 350.528 955.48 400.703 953.933 403.444C951.522 405.532 948.377 405.064 945 405.53C939.669 406.266 938.078 407.273 933.459 409.28C932.894 409.962 932.561 410.147 931.821 410.681C928.199 413.294 926.772 416.521 924.962 420.436C922.573 432.853 921.618 444.751 918.828 457.22L918.375 459.241C918.135 460.283 917.78 461.481 917.487 462.52C913.198 479.937 902.768 505.734 887.587 516.506C884.904 520.996 868.31 529.862 862.668 531.867C859.175 533.82 850.286 536.223 846.27 537.144C844.856 537.482 843.435 537.784 842.006 538.051C838.929 538.655 832.667 539.901 829.694 539.839C826.337 540.399 825.606 540.388 822.275 540.607L818.07 541.327C818.95 544.18 821.56 547.627 822.945 550.453C826.594 557.898 832.029 568.071 833.995 575.929C834.844 578.291 837.095 584.253 837.341 586.447C838.483 596.641 834.889 608.398 842.185 617.269C854.279 619.65 858.447 640.691 860.879 650.727C864.496 665.653 863.257 685.312 858.692 700.101C857.746 704.224 857.044 707.58 856.391 711.751C855.858 714.452 854.188 722.163 854.081 724.652C848.456 732.811 822.129 740.038 812.054 742.257L805.583 743.156C785.825 789.82 758.207 807.908 709.637 818.639C710.509 819.468 711.428 820.231 712.325 821.032C705.227 821.21 698.576 821.584 691.405 821.522C688.624 821.858 685.295 821.864 682.466 821.913C638.099 822.683 593.728 822.376 549.356 822.478L436.486 822.826C407.421 822.936 379.034 823.258 349.985 822.463L185.272 817.312L131.413 815.35C120.623 814.907 108.771 814.063 98.1247 814.035L96.7846 813.001C101.548 813.059 109.687 812.338 114.751 812.087L153.361 810.197L249.061 805.638C270.333 804.538 292.51 802.985 313.738 802.389C308.789 798.465 297.244 793.731 290.981 789.953C275.534 780.636 257.06 769.763 244.921 756.448C239.494 750.496 240.406 735.701 239.144 727.853C237.297 716.366 234.68 705.327 228.704 695.161C221.912 683.082 204.444 678.743 201.815 664.791C200.977 660.347 203.087 656.328 205.637 652.976C204.034 649.567 202.234 645.501 200.906 641.99C198.37 644.583 195.199 646.93 191.511 647.334C180.256 648.556 174.971 636.687 169.826 628.917C165.675 622.649 158.501 615.016 162.093 607.02C164.719 601.176 169.727 596.255 171.395 589.825C172.796 584.423 172.477 578.998 171.861 573.511C168.851 573.188 164.259 572.678 162.332 570C158.65 564.884 168.956 501.284 170.564 492.587C170.058 476.802 174.517 445.028 184.634 432.965C192.228 423.909 204.335 413.418 212.247 404.12Z"
     id="path2" />
  <path
     fill="#06044B"
     d="M212.247 404.12C213.187 393.383 212.884 379.589 213.091 368.454C214.375 299.505 222.339 228.56 272.167 176.153C295.148 151.983 344.314 106.717 380.325 123.957C404.115 135.347 433.953 161.154 451.977 180.902C466.042 196.337 478.889 212.84 490.402 230.261C495.234 237.548 499.607 245.129 503.497 252.959C506.327 258.645 509.351 265.505 512.564 270.856C518.93 281.458 537.433 281.29 548.638 282.776C562.357 284.517 576.036 286.553 589.667 288.882C601.438 290.931 612.547 294.761 623.819 296.329C627.487 296.839 640.306 293.66 644.903 292.87C679.968 286.841 709.749 289.381 740.732 308.494C746.098 311.804 750.274 315.185 755.35 318.8C773.936 315.807 803.95 313.059 822.668 314.971C852.433 315.572 888.563 322.932 912.423 341.365C917.538 342.777 926.448 342.824 931.971 343.751C936.347 344.178 952.096 345.036 954.826 347.157C955.75 350.528 955.48 400.703 953.933 403.444C951.522 405.532 948.377 405.064 945 405.53C939.669 406.266 938.078 407.273 933.459 409.28C932.894 409.962 932.561 410.147 931.821 410.681C928.199 413.294 926.772 416.521 924.962 420.436C922.573 432.853 921.618 444.751 918.828 457.22L918.375 459.241C918.135 460.283 917.78 461.481 917.487 462.52C913.198 479.937 902.768 505.734 887.587 516.506C884.904 520.996 868.31 529.862 862.668 531.867C859.175 533.82 850.286 536.223 846.27 537.144C844.856 537.482 843.435 537.784 842.006 538.051C838.929 538.655 832.667 539.901 829.694 539.839C826.337 540.399 825.606 540.388 822.275 540.607C819.192 540.58 817.196 541.562 815.595 538.943L815.2 538.328C812.581 533.862 808.546 528.394 805.466 524.264L803.116 521.296C795.648 511.692 789.389 504.089 781.276 495.005C769.888 483.248 760.511 473.697 746.168 465.098C740.588 461.753 729.665 457.389 725.468 453.897C719.503 448.933 711.303 440.196 705.757 434.568C704.376 433.234 703.086 431.798 701.782 430.387C697.001 425.915 688.156 416.176 683.834 411.232C682.833 410.165 681.758 408.591 680.882 407.387C674.549 400.853 668.259 392.747 662.057 385.964C659.825 383.522 656.004 380.373 654.414 377.775C646.27 375.467 637.157 375.715 629.303 379.813C628.666 380.145 628.206 380.627 627.866 381.247C624.454 381.537 623.655 383.93 621.471 385.189C613.792 390.694 608.794 400.985 607.579 410.127C605.333 427.035 602.804 449.536 597.507 465.701C596.346 468.134 592.809 477.468 592.723 479.929C588.728 488.461 585.53 495.411 579.982 503.237C578.148 505.823 570.712 513.65 569.822 515.36C563.845 520.567 557.394 525.619 550.046 529.096C520.411 543.118 484.481 542.709 452.396 541C447.871 540.759 444.442 540.228 440.156 539.603C436.803 539.114 427.781 536.827 425.255 536.96C423.993 536.194 409.677 531.807 406.755 530.558C400.273 527.788 397.191 524.768 391.777 521.809L390.914 521.344C390.609 520.314 382.189 513.687 380.765 512.1C367.376 497.212 362.579 478.167 357.486 459.341C353.609 445.006 354.583 424.566 346.697 412.169C341.411 403.858 322.477 403.617 313.004 402.306C313.004 383.077 312.992 360.744 312.236 341.691C307.832 345.068 290.215 359.89 286.912 361.454C284.956 362.615 271.712 373.194 270.58 374.868C266.699 380.092 259.487 383.763 254.75 387.812C250.275 391.639 240.722 401.422 235.441 403.884C231.315 406.737 225.047 412.4 221.139 415.849C203.963 431.01 187.314 446.856 177.526 467.947C174.903 473.596 171.34 491.298 170.564 492.587C170.058 476.802 174.517 445.028 184.634 432.965C192.228 423.909 204.335 413.418 212.247 404.12Z"
     id="path3" />
  <path
     fill="#FA584C"
     d="M212.247 404.12C213.187 393.383 212.884 379.589 213.091 368.454C214.375 299.505 222.339 228.56 272.167 176.153C295.148 151.983 344.314 106.717 380.325 123.957C404.115 135.347 433.953 161.154 451.977 180.902C466.042 196.337 478.889 212.84 490.402 230.261C495.234 237.548 499.607 245.129 503.497 252.959C506.327 258.645 509.351 265.505 512.564 270.856C518.93 281.458 537.433 281.29 548.638 282.776C562.357 284.517 576.036 286.553 589.667 288.882C601.438 290.931 612.547 294.761 623.819 296.329C627.487 296.839 640.306 293.66 644.903 292.87C679.968 286.841 709.749 289.381 740.732 308.494C746.098 311.804 750.274 315.185 755.35 318.8C729.014 324.608 712.727 329.537 689.706 345.661C675.43 344.061 661.083 343.16 646.719 342.962C640.961 342.917 626.422 343.67 621.585 343.104C618.332 342.949 615.436 343.081 612.24 343.7L599.25 345.945C598.128 344.973 596.992 344.016 595.843 343.075C563.971 317.039 520.451 311.976 480.701 311.488C468.409 311.337 455.25 311.432 442.987 312.333C435.511 312.882 427.158 314.186 419.612 314.968C403.331 317.7 387.945 322.248 372.742 328.744C368.205 330.683 361.322 336.441 357.919 337.018C354.278 337.636 344.847 338.002 340.763 338.099C331.707 338.315 321.889 339.245 312.943 339.378C309.415 342.488 306.415 345.191 302.582 347.952C298.578 351.766 289.733 358.019 286.912 361.454C284.956 362.615 271.712 373.194 270.58 374.868C266.699 380.092 259.487 383.763 254.75 387.812C250.275 391.639 240.722 401.422 235.441 403.884C231.315 406.737 225.047 412.4 221.139 415.849C203.963 431.01 187.314 446.856 177.526 467.947C174.903 473.596 171.34 491.298 170.564 492.587C170.058 476.802 174.517 445.028 184.634 432.965C192.228 423.909 204.335 413.418 212.247 404.12Z"
     id="path4" />
  <path
     fill="#DBD0A0"
     d="M302.582 347.952C302.487 347.666 302.392 347.379 302.297 347.093C298.39 319.682 326.892 299.186 350.726 294.818C369.37 291.401 388.761 297.997 404.992 306.518C409.709 308.994 415.233 311.969 419.612 314.968C403.331 317.7 387.945 322.248 372.742 328.744C368.205 330.683 361.322 336.441 357.919 337.018C354.278 337.636 344.847 338.002 340.763 338.099C331.707 338.315 321.889 339.245 312.943 339.378C309.415 342.488 306.415 345.191 302.582 347.952Z"
     id="path5" />
  <path
     fill="#06044B"
     d="M261.015 335.1L263.152 335.854C264.404 346.214 265.888 366.966 267.84 376.173C269.34 375.959 269.252 375.785 270.58 374.868C266.699 380.092 259.487 383.763 254.75 387.812C250.275 391.639 240.722 401.422 235.441 403.884C238.949 399.816 246.905 394.313 251.653 389.143C253.537 367.582 255.525 356.194 261.015 335.1Z"
     id="path6" />
  <path
     fill="#06044B"
     d="M584.694 301.309C592.863 310.17 600.977 318.605 608.783 327.888C613.18 333.118 617.576 337.243 621.585 343.104C618.332 342.949 615.436 343.081 612.24 343.7C604.968 331.531 592.266 314.095 583.896 302.065L584.694 301.309Z"
     id="path7" />
  <path
     fill="#300426"
     d="M261.914 331.534C262.221 331.947 262.711 332.392 263.085 332.762C263.086 333.81 263.119 334.809 263.152 335.854L261.015 335.1C261.335 333.917 261.635 332.728 261.914 331.534Z"
     id="path8" />
  <path
     fill="#300426"
     d="M583.896 302.065C583.758 301.857 582.388 300.135 582.827 299.838C583.372 299.902 584.289 300.924 584.694 301.309L583.896 302.065Z"
     id="path9" />
  <path
     fill="#7D1D25"
     d="M261.914 331.534C261.913 331.536 262.25 330.123 262.64 330.505C263.147 331.001 263.034 332.156 263.085 332.762C262.711 332.392 262.221 331.947 261.914 331.534Z"
     id="path10" />
  <path
     fill="#1E1B7A"
     d="M349.907 133.272C351.172 135.005 357.891 155.68 359.052 159.049L379.386 217.518C382.661 212.595 386.901 204.753 389.99 199.436C396.478 188.348 402.895 177.218 409.24 166.048C412.723 194.52 416.437 222.962 420.384 251.373C429.131 243.563 446.526 229.229 455.947 222.33C456.597 227.928 456.698 236.347 457.03 242.266C457.787 256.114 458.66 269.955 459.65 283.788C467.081 282.175 476.287 280.55 483.76 279.327C484.603 283.681 488.606 299.218 488.314 302.219C487.124 303.228 485.081 303.403 483.455 303.712C482.372 297.355 481.158 291.378 479.261 285.212C471.414 286.347 462.471 288.328 454.608 289.891C453.758 270.939 451.598 252.249 451.414 233.115C440.72 241.345 426.734 253.799 416.515 260.909C413.309 244.262 411.617 225.582 409.258 208.712C408.073 200.234 407.552 190.718 405.714 182.439C396.883 199.122 387.233 215.04 378.439 231.977C372.165 214.409 366.4 197.159 360.418 179.51C357.729 171.574 354.408 161.561 351.197 153.947C350.061 163.317 347.62 174.642 345.723 184.011C342.338 200.285 339.113 216.592 336.05 232.931C328.641 222.013 321.306 211.923 314.085 200.755C311.048 195.945 308.146 191.366 304.907 186.679C305.551 208.889 305.004 233.044 304.749 255.349C294.136 247.493 281.999 234.811 270.414 225.59C270.777 241.931 272.73 262.054 273.53 278.996C265.601 274.631 257.387 270.611 249.391 266.242C249.764 280.396 251.345 298.506 252.509 312.75C245.472 309.663 239.074 306.006 231.752 303.001L240.009 347.374C234.153 345.06 228.726 342.916 222.751 340.919C224.325 351.836 225.842 362.76 227.301 373.692C223.882 372.438 216.777 372.19 216.698 368.221L217.562 367.45C219.507 366.886 221.28 367.769 223.267 368.416C221.047 357.985 219.659 345.739 218.305 335.058C223.584 336.885 229.069 338.989 234.337 340.915C232.332 326.424 228.343 309.762 225.512 295.299C231.864 298.834 240.856 302.459 247.718 305.5C247.401 292.178 244.912 272.553 244.041 258.38C250.952 261.494 260.978 267.068 268.091 270.694C268.026 252.339 265.655 232.572 265.497 213.985C276.672 222.8 288.531 233.877 299.579 243.181C299.385 219.895 300.962 193.026 299.65 170.08C311.272 186.111 321.825 202.175 332.792 218.635L349.907 133.272Z"
     id="path11" />
  <path
     fill="#06044B"
     d="M775.017 341.653C781.194 338.803 832.456 339.595 841.617 341.541C846.288 341.873 849.906 343.118 853.958 343.584L853.891 513.344C850.841 514.458 847.862 515.562 844.766 516.548C843.615 516.712 842.531 516.818 841.375 516.935L840.976 517.338C835.183 518.341 829.802 519.314 823.941 519.867C817.332 520.492 809.527 520.266 803.116 521.296C795.648 511.692 789.389 504.089 781.276 495.005C769.888 483.248 760.511 473.697 746.168 465.098C740.588 461.753 729.665 457.389 725.468 453.897C719.503 448.933 711.303 440.196 705.757 434.568C703.553 429.837 702.237 409.338 702.016 403.372C704.769 368.138 719.793 348.779 755.62 342.677C758.808 342.134 772.291 340.231 775.017 341.653Z"
     id="path12" />
  <path
     fill="#2B2BF5"
     d="M702.016 403.372C704.769 368.138 719.793 348.779 755.62 342.677C758.808 342.134 772.291 340.231 775.017 341.653C764.975 348.475 756.524 357.492 754.141 369.841C752.617 379.328 753.026 389.615 758.563 397.735C766.617 409.547 780.725 408.117 792.191 413.499C806.143 420.049 814.525 435.515 812.343 450.778C810.495 463.704 799.921 471.541 792.051 480.931C787.929 485.804 784.916 489.832 781.276 495.005C769.888 483.248 760.511 473.697 746.168 465.098C740.588 461.753 729.665 457.389 725.468 453.897C719.503 448.933 711.303 440.196 705.757 434.568C703.553 429.837 702.237 409.338 702.016 403.372Z"
     id="path13" />
  <path
     fill="#dbd0a0"
     d="m 1142.0057,315.88797 c 4.671,0.332 8.289,1.577 12.341,2.043 l -0.067,169.76 c -3.05,1.114 -6.029,2.218 -9.125,3.204 -1.151,0.164 -2.235,0.27 -3.391,0.387 0.44,-5.208 0.215,-14.602 0.218,-20.087 l -0.024,-37.413 z"
     id="path14" />
  <path
     fill="#2B2BF5"
     d="M822.668 314.971C852.433 315.572 888.563 322.932 912.423 341.365C917.538 342.777 926.448 342.824 931.971 343.751C936.347 344.178 952.096 345.036 954.826 347.157C955.75 350.528 955.48 400.703 953.933 403.444C951.522 405.532 948.377 405.064 945 405.53C939.669 406.266 938.078 407.273 933.459 409.28C932.894 409.962 932.561 410.147 931.821 410.681C928.199 413.294 926.772 416.521 924.962 420.436C922.573 432.853 921.618 444.751 918.828 457.22L918.375 459.241C918.135 460.283 917.78 461.481 917.487 462.52C913.198 479.937 902.768 505.734 887.587 516.506C884.904 520.996 868.31 529.862 862.668 531.867C859.175 533.82 850.286 536.223 846.27 537.144C844.856 537.482 843.435 537.784 842.006 538.051C838.929 538.655 832.667 539.901 829.694 539.839C826.337 540.399 825.606 540.388 822.275 540.607C819.192 540.58 817.196 541.562 815.595 538.943L815.2 538.328C812.581 533.862 808.546 528.394 805.466 524.264C807.379 523.883 815.883 523.719 818.395 523.599C826.507 523.273 834.57 522.165 842.47 520.289C845.694 519.578 849.234 518.366 852.416 517.358C868.606 511.041 885.3 495.452 892.304 479.496C902.217 456.911 904.815 428.456 907.033 404.083C908.442 388.601 902.862 369.655 892.075 358.37C873.787 338.722 840.955 337.014 815.622 336.051C815.547 329.936 815.518 323.82 815.535 317.705C824.937 317.746 831.309 318.05 840.632 319.196C835.539 315.119 828.055 317.646 822.668 314.971Z"
     id="path15"
     style="fill:#06044b;fill-opacity:1" />
  <path
     fill="#1E1B7A"
     d="M822.668 314.971C852.433 315.572 888.563 322.932 912.423 341.365C917.538 342.777 926.448 342.824 931.971 343.751L930.589 346.145C924.192 345.472 916.979 345.875 910.978 343.909C887.759 327.808 867.978 323.433 840.632 319.196C835.539 315.119 828.055 317.646 822.668 314.971Z"
     id="path16" />
  <path
     fill="#2B278A"
     d="M916.545 455.894C916.599 456.511 916.75 459.167 916.827 459.537C917.001 459.365 917.264 456.094 917.807 456.005C918.505 456.486 917.485 461.226 917.487 462.52C913.198 479.937 902.768 505.734 887.587 516.506C888.658 513.659 889.135 514.171 889.902 510.549C891.634 507.743 897.184 501.887 899.643 498.098C908.668 484.192 912.235 471.454 916.545 455.894Z"
     id="path17" />
  <path
     fill="#06044B"
     d="M931.971 343.751C936.347 344.178 952.096 345.036 954.826 347.157C955.75 350.528 955.48 400.703 953.933 403.444C951.743 402.193 952.667 399.695 952.422 396.902C952.406 388.829 952.84 380.508 952.97 372.382C953.096 364.56 952.726 355.603 953.368 347.911C945.273 347.643 938.585 346.971 930.589 346.145L931.971 343.751Z"
     id="path18" />
  <path
     fill="#2B278A"
     d="M827.595 537.336C828.93 536.786 841.811 535.159 844.758 534.562C845.842 534.354 846.92 534.117 847.992 533.853L851.013 533.112C859.318 531.028 861.351 529.26 868.476 526.629C866.657 528.743 863.049 530.544 862.668 531.867C859.175 533.82 850.286 536.223 846.27 537.144C844.856 537.482 843.435 537.784 842.006 538.051C838.929 538.655 832.667 539.901 829.694 539.839C828.808 539.573 825.432 539.023 825.291 538.917L825.211 538.906C826.332 538.263 828.295 539.086 827.595 537.336Z"
     id="path19" />
  <path
     fill="#06044B"
     d="M921.045 427.475C921.289 428.411 921.5 431.013 921.647 431.289L921.937 431.316C922.491 430.247 922.488 419.719 924.962 420.436C922.573 432.853 921.618 444.751 918.828 457.22L918.375 459.241C918.135 460.283 917.78 461.481 917.487 462.52C917.485 461.226 918.505 456.486 917.807 456.005C917.264 456.094 917.001 459.365 916.827 459.537C916.75 459.167 916.599 456.511 916.545 455.894C917.165 451.555 918.279 446.942 918.973 442.499C919.702 437.831 920.057 431.933 921.045 427.475Z"
     id="path20" />
  <path
     fill="#1E1B7A"
     d="M889.902 510.549C889.135 514.171 888.658 513.659 887.587 516.506C884.904 520.996 868.31 529.862 862.668 531.867C863.049 530.544 866.657 528.743 868.476 526.629C870.538 524.927 876.717 521.971 879.881 519.373C883.615 516.308 886.372 513.678 889.902 510.549Z"
     id="path21" />
  <path
     fill="#1E1B7A"
     d="M927.035 411.412C929.378 410.445 931.399 408.523 933.655 407.08C934.644 406.448 941.645 403.236 941.764 405.365C940.648 406.239 935.992 405.451 933.459 409.28C932.894 409.962 932.561 410.147 931.821 410.681C928.199 413.294 926.772 416.521 924.962 420.436C922.488 419.719 922.491 430.247 921.937 431.316L921.647 431.289C921.5 431.013 921.289 428.411 921.045 427.475C920.937 423.705 923.791 413.569 927.035 411.412Z"
     id="path22" />
  <path
     fill="#2B278A"
     d="M952.422 396.902C952.667 399.695 951.743 402.193 953.933 403.444C951.522 405.532 948.377 405.064 945 405.53C939.669 406.266 938.078 407.273 933.459 409.28C935.992 405.451 940.648 406.239 941.764 405.365C941.645 403.236 934.644 406.448 933.655 407.08C931.399 408.523 929.378 410.445 927.035 411.412L927.198 411.175C932.861 402.836 943.325 403.415 951.799 401.75C952.135 401.684 952.322 397.588 952.422 396.902Z"
     id="path23" />
  <path
     fill="#1E1B7A"
     d="M815.2 538.328L827.595 537.336C828.295 539.086 826.332 538.263 825.211 538.906L825.291 538.917C825.432 539.023 828.808 539.573 829.694 539.839C826.337 540.399 825.606 540.388 822.275 540.607C819.192 540.58 817.196 541.562 815.595 538.943L815.2 538.328Z"
     id="path24" />
  <path
     fill="#06044b"
     d="m 1184.9648,146.63496 c 12.638,1.327 29.416,9.241 37.638,19.423 18.195,22.535 11.269,50.259 7.68,76.298 -3.469,25.16 -9.706,48.879 -30.835,65.206 -4.37,3.496 -9.309,6.697 -14.55,8.833 z"
     id="path25" />
  <path
     fill="#2B278A"
     d="M419.612 314.968C427.158 314.186 435.511 312.882 442.987 312.333C455.25 311.432 468.409 311.337 480.701 311.488C520.451 311.976 563.971 317.039 595.843 343.075C596.992 344.016 598.128 344.973 599.25 345.945L612.24 343.7C615.436 343.081 618.332 342.949 621.585 343.104C626.422 343.67 640.961 342.917 646.719 342.962C661.083 343.16 675.43 344.061 689.706 345.661C712.727 329.537 729.014 324.608 755.35 318.8C773.936 315.807 803.95 313.059 822.668 314.971C828.055 317.646 835.539 315.119 840.632 319.196C831.309 318.05 824.937 317.746 815.535 317.705C815.518 323.82 815.547 329.936 815.622 336.051C840.955 337.014 873.787 338.722 892.075 358.37C902.862 369.655 908.442 388.601 907.033 404.083C904.815 428.456 902.217 456.911 892.304 479.496C885.3 495.452 868.606 511.041 852.416 517.358C849.234 518.366 845.694 519.578 842.47 520.289C834.57 522.165 826.507 523.273 818.395 523.599C815.883 523.719 807.379 523.883 805.466 524.264L803.116 521.296C809.527 520.266 817.332 520.492 823.941 519.867C829.802 519.314 835.183 518.341 840.976 517.338L841.375 516.935C842.531 516.818 843.615 516.712 844.766 516.548C847.862 515.562 850.841 514.458 853.891 513.344C859.132 511.208 864.071 508.007 868.441 504.511C889.57 488.184 895.807 464.465 899.276 439.305C902.865 413.266 909.791 385.542 891.596 363.007C883.374 352.825 866.596 344.911 853.958 343.584C849.906 343.118 846.288 341.873 841.617 341.541C832.456 339.595 781.194 338.803 775.017 341.653C772.291 340.231 758.808 342.134 755.62 342.677C719.793 348.779 704.769 368.138 702.016 403.372C702.237 409.338 703.553 429.837 705.757 434.568C704.376 433.234 703.086 431.798 701.782 430.387C701.779 430.279 701.776 430.17 701.773 430.061C700.619 425.052 700.191 419.73 699.812 414.598C699.096 407.449 699.502 400.959 700.163 393.872C702.715 376.632 707.484 363.399 722.02 352.58C744.285 336.008 785.486 336.618 812.559 336.067C812.737 329.83 812.88 324.198 812.702 317.962C776.596 318.086 738.63 321.433 706.434 338.846C700.336 342.144 696.306 345.128 690.614 348.76C671.936 346.438 653.108 345.539 634.294 346.074C621.23 346.574 610.399 347.913 597.794 348.857C565.036 317.514 506.66 313.96 463.811 314.558C431.31 315.012 395.277 319.563 366.803 336.247C356.99 341.996 353.456 340.924 342.464 341.424L315.943 342.53L315.611 399.963C337.944 400.851 353.351 401.982 356.144 428.793C356.585 433.031 357.505 438.287 358.113 442.466C363.698 480.843 374.976 517.137 415.962 529.9C429.872 534.232 442.085 537.732 456.991 537.938C493.641 539.418 537.01 539.643 566.064 513.684C588.923 492.777 596.588 459.593 601.596 430.249C603.58 419.381 603.738 407.433 607.987 397.146C618.73 371.132 654.521 364.185 673.014 386.27C677.415 391.525 686.458 404.032 683.834 411.232C682.833 410.165 681.758 408.591 680.882 407.387C674.549 400.853 668.259 392.747 662.057 385.964C659.825 383.522 656.004 380.373 654.414 377.775C646.27 375.467 637.157 375.715 629.303 379.813C628.666 380.145 628.206 380.627 627.866 381.247C624.454 381.537 623.655 383.93 621.471 385.189C613.792 390.694 608.794 400.985 607.579 410.127C605.333 427.035 602.804 449.536 597.507 465.701C596.346 468.134 592.809 477.468 592.723 479.929C588.728 488.461 585.53 495.411 579.982 503.237C578.148 505.823 570.712 513.65 569.822 515.36C563.845 520.567 557.394 525.619 550.046 529.096C520.411 543.118 484.481 542.709 452.396 541C447.871 540.759 444.442 540.228 440.156 539.603C436.803 539.114 427.781 536.827 425.255 536.96C423.993 536.194 409.677 531.807 406.755 530.558C400.273 527.788 397.191 524.768 391.777 521.809L390.914 521.344C390.609 520.314 382.189 513.687 380.765 512.1C367.376 497.212 362.579 478.167 357.486 459.341C353.609 445.006 354.583 424.566 346.697 412.169C341.411 403.858 322.477 403.617 313.004 402.306C313.004 383.077 312.992 360.744 312.236 341.691C307.832 345.068 290.215 359.89 286.912 361.454C289.733 358.019 298.578 351.766 302.582 347.952C306.415 345.191 309.415 342.488 312.943 339.378C321.889 339.245 331.707 338.315 340.763 338.099C344.847 338.002 354.278 337.636 357.919 337.018C361.322 336.441 368.205 330.683 372.742 328.744C387.945 322.248 403.331 317.7 419.612 314.968Z"
     id="path26" />
  <path
     fill="#FA584C"
     d="M654.414 377.775C666.933 380.702 678.421 395.069 680.882 407.387C674.549 400.853 668.259 392.747 662.057 385.964C659.825 383.522 656.004 380.373 654.414 377.775Z"
     id="path27" />
  <path
     fill="#1E1B7A"
     d="M700.163 393.872C701.552 398.808 701.048 403.558 701.164 408.699C700.89 410.573 700.215 412.489 699.812 414.598C699.096 407.449 699.502 400.959 700.163 393.872Z"
     id="path28" />
  <path
     fill="#2B278A"
     d="M460.283 333.233C515.802 332.262 596.156 331.238 589.514 408.704C583.904 474.127 575.395 517.932 500.122 524.36C497.526 524.475 494.929 524.576 492.332 524.663C401.297 527.67 375.782 496.094 371.021 406.865C369.132 371.459 378.186 350.84 413.78 339.556C430.139 334.37 443.377 333.651 460.283 333.233Z"
     id="path29" />
  <path
     fill="#06044B"
     d="M476.849 336.332C484.265 336.116 501.945 335.689 508.568 337.715C512.04 337.699 518.593 338.746 522.163 339.281C538.485 341.725 559.475 347.021 571.649 358.822C582.306 369.153 586.287 386.087 586.108 400.498C585.971 411.488 584.823 421.146 583.274 432.119C579.73 457.219 576.276 480.486 557.47 499.324C540.67 516.152 513.761 521.423 490.676 521.19C475.748 522.54 440.457 520.467 427.264 513.974C387.337 501.224 379.496 461.423 375.927 425.131C373.77 403.194 370.11 374.008 388.136 357.131C409.618 337.019 448.937 336.419 476.849 336.332Z"
     id="path30" />
  <path
     fill="#DBD0A0"
     d="M427.264 513.974C387.337 501.224 379.496 461.423 375.927 425.131C373.77 403.194 370.11 374.008 388.136 357.131C409.618 337.019 448.937 336.419 476.849 336.332C461.422 351.138 454.901 361.86 453.705 383.699C452.202 411.151 478.524 416.088 488.129 438.077C492.498 448.08 493.656 460.914 485.143 469.175C479.658 474.496 472.703 476.988 465.71 479.717C448.327 486.098 433.965 495.891 427.264 513.974Z"
     id="path31"
     style="fill:#5555ff" />
  <path
     fill="#2B2BF5"
     d="M476.849 336.332C484.265 336.116 501.945 335.689 508.568 337.715C496.909 346.422 489.677 355.683 487.713 370.411C486.274 381.203 487.284 390.306 493.94 399.162C501.873 409.717 510.855 411.668 521.106 418.005C534.597 426.345 542.415 441.743 540.236 457.713C536.128 487.818 497.75 494.689 490.676 521.19C475.748 522.54 440.457 520.467 427.264 513.974C433.965 495.891 448.327 486.098 465.71 479.717C472.703 476.988 479.658 474.496 485.143 469.175C493.656 460.914 492.498 448.08 488.129 438.077C478.524 416.088 452.202 411.151 453.705 383.699C454.901 361.86 461.422 351.138 476.849 336.332Z"
     id="path32" />
  <path
     fill="#FA584C"
     d="M205.637 652.976C216.401 642.631 229.89 639.557 244.507 639.867C267.846 640.362 287.311 650.701 306.493 662.744C346.936 651.851 390.046 657.403 426.41 678.188C439.771 685.795 447.439 694.067 458.882 703.802C467.16 710.845 477.847 718.981 486.762 725.374C494.138 730.664 508.836 737.472 517.672 741.009C562.043 758.676 612.177 769.822 659.481 757.939C670.786 755.099 679.818 750.367 690.474 746.38C703.665 741.444 715.778 736.784 728.601 730.884C752.65 740.638 779.615 745.653 805.583 743.156C785.825 789.82 758.207 807.908 709.637 818.639C710.509 819.468 711.428 820.231 712.325 821.032C705.227 821.21 698.576 821.584 691.405 821.522C688.624 821.858 685.295 821.864 682.466 821.913C638.099 822.683 593.728 822.376 549.356 822.478L436.486 822.826C407.421 822.936 379.034 823.258 349.985 822.463L185.272 817.312L131.413 815.35C120.623 814.907 108.771 814.063 98.1247 814.035L96.7846 813.001C101.548 813.059 109.687 812.338 114.751 812.087L153.361 810.197L249.061 805.638C270.333 804.538 292.51 802.985 313.738 802.389C308.789 798.465 297.244 793.731 290.981 789.953C275.534 780.636 257.06 769.763 244.921 756.448C239.494 750.496 240.406 735.701 239.144 727.853C237.297 716.366 234.68 705.327 228.704 695.161C221.912 683.082 204.444 678.743 201.815 664.791C200.977 660.347 203.087 656.328 205.637 652.976Z"
     id="path33" />
  <path
     fill="#06044B"
     d="M313.738 802.389C321.07 805.514 329.987 810.307 337.616 811.503C341.761 812.134 345.981 812.07 350.105 811.314C355.669 810.334 364.752 807.037 370.609 805.215L402.801 795.446C426.082 788.197 430.507 789.865 454.334 792.454C468.423 793.968 482.501 795.58 496.567 797.289L603.85 809.2L672.119 816.514C676.266 816.964 691.22 817.975 693.889 818.873C696.849 820.574 696.55 819.786 699.939 820.071L699.875 820.071L700.023 820.114L700.057 820.166C699.808 820.245 699.952 820.229 699.623 820.152C697.267 821.107 695.067 819.391 691.405 821.522C688.624 821.858 685.295 821.864 682.466 821.913C638.099 822.683 593.728 822.376 549.356 822.478L436.486 822.826C407.421 822.936 379.034 823.258 349.985 822.463L185.272 817.312L131.413 815.35C120.623 814.907 108.771 814.063 98.1247 814.035L96.7846 813.001C101.548 813.059 109.687 812.338 114.751 812.087L153.361 810.197L249.061 805.638C270.333 804.538 292.51 802.985 313.738 802.389Z"
     id="path34" />
  <path
     fill="#0B0115"
     d="M693.889 818.873C700.755 819.296 702.653 820.223 709.637 818.639C710.509 819.468 711.428 820.231 712.325 821.032C705.227 821.21 698.576 821.584 691.405 821.522C695.067 819.391 697.267 821.107 699.623 820.152C699.952 820.229 699.808 820.245 700.057 820.166L700.023 820.114L699.875 820.071L699.939 820.071C696.55 819.786 696.849 820.574 693.889 818.873Z"
     id="path35" />
  <path
     fill="#06044B"
     d="M235.394 651.668C243.243 653.041 251.236 654.599 258.725 657.355C305.568 674.592 344.303 714.222 372.356 754.104C372.885 754.856 373.407 755.612 373.923 756.373L372.27 757.948C365.293 751.148 354.981 742.42 347.538 736.052C314.3 707.612 271.613 673.739 233.477 652.833C234.112 652.438 234.751 652.05 235.394 651.668Z"
     id="path36" />
  <path
     fill="#FD854F"
     d="M281.061 718.25C284.835 719.954 307.508 738.158 312.852 742.076C318.029 745.873 333.334 756.781 337.503 760.502L327.607 762.51C312.026 765.492 296.471 768.606 280.943 771.853C280.91 754.424 280.523 735.568 281.061 718.25Z"
     id="path37" />
  <path
     fill="#300426"
     d="M373.923 756.373C375.76 758.146 378.907 762.759 380.488 764.935C377.893 762.91 374.612 760.249 372.27 757.948L373.923 756.373Z"
     id="path38" />
  <path
     fill="#300426"
     d="M233.477 652.833C233.168 652.69 231.225 651.974 231.375 651.38C231.862 651.029 234.785 651.537 235.394 651.668C234.751 652.05 234.112 652.438 233.477 652.833Z"
     id="path39" />
  <path
     fill="#DBD0A0"
     d="M201.197 641.384C208.523 626.808 234.213 614.324 248.982 609.46C298.918 593.35 353.177 597.427 400.144 620.82C426.762 634.345 446.389 652.75 471.702 666.658C486.504 674.789 517.87 670.749 533.341 680.61C538.136 683.233 551.656 702.736 555.899 708.202C558.314 705.729 569.314 694.279 571.876 693.529C572.864 696.393 582.149 713.447 584.044 716.694C589.559 711.413 594.542 705.806 600.234 700.696C602.532 703.786 607.175 711.257 609.265 713.45C610.565 715.858 611.727 718.193 613.899 719.836L614.723 719.816L615.648 718.4C618.927 714.637 624.568 706.533 627.752 702.245C633.292 708.559 637.719 715.442 643.274 721.768C646.917 714.749 649.735 707.476 653.434 700.545C658.977 705.343 664.346 710.813 669.443 716.072C672.832 711.452 676.865 704.812 680.045 699.878C686.94 702.269 702.972 710.933 710.165 714.596C716.001 713.119 730.123 710.854 736.057 710.761C742.921 711.448 750.583 713.655 757.294 715.209C785.295 721.692 814.362 726.149 842.386 716.992C846.917 715.512 851.147 713.292 855.807 711.917L856.391 711.751C855.858 714.452 854.188 722.163 854.081 724.652C848.456 732.811 822.129 740.038 812.054 742.257L805.583 743.156C779.615 745.653 752.65 740.638 728.601 730.884C715.778 736.784 703.665 741.444 690.474 746.38C679.818 750.367 670.786 755.099 659.481 757.939C612.177 769.822 562.043 758.676 517.672 741.009C508.836 737.472 494.138 730.664 486.762 725.374C477.847 718.981 467.16 710.845 458.882 703.802C447.439 694.067 439.771 685.795 426.41 678.188C390.046 657.403 346.936 651.851 306.493 662.744C287.311 650.701 267.846 640.362 244.507 639.867C229.89 639.557 216.401 642.631 205.637 652.976C204.034 649.567 202.234 645.501 200.906 641.99L201.197 641.384Z"
     id="path40" />
  <path
     fill="#2B2BF5"
     d="M286.912 361.454C290.215 359.89 307.832 345.068 312.236 341.691C312.992 360.744 313.004 383.077 313.004 402.306C311.111 403.068 309.955 403.366 308.437 404.675C303.951 407.221 280.797 423.236 277.606 426.772C272.597 429.424 251.965 442.62 249.95 446.638C222.071 467.831 190.24 484.271 185.213 523.723C183.369 538.193 182.813 552.865 180.665 567.275C179.75 573.514 176.632 573.128 171.861 573.511C168.851 573.188 164.259 572.678 162.332 570C158.65 564.884 168.956 501.284 170.564 492.587C171.34 491.298 174.903 473.596 177.526 467.947C187.314 446.856 203.963 431.01 221.139 415.849C225.047 412.4 231.315 406.737 235.441 403.884C240.722 401.422 250.275 391.639 254.75 387.812C259.487 383.763 266.699 380.092 270.58 374.868C271.712 373.194 284.956 362.615 286.912 361.454Z"
     id="path41" />
  <path
     fill="#FA584C"
     d="M569.822 515.36C570.712 513.65 578.148 505.823 579.982 503.237C585.53 495.411 588.728 488.461 592.723 479.929C610.323 517.942 632.08 564.151 617.099 606.702C612.73 619.111 603.113 630.07 591.101 635.56C583.555 639.009 577.322 639.153 569.411 636.807C567.554 636.032 563.757 632.707 562.292 631.262C554.72 623.69 550.489 613.405 550.541 602.697C550.5 591.315 554.945 579.464 563.057 571.399C575.956 560.879 573.386 529.434 569.822 515.36Z"
     id="path42" />
  <path
     fill="#06044B"
     d="M597.507 465.701C601.543 466.458 608.437 467.388 611.941 468.462C620.421 471.063 628.867 483.866 633.839 491.124L653.514 520.44C656.785 525.293 664.995 536.576 666.769 541.263C669.722 551.636 665.169 565.014 661.928 574.593C652.173 603.419 637.007 640.83 602.399 644.535C592.666 645.577 577.072 643.319 569.411 636.807C577.322 639.153 583.555 639.009 591.101 635.56C603.113 630.07 612.73 619.111 617.099 606.702C632.08 564.151 610.323 517.942 592.723 479.929C592.809 477.468 596.346 468.134 597.507 465.701Z"
     id="path43" />
  <path
     fill="#FA584C"
     d="M249.95 446.638C251.017 448.969 250.633 453.694 250.688 456.483C251.132 479.231 246.375 503.528 232.015 521.753C220.547 536.306 221.015 542.599 224.72 559.715C212.968 569.384 198.781 579.542 188.743 590.748C180.987 599.407 185.074 614.93 190.963 623.424C193.419 626.92 199.412 628.567 203.552 629.232C202.593 632.439 200.856 638.065 201.197 641.384L200.906 641.99C198.37 644.583 195.199 646.93 191.511 647.334C180.256 648.556 174.971 636.687 169.826 628.917C165.675 622.649 158.501 615.016 162.093 607.02C164.719 601.176 169.727 596.255 171.395 589.825C172.796 584.423 172.477 578.998 171.861 573.511C176.632 573.128 179.75 573.514 180.665 567.275C182.813 552.865 183.369 538.193 185.213 523.723C190.24 484.271 222.071 467.831 249.95 446.638Z"
     id="path44" />
  <defs
     id="defs45">
    <linearGradient
       id="gradient_0"
       gradientUnits="userSpaceOnUse"
       x1="411.04257"
       y1="571.58936"
       x2="418.82922"
       y2="727.75635">
      <stop
         offset="0"
         stop-color="#020042"
         id="stop44" />
      <stop
         offset="1"
         stop-color="#1E1D6F"
         id="stop45" />
    </linearGradient>
  </defs>
  <path
     fill="url(#gradient_0)"
     d="M203.552 629.232C211.678 609.553 230.456 594.245 250.107 586.369C318.876 558.809 393.341 594.792 448.96 634.745C459.88 642.589 467.304 653.811 479.948 659.65C498.641 669.551 519.031 668.496 537.418 677.129C541.746 679.161 552.834 695.261 555.796 699.724C561.558 694.261 566.997 689.481 573.026 684.299C576.824 691.588 580.953 699.952 585.296 706.818C590.571 702.55 596.306 696.273 601.129 691.28C605.388 698.126 609.273 705.101 613.707 711.824C614.138 711.265 616.331 708.339 616.669 708.015C620.799 706.045 624.825 695.602 627.621 694.058C628.296 695.958 626.499 696.432 626.921 698.43L627.956 698.205C626.296 704.76 615.938 714.576 615.648 718.4L614.723 719.816L613.899 719.836C611.727 718.193 610.565 715.858 609.265 713.45C607.175 711.257 602.532 703.786 600.234 700.696C594.542 705.806 589.559 711.413 584.044 716.694C582.149 713.447 572.864 696.393 571.876 693.529C569.314 694.279 558.314 705.729 555.899 708.202C551.656 702.736 538.136 683.233 533.341 680.61C517.87 670.749 486.504 674.789 471.702 666.658C446.389 652.75 426.762 634.345 400.144 620.82C353.177 597.427 298.918 593.35 248.982 609.46C234.213 614.324 208.523 626.808 201.197 641.384C200.856 638.065 202.593 632.439 203.552 629.232Z"
     id="path45" />
  <path
     fill="#1E1B7A"
     d="M571.876 693.529C574.667 695.976 577.392 703.255 579.745 706.728L579.804 706.716L579.777 706.753C580.533 702.331 585.599 709.907 583.21 711.405C582.023 712.15 583.733 714.677 584.334 714.936C584.895 714.773 590.448 709.269 589.774 708.535C589.538 708.277 590.447 707.415 590.727 707.277C590.92 707.484 591.113 707.691 591.306 707.898L591.371 707.883C591.64 707.426 591.386 706.801 591.615 706.193C592.421 705.821 592.366 706.568 593.09 706.145C596.386 704.219 598.987 696.962 602.176 701.814C604.327 705.076 606.525 708.306 608.771 711.504C609.319 712.275 609.236 712.494 609.265 713.45C607.175 711.257 602.532 703.786 600.234 700.696C594.542 705.806 589.559 711.413 584.044 716.694C582.149 713.447 572.864 696.393 571.876 693.529Z"
     id="path46" />
  <path
     fill="#06044B"
     d="M425.255 536.96C427.781 536.827 436.803 539.114 440.156 539.603C444.442 540.228 447.871 540.759 452.396 541C484.481 542.709 520.411 543.118 550.046 529.096C557.394 525.619 563.845 520.567 569.822 515.36C573.386 529.434 575.956 560.879 563.057 571.399C555.734 570.218 540.718 566.089 534.641 565.609C523.448 567.379 509.353 578.572 498.956 582.669C466.945 595.283 429.897 570.817 425.255 536.96Z"
     id="path47" />
  <path
     fill="#06044B"
     d="M313.004 402.306C322.477 403.617 341.411 403.858 346.697 412.169C354.583 424.566 353.609 445.006 357.486 459.341C362.579 478.167 367.376 497.212 380.765 512.1C382.189 513.687 390.609 520.314 390.914 521.344C358.705 536.025 326.554 520.185 317.862 485.733C314.454 472.223 313.602 459.07 312.449 445.224L309.107 405.2L308.437 404.675C309.955 403.366 311.111 403.068 313.004 402.306Z"
     id="path48" />
  <path
     fill="#06044B"
     d="M249.95 446.638C251.965 442.62 272.597 429.424 277.606 426.772L277.581 427.461C275.932 428.554 274.247 429.705 272.571 430.748C273.734 455.732 276.063 486.056 271.531 510.403C268.409 527.172 238.17 549.57 224.72 559.715C221.015 542.599 220.547 536.306 232.015 521.753C246.375 503.528 251.132 479.231 250.688 456.483C250.633 453.694 251.017 448.969 249.95 446.638Z"
     id="path49" />
  <path
     fill="#1E1B7A"
     d="M825.631 659.345C827.162 669.076 828 677.765 828.023 687.685C828.035 693.203 823.993 704.748 828.924 707.832C833.052 710.415 839.377 709.419 843.886 708.38C848.43 707.589 856.517 700.592 858.692 700.101C857.746 704.224 857.044 707.58 856.391 711.751L855.807 711.917C851.147 713.292 846.917 715.512 842.386 716.992C814.362 726.149 785.295 721.692 757.294 715.209C750.583 713.655 742.921 711.448 736.057 710.761C730.123 710.854 716.001 713.119 710.165 714.596C702.972 710.933 686.94 702.269 680.045 699.878C676.865 704.812 672.832 711.452 669.443 716.072C664.346 710.813 658.977 705.343 653.434 700.545C649.735 707.476 646.917 714.749 643.274 721.768C637.719 715.442 633.292 708.559 627.752 702.245C624.568 706.533 618.927 714.637 615.648 718.4C615.938 714.576 626.296 704.76 627.956 698.205L626.921 698.43C626.499 696.432 628.296 695.958 627.621 694.058C624.825 695.602 620.799 706.045 616.669 708.015C619.166 703.736 624.428 696.532 627.384 692.207C632.282 698.375 637.273 705.161 642.007 711.491C645.595 704.818 648.609 697.432 651.717 690.467C657.354 696.153 663.117 701.714 669.002 707.144C672.06 701.834 674.81 697.086 678.185 691.965C685.857 696.327 702.173 704.41 710.171 708.115C718.986 707.256 729.341 704.65 737.838 704.705C743.064 705.191 748.626 707.461 753.702 708.272C770.218 710.912 799.662 719.756 812.997 706.502C823.032 696.528 823.452 674.88 823.084 661.831C823.915 660.983 824.801 660.194 825.631 659.345Z"
     id="path50" />
  <path
     fill="#1E1B7A"
     d="M621.471 385.189C623.655 383.93 624.454 381.537 627.866 381.247C626.736 384.455 626.077 385.59 624.426 388.536L647.782 393.871C646.779 400.225 645.809 406.67 644.734 413.007C652.691 414.62 659.514 415.388 667.509 416.525C667.118 423.548 666.809 430.574 666.58 437.604C680.063 440.541 694.687 445.743 701.766 458.796C711.615 476.958 722.67 475.762 738.083 484.771C756.106 495.305 772.278 523.918 783.755 540.856L782.477 540.981C778.621 535.901 773.844 530.852 769.846 525.803C764.109 518.557 758.131 511.383 752.27 504.249C748.496 499.818 743.693 494.437 738.659 491.5C722.315 481.967 707.819 480.431 697.686 462.728C689.361 448.184 676.925 445.544 661.058 442.376C661.319 435.355 661.504 428.331 661.613 421.306C654.043 420.171 646.451 419.184 638.842 418.348C639.754 411.665 640.531 404.963 641.172 398.248C634.042 396.73 625.873 395.149 618.969 393.103L621.471 385.189Z"
     id="path51" />
  <path
     fill="#06044B"
     d="M833.995 575.929C834.844 578.291 837.095 584.253 837.341 586.447C838.483 596.641 834.889 608.398 842.185 617.269C841.345 634.304 831.921 630.133 826.9 617.839C823.691 609.982 822.94 597.595 826.613 589.953C828.711 585.585 831.557 581.541 833.641 576.752L833.995 575.929Z"
     id="path52" />
  <path
     fill="#06044B"
     d="M308.437 404.675L309.107 405.2C298.512 412.375 287.989 420.001 277.581 427.461L277.606 426.772C280.797 423.236 303.951 407.221 308.437 404.675Z"
     id="path53" />
  <path
     fill="#06044B"
     d="M822.575 645.475C823.793 649.702 824.913 654.996 825.631 659.345C824.801 660.194 823.915 660.983 823.084 661.831C822.947 657.057 822.508 650.801 821.772 646.113L822.575 645.475Z"
     id="path54" />
  <path
     fill="#7F7A6E"
     d="M783.755 540.856C788.602 546.773 785.847 545.681 782.477 540.981L783.755 540.856Z"
     id="path55" />
  <path
     fill="#7F7A6E"
     d="M821.772 646.113L821.676 645.53C821.572 644.86 821.34 643.031 821.748 642.472C822.234 643.104 822.427 644.664 822.575 645.475L821.772 646.113Z"
     id="path56" />
  <path
     fill="#06044B"
     d="M721.944 539.108C727.658 538.426 733.447 539.466 738.565 542.097C748.327 547.079 750.89 556.267 753.859 565.809C756.104 566.686 758.899 567.569 761.124 568.776C777.025 577.398 791.453 593.67 798.113 610.481C799.338 614.405 800.456 620.482 798.221 624.108C791.691 634.708 782.726 620.76 777.594 616.348C773.047 612.44 769.385 611.07 763.587 611.577L762.97 611.636C765.399 621.4 766.864 629.76 764.818 639.87C764.118 647.658 754.747 651.371 747.84 648.475C715.898 635.081 703.059 582.281 711.681 551.592C713.289 545.869 716.881 541.594 721.944 539.108Z"
     id="path57" />
  <path
     fill="#FA584C"
     d="M854.081 724.652C857.89 729.659 858.429 739.065 854.533 743.881C839.571 762.379 824.521 781.898 807.695 798.636C802.62 803.603 783.496 804.289 778.601 806.019C788.624 806.984 800.936 807.053 811.15 807.462C828.492 808.307 845.839 809.062 863.189 809.728C882.599 810.539 907.643 812.932 926.484 812.98L927.538 814.048C905.576 814.067 880.073 815.385 858.03 816.245L762.91 819.611C746.904 820.14 728.162 821.16 712.325 821.032C711.428 820.231 710.509 819.468 709.637 818.639C758.207 807.908 785.825 789.82 805.583 743.156L812.054 742.257C822.129 740.038 848.456 732.811 854.081 724.652Z"
     id="path58" />
  <path
     fill="#06044B"
     d="M812.054 742.257C803.189 769.202 783.006 794.966 757.731 808.345C765.024 807.318 771.211 806.173 778.601 806.019C788.624 806.984 800.936 807.053 811.15 807.462C828.492 808.307 845.839 809.062 863.189 809.728C882.599 810.539 907.643 812.932 926.484 812.98L927.538 814.048C905.576 814.067 880.073 815.385 858.03 816.245L762.91 819.611C746.904 820.14 728.162 821.16 712.325 821.032C711.428 820.231 710.509 819.468 709.637 818.639C758.207 807.908 785.825 789.82 805.583 743.156L812.054 742.257Z"
     id="path59" />
  <path
     fill="#A7A4AA"
     d="M926.484 812.98C927.87 812.905 935.413 813.078 936.622 813.407L936.657 813.459C936.523 814.12 928.587 814.108 927.538 814.048L926.484 812.98Z"
     id="path60" />
  <path
     fill="#878194"
     d="M98.1247 814.035C94.0596 814.115 90.6264 813.765 86.797 813.752L86.9581 813.715L86.8237 813.739C89.6882 813.797 92.9526 812.869 96.7846 813.001L98.1247 814.035Z"
     id="path61" />
</svg>
