<svg
   width="224.03542mm"
   height="236.14436mm"
   viewBox="0 0 224.03541 236.14436"
   version="1.1"
   xmlns="http://www.w3.org/2000/svg"
   xmlns:svg="http://www.w3.org/2000/svg"><g
     transform="translate(9.6432374,-35.574645)"><path
       style="fill:currentColor"
       d="M 20.17379,271.44506 C 6.5166304,271.26725 5.6172933,271.21547 4.4751848,270.54104 c -1.5651773,-0.92425 -2.5444017,-2.78437 -2.5444017,-4.83329 0,-3.06081 1.3761462,-3.93715 8.1860489,-5.21294 7.518559,-1.40856 11.535244,-2.22287 11.68035,-2.36797 0.190032,-0.19002 -1.516168,-6.36074 -2.027534,-7.33287 -0.66849,-1.27087 -2.461229,-1.86736 -6.385279,-2.12451 -4.8072303,-0.31504 -6.2572747,-1.01216 -7.5943629,-3.65101 -1.3667365,-2.6974 -1.5132755,-2.82877 -4.90154338,-4.39415 -1.67111683,-0.77207 -3.34462662,-1.68066 -3.71890312,-2.01913 -1.9821758,-1.79249 -2.7301475,-5.76723 -1.4826942,-7.879 1.1522076,-1.95054 3.72552772,-2.94503 13.1579883,-5.08506 2.7206833,-0.61726 5.4845083,-1.31068 6.1418453,-1.54092 l 1.195159,-0.41864 -1.061005,-3.30811 c -1.281076,-3.9943 -1.576695,-4.2057 -6.862939,-4.90804 -5.4261985,-0.72095 -6.0282667,-1.07788 -7.7497305,-4.59434 l -0.90248718,-1.84355 -3.16680342,-0.96193 c -4.687731,-1.42392 -6.0433139,-3.00944 -6.0808849,-7.11227 -0.01717,-1.87764 0.138292,-2.57545 0.7722529,-3.46577 1.0389946,-1.45913 2.5759565,-1.9841 9.72740418,-3.32247 3.24617692,-0.60752 6.46892442,-1.25346 7.16165502,-1.43542 l 1.2594992,-0.33085 -0.00811,-3.31703 -0.00811,-3.31705 -2.9180563,-0.24201 c -4.9036931,-0.4067 -6.37630167,-1.68107 -7.4188654,-6.42015 -0.1532311,-0.69658 -1.1166646,-1.54286 -3.7333015,-3.27934 -4.0780107,-2.7063 -4.8975281,-3.89209 -4.628069,-6.69647 0.205633,-2.14005 1.3811755,-3.81633 3.2815442,-4.67937 1.8240234,-0.82837 5.60579271,-0.87836 11.1032259,-0.14679 2.1525362,0.28644 3.9801018,0.45442 4.0612464,0.37328 0.081118,-0.0811 0.3765343,-1.46722 0.656444,-3.08016 0.6438034,-3.7099 0.3423304,-4.30456 -2.6187054,-5.16535 -4.6794705,-1.36036 -6.35365627,-2.68839 -6.93159201,-5.49841 -0.55572303,-2.70201 -0.80027902,-3.08531 -2.66618619,-4.1788 -2.3025496,-1.34938 -3.0324862,-2.42186 -3.0324862,-4.45553 0,-1.32867 0.2538575,-2.07314 1.1625366,-3.40929 2.1014592,-3.09003 4.74943448,-3.73733 8.6743763,-2.1205 1.1804366,0.48626 2.1807651,0.88486 2.2229462,0.88577 0.042181,9.2e-4 -0.266958,-0.76294 -0.6870253,-1.69744 -0.5476924,-1.21847 -0.7938573,-2.58153 -0.870216,-4.81856 -0.1304641,-3.82275 -1.1239111,-6.09159 -3.739169,-8.53965 -2.13055328,-1.99434 -2.2252175,-2.84698 -0.66314974,-5.97297 1.42980554,-2.86129 2.90675384,-3.83966 5.28060584,-3.49802 3.431436,0.49384 3.0687593,0.94704 3.4148475,-4.26704 C 9.6560025,102.1918 9.4319693,101.54107 5.6426561,98.486361 4.8926429,97.881751 3.9295744,96.575785 3.4316341,95.488133 2.5823195,93.632974 2.5586737,93.378535 2.7978624,88.666469 2.9687772,85.299616 2.9138606,83.245746 2.6219184,82.086386 2.258106,80.641534 2.2892146,80.159776 2.8398813,78.711512 3.5905164,76.737313 6.61846,73.41663 10.498611,70.312355 c 2.606525,-2.085344 2.681207,-2.190202 3.302459,-4.636546 0.873015,-3.437655 2.887219,-7.484219 4.375956,-8.791362 2.050896,-1.800702 5.519254,-3.54108 12.974676,-6.510524 l 7.08508,-2.821932 0.107211,-1.986475 0.10721,-1.986488 2.158106,-1.465525 c 1.186954,-0.806051 2.667877,-1.615307 3.290968,-1.798349 1.049229,-0.308234 22.893409,-3.241107 31.895582,-4.2824 2.164122,-0.250329 6.429758,-0.456476 9.479211,-0.458098 8.671646,-0.0041 14.292797,1.158143 31.83583,6.585355 10.41092,3.220787 14.94341,4.242057 20.04126,4.515748 5.05505,0.271393 6.7314,0.0014 16.98132,-2.731418 9.44067,-2.51739 12.78978,-3.17843 17.523,-3.458651 9.18459,-0.543758 27.41827,3.108912 36.75889,7.363732 l 2.41452,1.09986 0.003,5.093752 c 0.001,2.801558 0.10234,5.920177 0.22376,6.930267 l 0.22067,1.836515 -2.72771,2.238765 -2.72772,2.238777 v 1.930382 c 0,4.473987 -1.13268,11.873618 -2.58307,16.874679 -0.6085,2.098133 -0.67603,2.750765 -0.33313,3.219354 1.25216,1.711162 1.8526,3.747335 2.16459,7.340438 0.39766,4.579559 1.41218,7.039789 4.63305,11.235189 l 2.11817,2.75905 0.17372,3.75591 c 0.13412,2.90055 0.42856,4.53825 1.29268,7.19111 1.62549,4.99036 1.51977,6.31541 -0.7402,9.27612 -0.83049,1.088 -1.42611,2.45591 -1.8639,4.28073 -1.31474,5.48005 -3.99782,11.03859 -6.81969,14.12839 -1.17228,1.28358 -1.28802,1.33879 -1.12473,0.53655 0.10018,-0.49184 0.28602,-2.18201 0.41314,-3.75591 l 0.2311,-2.86165 -0.9738,1.78854 c -1.27888,2.3488 -3.02623,4.71834 -4.58774,6.22127 l -1.26068,1.2134 0.18196,-3.35964 0.18196,-3.35963 -0.87281,2.04558 c -1.1377,2.6664 -2.7552,5.16307 -4.34001,6.69896 l -1.27196,1.23272 v -4.16269 c 0,-2.38926 -0.15239,-4.25686 -0.35772,-4.38374 -0.19673,-0.12154 -0.3577,-0.04 -0.3577,0.18118 0,0.9053 -2.48141,5.6513 -3.73926,7.1518 -2.19406,2.61728 -2.25358,2.57622 -2.06106,-1.42175 0.23801,-4.94294 -0.003,-5.27302 -1.59232,-2.18293 -0.71959,1.39889 -2.17579,3.46632 -3.23598,4.5943 l -1.92764,2.05087 0.18976,-1.60967 c 0.52469,-4.45076 0.62476,-7.10588 0.29034,-7.70346 -0.32489,-0.58054 -0.42254,-0.52887 -0.95823,0.50704 -0.76199,1.47352 -4.6815,5.40788 -5.38747,5.40788 -0.42843,0 -0.53656,-0.53159 -0.53656,-2.63808 0,-1.45095 -0.10126,-3.14452 -0.22509,-3.76351 l -0.22507,-1.12543 -1.06395,1.44673 c -0.58517,0.79571 -1.77163,1.93364 -2.63657,2.52873 l -1.57261,1.08199 v -3.05769 c 0,-1.68172 -0.12073,-3.05115 -0.26829,-3.04318 -0.74767,0.0404 -4.37075,3.30626 -5.56166,5.01333 -0.74726,1.07109 -1.49047,1.99396 -1.65159,2.05084 -0.34811,0.12289 -0.74571,-1.67264 -0.74571,-3.36747 0,-0.66399 -0.0902,-1.20725 -0.2003,-1.20725 -0.11019,0 -0.94329,0.56729 -1.85138,1.26066 -1.07929,0.82412 -1.77255,1.13918 -2.00192,0.9098 -0.22938,-0.22937 -0.70362,-0.0998 -1.36947,0.37441 -1.19081,0.84793 -1.30416,0.68894 -1.45297,-2.03799 l -0.0992,-1.81821 -1.76429,1.94269 c -1.71281,1.88603 -1.75093,1.9756 -1.30628,3.07018 1.65619,4.07701 2.3042,6.43809 2.51838,9.17588 l 0.23783,3.04049 0.46946,-1.70518 c 0.25819,-0.93785 0.61092,-1.79262 0.78382,-1.89949 0.44889,-0.27742 0.92359,1.16724 1.19212,3.62795 0.44292,4.05873 0.56843,4.17924 1.46611,1.40755 0.79686,-2.46043 0.81785,-2.48611 1.20768,-1.47748 0.4043,1.04604 1.33998,6.18627 1.53866,8.45274 0.10586,1.2081 0.13371,1.17676 0.79516,-0.89427 0.37698,-1.18042 0.80347,-2.28626 0.94777,-2.4574 0.4029,-0.47785 1.00416,2.06372 1.4671,6.2016 0.39244,3.50774 0.44744,3.67717 0.87102,2.6828 0.24867,-0.58377 0.6449,-2.00402 0.88052,-3.15612 0.26701,-1.30568 0.53047,-1.91201 0.69944,-1.60967 0.51035,0.91325 1.42837,4.95306 1.71535,7.54861 0.27895,2.52297 0.2995,2.5649 0.74557,1.52136 0.25227,-0.59021 0.74533,-2.03892 1.09566,-3.21935 l 0.63698,-2.14624 0.58687,1.35749 c 0.90053,2.08305 1.63937,5.28357 1.93168,8.36759 l 0.26488,2.79464 0.60436,-1.78854 c 0.3324,-0.98368 0.70996,-2.47264 0.83902,-3.30877 0.12911,-0.83615 0.3506,-1.52025 0.49233,-1.52025 0.65998,0 2.49496,5.61392 2.51378,7.69067 0.0197,2.17345 0.62368,2.1514 1.06108,-0.0388 0.2315,-1.15911 0.54669,-2.59039 0.70045,-3.1806 l 0.27955,-1.07312 0.80322,1.78853 c 0.44178,0.98369 1.14471,3.15504 1.56207,4.82523 l 0.75884,3.0367 0.78963,-2.67899 c 0.43429,-1.47344 0.89601,-3.16191 1.02607,-3.75212 l 0.23646,-1.07312 0.65466,1.26917 c 0.87447,1.69532 1.69622,4.97541 2.00163,7.9897 0.23341,2.30381 0.27957,2.40507 0.71625,1.57163 0.25672,-0.48996 0.79176,-2.06366 1.189,-3.4971 0.39721,-1.43344 0.79607,-2.6801 0.88633,-2.77036 0.0903,-0.0903 0.67066,0.83939 1.28979,2.06589 1.50158,2.97462 2.20756,6.55426 2.11416,10.71981 -0.0519,2.3183 0.11086,4.02087 0.51251,5.35754 0.80696,2.68564 0.38209,3.80734 -2.33836,6.17352 -2.34297,2.03785 -3.09698,3.25546 -4.03616,6.51782 -1.40141,4.86806 -3.66471,7.69948 -7.94498,9.93928 -4.42822,2.31722 -7.15876,2.95417 -12.63691,2.94779 -4.52354,-0.005 -5.04249,-0.0798 -8.20321,-1.17764 -1.85579,-0.6446 -6.04094,-2.59053 -9.30034,-4.32428 -15.35338,-8.16684 -21.40144,-11.30676 -25.82164,-13.40564 -4.99835,-2.37339 -10.30163,-4.51656 -11.17629,-4.51656 -0.51274,0 -1.16428,2.84909 -2.00409,8.76379 -1.01946,7.18002 -0.03,24.19753 2.35613,40.52164 0.32444,2.21961 0.49515,4.13039 0.37934,4.24618 -0.34426,0.34427 -4.0194,1.13796 -9.543873,2.06115 -17.952308,2.99997 -29.011717,3.37921 -79.410733,2.72307 z m 1.007196,-2.31823 c 1.118314,-0.46024 4.60879,-1.83498 7.756598,-3.05496 3.147809,-1.21998 5.908646,-2.29409 6.135194,-2.38687 0.284046,-0.1164 0.491545,0.89374 0.668517,3.25423 l 0.256629,3.42295 h 2.511278 c 2.508778,0 2.513672,-0.001 4.933842,-1.95734 2.835127,-2.29068 3.883274,-3.64236 4.163509,-5.3692 0.256155,-1.57854 -0.170374,-2.10191 -2.791081,-3.42484 -1.947971,-0.98333 -2.079638,-1.13615 -2.640134,-3.0642 -0.7268,-2.50009 -2.172653,-4.06971 -3.748795,-4.06971 -1.384163,0 -2.810332,0.71866 -5.457212,2.74998 -3.656659,2.80626 -6.25207,3.61665 -19.23425,6.00576 -8.2859715,1.52487 -9.1550112,1.77878 -9.8812029,2.88708 -0.8612524,1.31445 0.116539,4.708 1.5513062,5.38372 0.8109866,0.38195 8.9124157,0.80474 11.6621937,0.6086 1.144177,-0.0817 2.995308,-0.52496 4.113608,-0.9852 z M 6.133823,268.01135 c -0.7677914,-0.41654 -0.9836859,-0.79377 -0.9836859,-1.71877 0,-1.44667 0.7451191,-2.16756 2.8083313,-2.71705 1.8490212,-0.49242 2.3747986,-0.26554 0.7207838,0.31106 -2.5333832,0.88314 -3.1994397,2.61953 -1.5134919,3.94569 1.0847584,0.85328 0.4226091,0.96817 -1.0319373,0.17907 z m 34.799781,-0.35121 c 0.02001,-0.52544 1.473785,-2.09754 2.75935,-2.98387 1.484492,-1.02347 1.516479,-2.12469 0.08936,-3.07789 -1.143406,-0.76372 -1.494267,-1.50274 -0.447133,-0.94178 0.931148,0.49881 2.593369,2.10831 2.593369,2.5111 0,1.07083 -0.785475,2.18904 -1.686448,2.40085 -0.54799,0.12884 -1.519494,0.72829 -2.15889,1.33214 -0.639396,0.60384 -1.156764,0.94559 -1.14968,0.75945 z m -22.712842,-3.37599 c -0.779053,-0.14985 -2.066795,-0.19148 -2.861653,-0.0925 -1.173514,0.14611 -1.363194,0.0929 -1.009048,-0.28349 0.271662,-0.28868 1.578629,-0.50504 3.46583,-0.57376 2.267128,-0.0825 3.327795,-0.29205 4.214045,-0.83239 0.710319,-0.43307 1.811193,-0.7226 2.750494,-0.72342 1.101415,-9.3e-4 2.162825,-0.34039 3.577056,-1.14398 2.304821,-1.30965 1.887782,-0.50865 -0.589482,1.13222 -1.173541,0.77731 -2.063144,1.08354 -3.1477,1.08354 -0.955065,0 -2.085168,0.32776 -3.068611,0.88997 -0.856209,0.48947 -1.637236,0.87338 -1.735605,0.85313 -0.09842,-0.0203 -0.816273,-0.15944 -1.595326,-0.3093 z m 15.920745,-6.64303 c -0.03231,-2.05854 3.305893,-4.26976 5.054775,-3.34831 1.076755,0.56733 1.362559,1.02414 1.32561,2.11884 l -0.03015,0.89426 -0.24799,-0.89105 c -0.600432,-2.15737 -4.253995,-1.44357 -5.476234,1.0699 l -0.608801,1.25199 z m -10.259725,-8.26683 c 1.01005,-0.72273 1.983717,-1.44143 2.163704,-1.59711 0.462573,-0.40009 -2.336403,-1.52219 -5.603413,-2.24639 -1.524727,-0.33799 -2.772221,-0.73818 -2.772221,-0.88932 0,-0.15114 1.260094,-0.5626 2.800206,-0.91436 l 2.80022,-0.63954 2.247024,1.65415 c 1.235854,0.90979 2.421752,1.65416 2.635308,1.65416 0.213555,0 1.809111,-0.92556 3.545663,-2.0568 2.517984,-1.64029 3.122567,-2.19796 2.985492,-2.75381 -0.544489,-2.20778 -1.688301,-9.56113 -1.514303,-9.73511 0.245286,-0.2453 2.671959,1.57083 4.8002,3.5925 1.50461,1.42926 1.52036,1.47004 1.531487,3.96301 0.0095,2.1876 0.115592,2.59262 0.804848,3.07953 1.122289,0.79286 6.939231,4.26838 7.143931,4.26838 0.09356,0 0.265336,-0.6841 0.381888,-1.52025 0.116539,-0.83613 0.782285,-2.83221 1.479436,-4.43571 1.372361,-3.15653 1.577007,-4.88963 0.721582,-6.11091 -0.300284,-0.42871 -2.594073,-1.93597 -5.097308,-3.34947 -6.143372,-3.46897 -7.534566,-4.68618 -9.354777,-8.18486 -1.665627,-3.20152 -3.229128,-4.65757 -5.001345,-4.65757 -1.627705,0 -2.379597,0.4674 -5.218875,3.24422 -2.98053,2.91495 -4.0598,3.41148 -8.888568,4.08933 -8.9345875,1.25418 -15.2694786,2.92331 -17.830239,4.69791 -1.592933,1.10391 -1.9704542,2.17257 -1.4184085,4.01516 0.6322575,2.11028 1.1555199,2.53988 3.9779521,3.26588 3.0583357,0.78668 4.3499169,1.6136 4.8117463,3.08067 0.1794727,0.57011 0.6317978,1.71102 1.005182,2.53532 0.882316,1.94788 2.6455148,2.80321 6.8957381,3.34514 3.500886,0.44639 5.722467,1.43681 6.753918,3.01099 0.327553,0.4999 0.771482,0.90892 0.986511,0.90892 0.215029,0 1.217372,-0.59133 2.227421,-1.31406 z m 4.876952,-6.52146 c -0.885318,-0.35637 -2.495001,-1.04504 -3.577056,-1.53039 l -1.967385,-0.88247 -4.38911,1.45133 c -3.385335,1.11942 -4.530607,1.36379 -5.007876,1.06852 -0.716768,-0.44341 -5.8055173,-6.25402 -5.8055173,-6.62902 0,-0.13836 0.4808921,-0.35718 1.068643,-0.48626 0.5877645,-0.12911 5.5375193,-1.67105 10.9994633,-3.42657 5.461944,-1.75552 10.030824,-3.19188 10.153069,-3.19191 0.122217,-4e-5 0.327079,1.81082 0.455205,4.02412 0.128165,2.21331 0.330554,5.43266 0.449864,7.15413 0.245164,3.53753 0.267931,3.51411 -2.3793,2.44852 z m 17.061055,-1.80682 c 1.280428,-0.78072 1.779436,-2.38134 1.389842,-4.45807 -0.16913,-0.9015 -0.567566,-1.42249 -1.515723,-1.98192 -1.586538,-0.93608 -1.352608,-1.36675 0.290901,-0.53552 2.745844,1.38873 3.426894,2.93195 2.276052,5.15744 -0.624971,1.20856 -2.189783,2.51832 -3.006461,2.51643 -0.339599,-7.8e-4 -0.106535,-0.28866 0.565389,-0.69836 z m -46.54000961,-6.12417 c -0.50932379,-0.6053 -0.92605179,-1.25976 -0.92605179,-1.45433 0,-0.70841 0.7538662,-1.73758 1.27280242,-1.73758 0.46931929,0 0.46857571,0.0971 -0.00676,0.82188 -0.48847656,0.74552 -0.47255048,0.94493 0.17130681,2.14624 0.864416,1.61283 0.71283428,1.67912 -0.5117573,0.22379 z M 38.584087,231.70431 c -0.402951,-0.8936 -1.262879,-1.87851 -2.207696,-2.52856 -1.706903,-1.17438 -2.764622,-2.53964 -2.515618,-3.24708 0.09383,-0.26678 0.491653,0.0938 0.950995,0.86208 0.480622,0.8039 1.393411,1.61298 2.332726,2.0677 1.311779,0.63501 1.61067,0.98824 1.993626,2.35606 0.585047,2.08959 0.286427,2.35359 -0.554033,0.4898 z M 7.6540747,230.85075 c 0,-0.09 0.6982601,-0.57297 1.5516847,-1.07312 1.2592016,-0.73794 2.0203146,-0.90934 4.0379796,-0.90934 1.86442,0 2.840751,-0.19207 3.903337,-0.7679 1.39986,-0.75858 5.888366,-1.47461 5.888366,-0.93933 0,0.15202 -0.708373,0.2764 -1.574168,0.2764 -0.926714,0 -2.361143,0.36637 -3.487623,0.89078 -1.331802,0.61998 -2.535628,0.89183 -3.960093,0.89427 -1.399292,0.003 -2.686168,0.28633 -4.0686958,0.89775 -2.1289174,0.94151 -2.2907875,0.99312 -2.2907875,0.73049 z m 25.9918583,-7.22153 c -0.39173,-1.58832 -1.390734,-2.3572 -3.121716,-2.40258 -1.238476,-0.0325 -1.642739,0.14825 -2.514861,1.12433 -1.206354,1.35015 -1.342334,1.11681 -0.323227,-0.55467 0.988391,-1.62111 2.019531,-2.02854 3.871675,-1.52981 1.679499,0.45224 2.695213,1.89288 2.487579,3.52823 -0.121812,0.9595 -0.121947,0.95942 -0.39945,-0.1655 z m 127.638687,8.44072 c 5.07623,-0.73356 10.4983,-4.30231 12.58035,-8.28023 1.23324,-2.35624 0.98801,-0.79722 -0.4076,2.59129 -0.68499,1.66312 -1.24838,3.28831 -1.25197,3.61157 -0.0185,1.66645 3.02205,0.58467 5.06497,-1.80203 0.66749,-0.77981 2.08005,-2.99867 3.13904,-4.9308 1.52088,-2.77484 2.55165,-4.11512 4.90582,-6.37887 2.81254,-2.70451 2.98039,-2.951 2.98039,-4.37664 v -1.51072 l -1.11381,0.67734 c -0.97008,0.58994 -1.27805,0.62048 -2.38668,0.23666 -1.0362,-0.35874 -1.54413,-0.34717 -2.73154,0.0622 -1.12371,0.38746 -1.75552,0.41409 -2.75149,0.116 -0.71107,-0.21283 -2.01999,-0.28729 -2.90872,-0.16548 -1.08595,0.14884 -2.20952,0.0243 -3.426,-0.37975 -1.69706,-0.56367 -1.8677,-0.56349 -2.73216,0.003 -1.00687,0.65973 -1.92302,0.61333 -6.63131,-0.33585 -1.47554,-0.29747 -3.32667,-0.64495 -4.11362,-0.7722 -1.05727,-0.17096 -1.82616,-0.6433 -2.94506,-1.80925 -1.14659,-1.19481 -1.7812,-1.57791 -2.61382,-1.57791 -2.30943,0 -4.26748,-0.76852 -5.45139,-2.13964 -0.63346,-0.73363 -1.76245,-1.53296 -2.5089,-1.77628 -0.74643,-0.24334 -2.0944,-1.00519 -2.99548,-1.693 -0.90108,-0.68781 -2.24391,-1.46422 -2.98407,-1.72537 -2.38885,-0.84284 -3.48477,-1.56447 -3.70431,-2.43926 -0.15097,-0.6015 -0.69389,-1.03884 -1.82666,-1.47146 -0.94144,-0.35954 -2.12252,-1.21216 -2.83966,-2.04999 -0.89551,-1.0462 -1.64685,-1.52756 -2.77602,-1.77854 -1.09066,-0.24242 -2.07673,-0.85257 -3.33671,-2.06466 -0.98369,-0.9463 -2.55495,-2.23487 -3.4917,-2.86348 -0.93674,-0.6286 -2.05111,-1.61355 -2.47637,-2.18874 -0.42526,-0.57519 -1.28011,-1.21311 -1.89968,-1.41758 -0.61956,-0.20447 -1.66798,-0.93045 -2.3298,-1.61328 -0.71624,-0.73898 -1.70915,-1.33641 -2.45298,-1.47595 -0.6914,-0.12965 -1.90012,-0.82134 -2.70567,-1.5482 -0.80079,-0.72256 -2.22335,-1.59892 -3.16124,-1.94745 -1.04902,-0.38983 -2.06337,-1.10322 -2.63583,-1.85373 -0.51181,-0.67103 -1.15096,-1.22004 -1.42032,-1.22004 -0.26938,0 -1.09536,-0.64361 -1.83551,-1.43023 -0.74015,-0.78664 -1.625254,-1.43051 -1.966908,-1.43084 -0.34164,-3.2e-4 -1.629382,-0.85249 -2.861639,-1.89373 -1.232271,-1.04122 -3.206294,-2.48087 -4.386717,-3.19922 -1.180437,-0.71835 -3.51446,-2.69731 -5.186739,-4.3977 -1.67228,-1.70038 -4.224036,-4.0673 -5.670566,-5.25982 l -2.630075,-2.16822 -1.841247,0.42074 c -1.012699,0.2314 -3.169251,0.82379 -4.792333,1.31643 -2.877578,0.87338 -2.952193,0.92436 -2.995848,2.04675 -0.0726,1.8671 -0.62205,-1.68154 -0.597133,-3.85685 l 0.02041,-1.78853 0.363907,1.96739 c 0.200145,1.08206 0.384592,1.9986 0.409901,2.03675 0.06638,0.10018 8.180181,-2.38054 8.353705,-2.55407 0.342127,-0.34213 -3.075019,-2.4093 -4.82244,-2.91728 l -1.906439,-0.55423 -1.156886,0.97606 -1.156872,0.97607 -0.107751,-1.83138 c -0.104641,-1.78007 -0.174835,-1.88712 -2.503937,-3.82101 -1.317931,-1.09429 -3.31149,-2.6319 -4.430115,-3.41689 l -2.033875,-1.42726 -0.274853,1.70588 c -0.436427,2.70868 -0.286859,5.88194 0.347264,7.36827 0.556061,1.30332 0.541703,1.57191 -0.295146,5.52295 -0.483799,2.28415 -0.843123,4.17965 -0.798508,4.21222 0.04461,0.0326 1.66045,0.80132 3.590751,1.70833 l 3.509646,1.64912 1.472136,-2.30912 c 0.809675,-1.27001 1.547683,-2.23357 1.640008,-2.14124 0.09234,0.0923 -0.230874,0.77478 -0.718242,1.51654 -2.349679,3.57621 -2.279066,3.08939 -0.608504,4.19492 5.499462,3.63938 8.970902,9.51463 8.85535,14.98731 l -0.04637,2.19797 -0.303934,-2.61621 c -0.441226,-3.798 -1.972442,-6.76284 -5.116465,-9.90687 -1.402523,-1.40252 -3.73149,-3.25193 -5.175477,-4.10979 -3.198412,-1.90014 -9.254259,-4.01762 -13.863671,-4.84758 l -3.420647,-0.61589 -5.597898,-4.66667 c -9.627778,-8.02617 -12.297668,-10.32431 -15.550091,-13.38498 -3.618886,-3.40552 -5.963116,-4.73743 -8.960167,-5.09081 -1.973186,-0.23266 -2.213808,-0.17681 -3.725218,0.86477 -0.88867,0.61241 -1.631666,1.20166 -1.651107,1.30944 -0.01947,0.10775 1.998372,3.32221 4.484004,7.14319 6.049114,9.29883 6.559682,10.5849 7.64613,19.25979 0.804132,6.42074 2.313352,10.56202 5.746153,15.76736 4.450408,6.74838 11.764605,12.92038 16.32536,13.776 l 1.294744,0.24289 0.254574,-2.03754 c 0.140023,-1.12065 0.148229,-3.07554 0.01825,-4.34421 -0.231334,-2.25806 -0.20059,-2.37314 1.4589,-5.46012 l 1.695222,-3.15346 -1.549278,-1.85044 c -1.535367,-1.83384 -1.54717,-1.86907 -1.314389,-3.92658 l 0.234889,-2.07615 -1.413122,-0.97929 -1.413109,-0.97929 0.655552,-1.90539 0.655552,-1.90539 -2.061631,-1.60101 c -1.133902,-0.88054 -5.506423,-5.51795 -9.71671,-10.30535 -6.926171,-7.87555 -8.011186,-8.95215 -11.395127,-11.30683 -3.74743,-2.60761 -6.053927,-4.53987 -3.771765,-3.15978 0.590211,0.35692 2.799246,1.92832 4.908938,3.49199 3.26935,2.42319 4.755032,3.90832 10.060054,10.0563 5.965184,6.91307 9.799667,10.88693 11.647322,12.07065 0.860685,0.55141 0.860942,0.55353 0.268283,2.29288 -0.326268,0.95753 -0.593199,1.86014 -0.593199,2.00578 0,0.14563 0.583019,0.62513 1.29561,1.06554 l 1.29561,0.80073 -0.225155,2.19778 -0.225169,2.19776 1.603802,1.8789 1.603803,1.87891 -1.650675,3.0529 -1.650675,3.0529 -0.03988,4.66153 c -0.04651,5.43564 -0.724813,4.69083 5.784265,6.3513 5.589704,1.42596 9.712627,2.06412 15.101647,2.33756 8.385516,0.42544 12.741246,1.37449 20.03154,4.36458 l 4.829025,1.9806 2.496218,-0.41304 c 1.372915,-0.22719 3.043126,-0.73574 3.711567,-1.13013 1.41765,-0.83643 1.80175,-0.72975 0.76165,0.21154 -0.3991,0.36118 -1.950704,0.91776 -3.448013,1.23685 l -2.722373,0.58016 2.28327,1.11761 c 1.695763,0.83005 3.310776,1.2591 6.276516,1.66749 2.1963,0.30242 4.91364,0.86059 6.03855,1.24036 l 2.04532,0.6905 2.54639,-1.07065 c 1.94092,-0.81605 3.18428,-1.09002 5.22919,-1.15219 1.47552,-0.0449 3.16569,-0.19281 3.7559,-0.32876 1.0135,-0.23345 1.02344,-0.22556 0.17885,0.14234 -0.49184,0.21424 -2.34297,0.51982 -4.11362,0.67907 -2.85089,0.25641 -7.02916,1.51712 -6.56533,1.98096 0.0844,0.0844 2.96437,1.58108 6.39991,3.32593 3.43554,1.74485 10.17845,5.3191 14.98427,7.94275 16.41807,8.96321 20.22648,10.27207 27.02857,9.2891 z m 1.45829,-5.53178 c 0.72772,-0.88809 1.70467,-1.71047 2.171,-1.82751 0.46632,-0.11708 1.34981,-0.84656 1.96329,-1.62113 0.61348,-0.7746 1.19067,-1.33309 1.28265,-1.24112 0.34847,0.34847 -1.55883,2.46859 -2.78642,3.09734 -0.70453,0.36084 -1.71877,1.23007 -2.25386,1.93162 -0.5351,0.70153 -1.13645,1.27552 -1.33635,1.27552 -0.1999,0 0.23197,-0.72663 0.95969,-1.61472 z m -16.47774,-1.10437 c -2.99009,-1.47144 -3.37221,-1.57124 -5.36559,-1.40136 -1.46798,0.12505 -1.92016,0.0783 -1.43083,-0.14829 1.71892,-0.79568 3.93388,-0.42494 7.09358,1.18734 l 3.07447,1.56878 2.39221,-0.50144 c 2.5698,-0.53867 3.61744,-0.4069 1.33695,0.16817 -3.31882,0.8369 -3.72787,0.78661 -7.10079,-0.8732 z m 26.30395,-4.86106 c 0.007,-0.25753 0.22936,-1.4788 0.49431,-2.71393 0.45687,-2.12972 0.44541,-2.26513 -0.22206,-2.62234 -1.0282,-0.55029 -0.54348,-0.77894 0.57292,-0.27026 0.72684,0.33116 1.04883,0.33431 1.36974,0.0135 0.23075,-0.23075 0.58856,-0.41376 0.79514,-0.40669 0.20658,0.007 -0.0431,0.36925 -0.55498,0.80484 -0.67056,0.5707 -1.05962,1.41956 -1.39249,3.03811 -0.41117,1.99931 -1.09564,3.38867 -1.06258,2.15688 z m 6.81931,-0.85852 c -0.0195,-0.4114 0.20425,-1.53816 0.49722,-2.50395 0.67521,-2.22573 0.67697,-2.20096 -0.17497,-2.47135 -0.39347,-0.12492 -0.71542,-0.38285 -0.71542,-0.57326 0,-0.20527 0.3061,-0.18237 0.75199,0.0562 0.41358,0.22134 1.06666,0.32016 1.45126,0.21957 0.5562,-0.14544 0.61694,-0.0837 0.29687,0.30202 -0.22133,0.26668 -0.77796,1.66249 -1.23695,3.10178 -0.45899,1.4393 -0.85049,2.28031 -0.87,1.86893 z m -19.96627,-3.42596 c 0.18493,-2.03952 0.13317,-2.25923 -0.68458,-2.90242 -1.229,-0.96674 -0.77054,-1.22101 0.53078,-0.29439 0.66403,0.47282 1.30771,0.66555 1.71971,0.51493 0.6329,-0.23141 0.63374,-0.21254 0.0215,0.48626 -0.35036,0.39986 -0.73496,1.55393 -0.85467,2.5646 -0.31629,2.67057 -0.97806,2.33729 -0.73266,-0.36898 z m 7.96841,0.9698 c 0.20241,-1.07898 0.0971,-1.47225 -0.60318,-2.25273 l -0.84839,-0.94554 0.98733,0.61848 c 0.76016,0.47616 1.15193,0.53039 1.70266,0.23564 0.71421,-0.38224 0.71421,-0.38102 -0.003,0.79421 -0.39469,0.64736 -0.71823,1.44922 -0.71896,1.7819 -7.4e-4,0.33269 -0.17258,0.71071 -0.38186,0.84005 -0.25823,0.15959 -0.30171,-0.18493 -0.13529,-1.07201 z m 16.25487,-0.73266 c 0,-0.71688 1.2923,-3.02084 1.6991,-3.02923 0.61578,-0.0122 0.577,0.12533 -0.46762,1.66467 -1.08438,1.59792 -1.23148,1.76092 -1.23148,1.36456 z m -32.43465,-3.88318 c 0.18469,-1.34745 0.0938,-1.6729 -0.66679,-2.38744 -1.61985,-1.52177 -0.85678,-1.67929 1.01461,-0.20945 0.53451,0.41983 0.60231,0.81391 0.40104,2.33113 -0.13317,1.00424 -0.40431,1.82589 -0.60246,1.82589 -0.21947,0 -0.27668,-0.60962 -0.1464,-1.56013 z m -6.913,-3.87786 c 0,-1.60987 -0.15684,-2.02611 -1.16255,-3.08536 -0.80211,-0.84481 -0.93161,-1.10568 -0.41772,-0.8414 0.40966,0.21067 0.95251,0.63328 1.20634,0.93914 0.25384,0.30584 0.70048,0.55608 0.99256,0.55608 0.33726,0 0.45179,0.20645 0.31389,0.56581 -0.11937,0.31121 -0.21712,1.27701 -0.21712,2.14624 0,0.86923 -0.16097,1.58043 -0.3577,1.58043 -0.19674,0 -0.3577,-0.83742 -0.3577,-1.86094 z m -6.91566,-1.95459 c -0.13114,-0.13114 -0.23848,-1.27494 -0.23848,-2.54174 0,-1.94486 -0.14144,-2.47134 -0.90896,-3.38351 -0.49994,-0.59413 -0.80617,-1.18075 -0.68052,-1.3036 0.12559,-0.12289 0.69565,0.33393 1.26668,1.01509 0.93755,1.11838 1.03822,1.49121 1.03822,3.84534 0,2.61917 -0.0379,2.80744 -0.47694,2.36842 z m -55.211592,-8.7068 c -1.019567,-0.14908 -3.624293,-0.93737 -5.788267,-1.75173 l -3.9345,-1.48067 -1.890242,0.71823 c -1.820833,0.69187 -2.028602,0.69791 -5.658317,0.16476 -4.28701,-0.62967 -5.480831,-0.88349 -5.248456,-1.11586 0.08937,-0.0895 1.958733,0.1237 4.153991,0.47378 3.82825,0.61038 4.092625,0.61031 6.468343,-0.001 l 2.476952,-0.63808 3.848597,1.52899 c 3.058363,1.21503 4.417839,1.55916 6.620831,1.67595 1.524726,0.0808 2.77222,0.29089 2.77222,0.46681 0,0.36373 -1.13931,0.35166 -3.821152,-0.0406 z m 45.719752,-1.43805 c -0.0258,-0.89073 -0.30486,-1.98767 -0.62004,-2.43764 -0.75407,-1.07659 -0.52829,-1.23588 0.53266,-0.37576 0.80135,0.64966 0.83175,0.80731 0.49413,2.56258 l -0.35976,1.87033 z m -25.60421,-9.57101 0.26186,-9.75969 -0.82865,-0.88206 c -0.45576,-0.48514 -0.66769,-0.88206 -0.47094,-0.88206 0.19674,0 0.718,0.38353 1.15838,0.85228 l 0.80067,0.85229 -0.35691,9.55711 c -0.1963,5.2564 -0.46253,9.66167 -0.5916,9.78947 -0.12911,0.12776 -0.11681,-4.15951 0.0272,-9.52734 z m 18.7608,6.78968 c 0,-2.18182 -0.12019,-2.59743 -1.16255,-4.01873 l -1.16253,-1.58524 1.3414,1.02067 1.34138,1.02067 v 2.99805 c 0,1.64892 -0.0804,2.99804 -0.17885,2.99804 -0.0984,0 -0.17885,-1.09506 -0.17885,-2.43346 z m -6.57928,0.79453 c -0.11938,-0.31119 -0.21713,-2.43522 -0.21713,-4.72003 0,-4.02092 -0.0308,-4.18641 -0.96119,-5.15748 -1.06137,-1.10783 -0.74437,-1.33892 0.50662,-0.36933 0.7352,0.56981 0.81625,1.01575 1.03878,5.71534 0.22739,4.80192 0.14185,5.85779 -0.36708,4.5315 z m -76.06765,-9.26513 c -1.072793,-1.06452 -2.895857,-2.46715 -4.051255,-3.11697 -1.831527,-1.03008 -2.282676,-1.51377 -3.5208,-3.77485 -0.781041,-1.42634 -1.334087,-2.59335 -1.228972,-2.59335 0.105182,0 0.941599,0.9753 1.85885,2.16734 1.103199,1.43368 2.218065,2.43265 3.293482,2.95108 1.076214,0.5188 2.351598,1.66209 3.77313,3.38234 1.181072,1.42922 2.075109,2.67089 1.986745,2.75925 -0.08828,0.0884 -1.038386,-0.71032 -2.11118,-1.77484 z m 68.87286,-0.81081 c 0.12113,-0.9345 0.29019,-2.04186 0.37561,-2.4608 0.0891,-0.43696 -0.17437,-1.18084 -0.61802,-1.74484 -0.73521,-0.93466 -0.73797,-0.9642 -0.056,-0.59922 1.41528,0.75743 1.53455,1.17878 1.11005,3.92135 -0.43818,2.83089 -1.167,3.62423 -0.81165,0.88351 z M 94.25599,181.4598 c -0.955538,-1.0883 -1.110175,-1.53999 -1.110175,-3.24287 0,-2.78312 -0.426679,-3.4378 -2.158999,-3.31272 -1.500864,0.10843 -2.556299,-0.61019 -4.013319,-2.73232 -0.540568,-0.78733 -0.26927,-0.6258 1.018661,0.60649 1.54698,1.48015 1.967845,1.69254 3.543973,1.78853 l 1.788534,0.10897 0.178851,2.7449 c 0.138049,2.11852 0.350374,2.93478 0.930486,3.57705 0.836215,0.92584 1.344038,1.72644 1.095074,1.72644 -0.08964,0 -0.662487,-0.56898 -1.273086,-1.26442 z m -54.978902,-1.54329 c -2.38948,-1.55759 -5.60732,-4.81311 -7.124638,-7.20806 -1.701563,-2.68579 -2.308836,-4.82006 -2.861477,-10.0567 -0.610639,-5.78622 -1.681337,-9.41503 -3.761084,-12.74706 -1.744353,-2.79469 -1.378107,-2.89918 0.59036,-0.16842 2.831707,3.9283 3.600985,6.08852 4.765915,13.38326 0.818152,5.12316 1.91374,8.37131 3.763653,11.15833 1.222104,1.84118 3.910719,4.56794 6.10422,6.19082 1.730035,1.27999 0.800793,0.93258 -1.476949,-0.55217 z m 3.95528,36.16378 c 0.173511,-0.94986 0.670721,-1.71181 1.703496,-2.61045 1.314457,-1.14378 1.474772,-1.46581 1.623691,-3.26157 l 0.165236,-1.9925 -1.638697,-1.25123 c -0.901284,-0.68818 -3.440318,-2.35936 -5.642295,-3.71371 -5.631129,-3.46349 -7.738591,-5.50178 -9.784822,-9.46366 -0.916426,-1.77437 -2.154429,-3.78216 -2.751117,-4.46175 -0.982361,-1.11884 -1.265109,-1.23561 -2.991927,-1.23561 -2.582405,0 -3.201535,0.29086 -5.981259,2.80996 -3.767898,3.41461 -3.041991,3.18633 -15.4599164,4.86191 -10.4114958,1.40485 -10.5606575,1.47294 -10.5584132,4.82076 0.00135,2.93152 0.844407,4.11412 3.4660461,4.86558 4.78338216,1.37111 5.22029498,1.63028 6.2824351,3.72659 1.7377819,3.42982 2.4483043,3.85999 7.7777836,4.70888 1.4755428,0.23503 3.2800168,0.72486 4.0099398,1.08851 1.584321,0.78929 2.077097,0.81834 2.957804,0.17433 0.627417,-0.45877 0.566701,-0.59274 -1.053691,-2.32508 -1.427061,-1.52565 -1.939278,-1.84432 -3.011923,-1.87391 -0.710846,-0.0196 -1.69487,-0.15897 -2.186713,-0.30967 -0.8505452,-0.2606 -0.810446,-0.31248 0.819774,-1.06082 0.942735,-0.43273 1.927705,-0.73604 2.188836,-0.67402 0.261131,0.0621 1.262785,1.14299 2.22588,2.40214 2.228233,2.91316 2.598765,3.14736 4.037047,2.55161 0.620887,-0.25719 1.082582,-0.5663 1.025989,-0.68691 -0.05665,-0.12059 -1.6321,-1.69717 -3.501116,-3.50344 l -3.398205,-3.28412 -3.134492,1.46123 c -1.723965,0.80368 -3.1882184,1.39621 -3.2538831,1.31675 -0.065705,-0.0795 -1.128305,-1.42569 -2.361414,-2.99161 -1.9704137,-2.50218 -2.1612428,-2.87686 -1.5751547,-3.09266 0.5731768,-0.21107 18.0922768,-2.84663 18.8115188,-2.83 0.142632,0.003 0.190613,0.44865 0.10667,0.98969 -0.08396,0.54102 -0.241406,3.35588 -0.34982,6.25523 l -0.197115,5.27155 1.163604,-0.70687 1.163605,-0.70688 0.178864,-5.91237 0.178851,-5.91237 3.775334,2.77852 c 6.530101,4.80592 6.302295,4.54808 6.588356,7.45725 l 0.249018,2.53251 3.80263,2.56481 c 2.091441,1.41064 3.911071,2.56481 4.043617,2.56481 0.132492,0 0.351252,-0.60363 0.486002,-1.34141 z m -2.659223,-1.16253 c -0.03272,-0.0984 -0.123164,-0.66176 -0.20124,-1.25197 -0.122217,-0.92425 0.141794,-1.33685 1.9026,-2.97411 l 2.044433,-1.90098 -1.003627,-0.87124 c -1.220441,-1.05944 -0.721811,-1.16777 0.597688,-0.12992 1.578994,1.24204 1.006966,3.35082 -1.151464,4.24487 -0.669045,0.27712 -1.244993,0.91078 -1.589161,1.74839 -0.296904,0.72257 -0.566553,1.23327 -0.599229,1.1349 z m -5.710286,-11.41338 c -1.094777,-1.16216 -2.507399,-2.37032 -3.139142,-2.68479 -1.09671,-0.54592 -3.270256,-3.60109 -2.85638,-4.01497 0.10748,-0.10748 0.621658,0.44843 1.142487,1.23548 0.520842,0.78704 1.400346,1.61876 1.95446,1.84829 1.272519,0.52709 5.953544,5.72901 5.155347,5.72901 -0.146444,0 -1.161996,-0.95086 -2.256772,-2.11302 z m -40.5782462,-0.76097 c -1.6147131,-1.91898 -1.0249072,-3.38903 1.9228787,-4.79254 l 1.2519688,-0.5961 -0.8942673,0.73298 c -0.4918429,0.40314 -1.0935461,0.89855 -1.3371152,1.10092 -0.8141771,0.67644 -0.9450468,2.16727 -0.2879268,3.2797 0.861685,1.45871 0.4764576,1.62035 -0.6555382,0.27504 z M 5.78472,197.24236 c 0.3210093,-0.17966 1.7984985,-0.40149 3.2833152,-0.49297 1.4848168,-0.0915 3.1343298,-0.38713 3.6655958,-0.65704 0.554952,-0.28193 1.924677,-0.47072 3.219354,-0.44372 l 2.253419,0.0471 -1.967385,0.32847 c -1.082055,0.18067 -2.611256,0.63484 -3.398205,1.00926 -1.116246,0.53111 -2.11337,0.66483 -4.535284,0.60822 -2.0930094,-0.0489 -2.9142979,-0.17898 -2.52081,-0.39922 z m 14.703346,-5.90796 c 1.4405,-1.33915 2.168233,-1.63748 3.620494,-1.48419 1.098589,0.116 2.084046,0.85454 2.241901,1.68028 0.20036,1.04811 0.226575,1.0489 -1.381676,-0.0424 -1.627516,-1.10446 -2.220972,-1.11614 -3.761382,-0.074 -2.12551,1.43798 -2.327696,1.41559 -0.719337,-0.0796 z m 155.931714,18.86164 c 0.83985,-0.83985 0.29298,-8.82866 -0.64399,-9.40775 -0.16497,-0.10194 -0.49479,0.41974 -0.73297,1.15933 -0.64223,1.99435 -2.43493,5.53024 -3.23991,6.39039 l -0.70492,0.75323 1.71298,0.75536 c 1.95922,0.86394 2.9941,0.96415 3.60881,0.34944 z m 5.79324,-0.10545 c 0.59942,-0.72225 0.168,-5.26064 -0.68068,-7.16051 l -0.63715,-1.42636 -0.42169,1.96739 c -0.23193,1.08206 -0.93786,2.98131 -1.56874,4.22054 -0.97325,1.91178 -1.06684,2.30389 -0.61769,2.5879 0.84447,0.534 3.4292,0.40959 3.92595,-0.18896 z m -12.75063,-2.68471 c -0.0558,-2.79311 -1.22674,-6.957 -2.49448,-8.87094 l -0.63985,-0.96598 -0.55392,3.39821 c -0.40283,2.47122 -0.8727,3.96153 -1.72252,5.46328 -1.05766,1.86907 -1.10843,2.08666 -0.53486,2.29255 0.34853,0.12505 1.35806,0.51887 2.24339,0.87499 0.88531,0.35613 2.09257,0.61222 2.68278,0.56909 l 1.07312,-0.0784 z m -7.69804,0.72503 c 0.16054,-1.6849 -0.90091,-7.3754 -1.70324,-9.13113 -0.7221,-1.58014 -0.7029,-1.60328 -1.63132,1.96739 -0.3325,1.27879 -0.98343,3.01367 -1.44649,3.85526 l -0.84194,1.53016 1.08981,1.24125 c 1.03725,1.18136 2.71558,1.97648 3.87879,1.83761 0.33405,-0.0399 0.58103,-0.53074 0.65439,-1.30054 z m 25.50379,0.83003 c 0.68299,-0.82244 0.67397,-8.66046 -0.0122,-10.85542 l -0.50343,-1.60967 -0.79014,3.93611 c -0.43459,2.16486 -1.16324,4.8034 -1.61924,5.86342 l -0.82911,1.92728 0.8209,0.66474 c 1.01666,0.82323 2.28453,0.85503 2.93351,0.0735 z m -32.3709,-6.15636 c -0.27343,-3.27875 -1.23102,-7.14723 -2.26382,-9.14544 l -0.72666,-1.40588 -0.25433,2.479 c -0.13988,1.36345 -0.74256,3.91711 -1.3393,5.67481 -1.04784,3.08647 -1.06222,3.21321 -0.42023,3.70423 1.14785,0.87791 2.76536,1.47752 4.02494,1.49205 l 1.21398,0.0139 z m -6.80197,-3.35766 c -0.24902,-2.7369 -0.94774,-5.79622 -1.5818,-6.92592 -0.4171,-0.74314 -0.36025,-0.83268 -1.16109,1.82861 -0.23681,0.78695 -0.84565,2.2904 -1.35296,3.34099 l -0.92239,1.91016 0.87866,0.68387 c 0.67992,0.52919 3.13858,1.53357 4.23677,1.73074 0.0764,0.0137 0.0326,-1.14211 -0.0972,-2.56845 z m -5.94372,-2.91961 c 0,-2.74337 -0.78292,-7.07547 -1.6281,-9.00864 l -0.61045,-1.3963 -0.65652,3.21403 c -0.36108,1.76771 -0.98268,3.99884 -1.38131,4.95806 -0.75941,1.82735 -0.699,2.21603 0.48113,3.09564 0.63371,0.47235 2.78159,1.32696 3.52697,1.40333 0.14755,0.0152 0.26828,-1.00462 0.26828,-2.26612 z m -5.89686,-5.31246 c -0.32677,-1.62043 -0.91636,-3.6706 -1.31023,-4.55593 l -0.71611,-1.60967 -0.80359,2.50394 c -0.44197,1.37717 -0.99494,2.85864 -1.22882,3.29214 -0.36986,0.68555 -0.28403,0.94902 0.65895,2.02303 1.04365,1.18866 3.6051,2.2379 3.87305,1.58653 0.0665,-0.16159 -0.1465,-1.61961 -0.47325,-3.24004 z m -5.54974,-1.44022 c 0,-2.21276 -2.39858,-8.83895 -3.19957,-8.83895 -0.20762,0 -0.38165,0.52314 -0.38672,1.16255 -0.005,0.6394 -0.37907,2.24773 -0.83108,3.57407 l -0.82183,2.41153 0.74164,0.67491 c 1.06475,0.96894 2.75856,1.80406 3.69272,1.82069 0.6045,0.0108 0.80484,-0.18957 0.80484,-0.8048 z m -6.14596,-5.70901 c -0.20759,-3.76084 -2.79669,-9.29294 -2.79669,-5.97568 0,0.59897 -0.26859,2.15827 -0.59686,3.46513 l -0.59685,2.37608 1.58055,1.36295 c 2.3188,1.99957 2.58066,1.86607 2.40985,-1.22848 z m -111.565675,1.31608 1.892027,-0.56188 -0.843406,-0.91726 c -0.463885,-0.50449 -1.68849,-1.29591 -2.721374,-1.7587 -1.03287,-0.4628 -1.8779528,-0.99688 -1.8779528,-1.18686 0,-0.35814 2.2126038,-1.08895 3.3075698,-1.09243 0.377196,-10e-4 1.156371,0.84844 1.966357,2.14423 0.737886,1.18044 1.503028,2.14433 1.70032,2.14199 0.453825,-0.005 4.14888,-0.98387 4.305032,-1.14004 0.06408,-0.064 0.310112,-2.52895 0.546881,-5.47763 0.236769,-2.94867 0.536403,-5.48041 0.665867,-5.62605 0.129518,-0.14565 0.752041,-0.11668 1.383501,0.0645 0.631473,0.1811 1.146218,0.30027 1.14388,0.26483 -0.0027,-0.0354 -0.24188,-0.94978 -0.532321,-2.03185 -0.290428,-1.08205 -0.529968,-2.80198 -0.532307,-3.82204 -0.0068,-2.70875 -0.445876,-3.58056 -2.02575,-4.01679 -1.181923,-0.32634 -1.532378,-0.25803 -2.968105,0.57852 -0.895376,0.5217 -2.51328,1.41982 -3.595335,1.99581 l -1.967385,1.04726 -5.3655901,-0.29255 c -8.843601,-0.48219 -11.2181425,-0.38846 -12.9548834,0.51134 -1.8737351,0.97078 -2.3781107,1.87766 -2.1533474,3.87178 0.2254258,1.99999 0.618819,2.44009 3.4621931,3.87329 2.9979571,1.51112 3.54137729,2.14272 4.34874058,5.0543 1.14085122,4.11426 2.10748882,4.90949 6.51686492,5.36125 1.8145192,0.18589 3.7423463,0.86813 4.3819983,1.55075 0.01352,0.0143 0.875908,-0.2267 1.916525,-0.53573 z m 3.913126,-3.64118 c -0.662393,-0.73777 -1.633262,-1.89329 -2.157498,-2.56781 l -0.953145,-1.22643 -3.177565,0.7793 c -1.7476515,0.4286 -3.4433469,0.77928 -3.7681958,0.77928 -0.5913607,0 -2.9099581,-3.02303 -4.6938013,-6.11987 l -0.949603,-1.64857 9.3941601,0.17315 c 5.16677,0.0952 9.465016,0.23727 9.551649,0.31563 0.162465,0.14695 -0.957877,9.1158 -1.277967,10.23073 -0.262307,0.91366 -0.623186,0.78248 -1.968034,-0.71541 z M -5.2107548,170.94343 c -0.5682827,-1.06186 -0.4519331,-1.66013 0.5557772,-2.85772 0.8613335,-1.02364 1.0801076,-1.09703 3.1299219,-1.0502 l 2.20387003,0.0504 -1.92095903,0.2319 c -2.3384982,0.2823 -3.7839864,1.63099 -3.538768,3.30178 0.175241,1.19404 0.07598,1.26888 -0.4298421,0.32386 z m 10.7185934,-2.10266 c 0,-0.48042 3.2157444,-1.09009 4.2508588,-0.80592 0.5147316,0.14131 1.3383046,0.13996 1.8301476,-0.003 0.491843,-0.14297 1.779585,-0.25732 2.861653,-0.25412 1.082054,0.003 1.645443,0.0712 1.251969,0.15108 -0.393475,0.0799 -1.651298,0.41176 -2.795137,0.7375 -1.704104,0.48528 -2.293383,0.51499 -3.2626569,0.16449 -0.6506171,-0.23525 -1.4049024,-0.3578 -1.6761867,-0.2723 -1.3581381,0.42802 -2.4606478,0.5545 -2.4606478,0.28229 z M 18.371749,165.927 c 1.7173,-1.50879 3.397515,-1.35473 4.335275,0.39749 0.390798,0.73019 0.377386,0.73553 -0.429098,0.17065 -1.04562,-0.73239 -2.52104,-0.74403 -3.999854,-0.0316 l -1.144786,0.55152 z m 101.445941,15.1919 c 0.12871,-0.68617 0.0676,-2.17513 -0.1358,-3.30877 -0.61511,-3.42802 -2.21206,-6.45917 -2.21206,-4.1987 0,0.51987 -0.33088,2.24111 -0.73528,3.82499 -0.4044,1.58389 -0.64832,3.10638 -0.54204,3.38335 0.19186,0.49999 2.13461,1.50592 2.96021,1.53274 0.23701,0.008 0.53624,-0.54742 0.66497,-1.23361 z m -4.95919,-4.84786 c -0.24609,-2.93548 -1.84335,-6.95318 -2.40878,-6.05901 -0.18399,0.29097 -0.33699,0.97105 -0.34001,1.5113 -0.003,0.54025 -0.34206,1.95483 -0.75342,3.14351 -0.84896,2.45315 -0.66332,2.98222 1.24006,3.53407 2.44666,0.70936 2.49627,0.66265 2.26215,-2.12987 z m -5.40927,-1.18095 c 0.21252,-0.5538 -0.71957,-5.30269 -1.2143,-6.18673 -0.2713,-0.4848 -0.4135,-0.33749 -0.77292,0.80066 -0.24225,0.76712 -0.82246,1.98952 -1.28936,2.71645 l -0.84891,1.32171 1.15459,0.90999 c 1.25629,0.99016 2.67854,1.19981 2.9709,0.43792 z m -4.91164,-3.3035 c 0.1489,-1.25522 -0.55417,-4.62996 -1.22388,-5.87456 -0.42563,-0.791 -0.48325,-0.81166 -0.499,-0.17885 -0.009,0.39347 -0.41733,1.57359 -0.90561,2.62245 -0.98531,2.11653 -0.87579,2.67915 0.77415,3.97702 1.19542,0.9403 1.69547,0.79305 1.85434,-0.54606 z m -4.953067,-3.12607 c 0,-1.45938 -0.641519,-5.01839 -1.132632,-6.28361 -0.334272,-0.86114 -0.434317,-0.69253 -1.24798,2.10331 l -0.88456,3.03952 1.269625,1.16352 c 1.601613,1.46779 1.995547,1.4633 1.995547,-0.0227 z m -4.410972,-4.14185 c -0.12127,-1.15983 -0.409765,-2.52438 -0.641207,-3.03235 -0.409292,-0.89827 -0.441983,-0.86255 -1.193726,1.30394 l -0.772902,2.2275 1.273735,0.77113 c 0.700559,0.42411 1.336912,0.78629 1.414136,0.80484 0.0772,0.0185 0.04124,-0.91524 -0.08004,-2.07506 z M 58.60972,155.58 c 0.573528,-3.16913 0.572934,-3.48442 -0.01082,-5.64035 -0.529549,-1.95631 -0.562347,-2.7312 -0.228846,-5.40702 0.460342,-3.69349 0.708143,-3.35067 -4.134969,-5.72024 -3.640665,-1.78126 -6.156851,-2.25914 -7.960757,-1.51194 -0.601271,0.24905 -1.881415,1.33716 -2.844767,2.41802 -0.963366,1.08087 -2.479399,2.48267 -3.368975,3.11515 l -1.617417,1.14993 0.970409,0.90764 c 1.102361,1.03105 2.356223,1.70845 5.073324,2.74086 2.991319,1.1366 4.437402,2.35452 8.862731,7.46425 2.814807,3.25015 4.227537,4.63546 4.399331,4.31399 0.139198,-0.26044 0.526453,-1.98406 0.860576,-3.83029 z m -44.688555,2.40394 c 1.282888,-0.0257 1.600031,-0.14719 1.444299,-0.55304 -0.10978,-0.28602 -0.199563,-0.58734 -0.199563,-0.66962 0,-0.0823 -0.502605,-0.1496 -1.116908,-0.1496 -0.952267,0 -1.051271,0.0791 -0.671613,0.53656 0.244907,0.2951 0.370058,0.53656 0.278084,0.53656 -0.09193,0 -0.472131,-0.36219 -0.844826,-0.80485 -0.372681,-0.44266 -0.539432,-0.69177 -0.370558,-0.55358 0.168873,0.13818 0.540838,0.0174 0.826574,-0.26829 0.285737,-0.28573 1.14776,-0.51951 1.915619,-0.51951 1.189414,0 1.478233,0.15885 1.951013,1.07311 0.305219,0.59021 0.702262,1.07312 0.882343,1.07312 0.706643,0 0.722826,-0.75276 0.04475,-2.08185 -0.657512,-1.28884 -0.848949,-1.40772 -2.606889,-1.61884 -1.04351,-0.12533 -2.708827,-0.22927 -3.70072,-0.23097 l -1.8034328,-0.003 -0.9691658,-1.9761 -0.9691659,-1.97609 0.8052137,-0.28721 c 7.0694918,-2.52159 7.1052108,-2.54091 6.3577798,-3.44151 -0.347224,-0.41839 -0.588467,-0.39431 -1.551036,0.1548 -0.626931,0.35764 -2.467434,1.11079 -4.0900159,1.67366 -1.6225814,0.56288 -2.9505574,1.18654 -2.9510711,1.3859 -5.138e-4,0.19936 0.566728,1.2054 1.2605402,2.23565 0.6938122,1.03026 1.1588863,1.87319 1.0334921,1.87319 -0.1254619,0 0.1520278,0.31684 0.6164801,0.70409 l 0.8444746,0.7041 -1.2519688,-0.39409 C 8.3963005,154.19008 7.6078917,153.90629 7.332849,153.77619 6.8505509,153.54806 0.54106316,143.15153 0.5134967,142.53953 c -0.008112,-0.16548 2.8335723,-0.183 6.3133814,-0.0389 l 6.3269419,0.26192 -0.778351,-1.21302 c -0.656768,-1.02356 -0.959337,-1.19711 -1.937223,-1.11117 -0.7269078,0.064 -1.7894264,-0.24132 -2.8505255,-0.81884 -5.7065543,-3.10589 -9.5457278,-3.00382 -11.0427934,0.29358 -1.0802428,2.37932 -0.9244565,3.61482 0.6040016,4.79006 3.09389215,2.37892 3.63121501,2.97796 3.8661586,4.31024 0.6390713,3.62398 1.7833835,4.82063 5.5638414,5.81829 2.4275653,0.64064 4.1049143,1.61641 4.5832243,2.66619 0.23635,0.51872 0.583939,0.84781 0.772429,0.73131 0.188504,-0.11653 1.082446,-0.22665 1.986569,-0.24479 z M -2.3594853,141.5304 c -0.0027,-1.3163 1.8256053,-2.82285 3.3340273,-2.74678 l 1.1350918,0.0572 -1.1250873,0.14147 c -1.21898095,0.15328 -1.91213069,0.75799 -2.7827116,2.42762 l -0.5591165,1.07232 z m 23.7016923,15.58214 c 0.118026,-0.11802 0.03637,-0.60546 -0.18127,-1.08327 -0.288576,-0.63334 -0.474444,-0.74482 -0.686012,-0.41144 -0.682374,1.07531 0.04056,2.32137 0.867282,1.49471 z M 140.93393,145.73611 c 1.39905,-2.34562 2.81785,-6.28984 3.19706,-8.88768 0.31086,-2.12961 0.009,-2.16916 -3.41027,-0.44714 -1.36735,0.68858 -2.81394,1.25197 -3.21466,1.25197 -0.66142,0 -0.70345,0.14012 -0.45606,1.52025 0.14988,0.83614 0.26643,3.75258 0.259,6.48097 l -0.0135,4.96073 1.18944,-1.38366 c 0.65419,-0.76102 1.75624,-2.33397 2.449,-3.49544 z m -8.38571,0.35128 c 1.31405,-2.01151 3.16461,-6.95431 3.16461,-8.4526 0,-0.91975 -0.61066,-0.87916 -2.91555,0.19383 -1.05242,0.48993 -2.37469,0.89234 -2.93839,0.89426 l -1.02491,0.004 0.25527,2.04303 c 0.14038,1.12367 0.24397,3.64244 0.23018,5.59729 l -0.025,3.55426 0.93505,-0.85768 c 0.51429,-0.47173 1.55775,-1.81087 2.3188,-2.97588 z m 17.33023,-2.22046 c 2.15449,-3.84356 3.71565,-9.43302 2.63468,-9.43302 -0.20328,0 -1.19793,0.41974 -2.21033,0.93277 -1.39409,0.70644 -2.18004,0.88725 -3.23912,0.7452 l -1.3984,-0.18757 0.29995,2.20587 c 0.16496,1.21323 0.27305,4.13748 0.2402,6.49834 l -0.0598,4.29247 1.2519,-1.43082 c 0.68854,-0.78695 1.80492,-2.41741 2.48085,-3.62324 z m 8.70852,-1.04817 c 1.17548,-1.93953 2.59383,-5.74471 3.02715,-8.12125 0.34388,-1.88606 -0.41117,-2.05821 -2.66997,-0.60875 -1.68336,1.08021 -1.90536,1.13293 -3.17239,0.75332 -0.7493,-0.2245 -1.42609,-0.40817 -1.50397,-0.40817 -0.0779,0 -0.14161,3.15759 -0.14161,7.01687 v 7.01689 l 1.65906,-1.88177 c 0.91249,-1.03496 2.17327,-2.73017 2.80173,-3.76714 z m -34.31443,3.15116 c 1.67433,-1.89919 2.58722,-3.51954 3.16387,-5.6158 0.32762,-1.19095 0.29307,-1.51831 -0.21998,-2.08524 -0.4953,-0.5473 -0.90168,-0.62856 -2.18283,-0.43643 -2.62919,0.39427 -2.50642,0.1503 -2.62585,5.21782 -0.0599,2.54101 -10e-4,4.61973 0.12898,4.61939 0.13087,-3.5e-4 0.91195,-0.76522 1.73581,-1.69974 z m -7.20602,-2.46687 c 1.75268,-1.96646 3.26495,-4.58156 3.26495,-5.64593 0,-0.80348 -0.69582,-1.07535 -3.25886,-1.27325 l -2.36459,-0.18258 -0.23566,3.93476 c -0.12966,2.16412 -0.33515,4.39492 -0.45676,4.95734 -0.2038,0.94252 -0.16386,0.99193 0.51019,0.6312 0.4022,-0.21526 1.54553,-1.30494 2.54073,-2.42154 z m 91.98043,-6.76119 c 0.3688,-1.44198 0.78093,-3.59747 0.91584,-4.78996 l 0.2453,-2.16817 h -0.97395 c -0.67129,0 -1.03177,-0.22107 -1.15999,-0.71138 -0.10235,-0.39128 -0.30971,-0.63497 -0.46087,-0.54155 -0.30161,0.18641 -0.56708,2.41463 -1.06551,8.94361 -0.18024,2.36086 -0.4243,4.85586 -0.54237,5.54444 -0.37342,2.17782 2.27935,-3.29683 3.04155,-6.27699 z m -97.24513,1.09429 c 1.65212,-3.49223 1.49566,-3.74006 -2.20153,-3.48719 l -2.32509,0.15902 -0.003,4.65043 -0.003,4.65042 1.75735,-1.9112 c 0.96654,-1.05116 2.21513,-2.87882 2.77462,-4.06148 z m 53.76498,4.55672 c 2.2173,-2.38493 4.84352,-8.21128 4.84352,-10.74546 0,-0.76032 -0.11762,-0.83859 -0.94717,-0.63039 -0.52095,0.13073 -1.99974,0.87255 -3.28621,1.64846 -1.28646,0.77589 -2.44911,1.41072 -2.5837,1.41072 -0.13452,0 -0.10234,0.76194 0.0717,1.6932 0.17397,0.93126 0.32733,3.10432 0.34078,4.82902 0.0135,1.72471 0.0896,3.13585 0.16924,3.13585 0.0796,0 0.70598,-0.60364 1.39189,-1.3414 z m -125.245485,-0.3129 c 1.98972,-1.55017 3.818772,-4.18391 3.818772,-5.4988 0,-1.89868 -1.677944,-2.85443 -7.795426,-4.44025 -3.473077,-0.90033 -5.304928,-1.60936 -7.764778,-3.00547 -2.492054,-1.41437 -3.798682,-1.9164 -5.78367,-2.22216 -3.126758,-0.48163 -7.890659,-0.0191 -11.018783,1.06986 -1.175083,0.40908 -1.9799179,0.61232 -1.7885344,0.45167 2.1779804,-1.82829 6.1688974,-4.53855 7.7116464,-5.23705 3.106614,-1.40656 7.118703,-2.09073 12.310161,-2.09923 5.495743,-0.009 8.850103,0.61849 13.769966,2.5759 l 3.396474,1.35133 2.355046,-1.18191 c 5.08706,-2.55302 12.894925,-4.00361 19.110762,-3.55048 9.420523,0.68672 16.088591,2.58896 18.118437,5.16876 0.461991,0.58716 1.93821,1.63875 3.280489,2.33686 1.977769,1.02864 2.834925,1.26932 4.520616,1.26932 1.816371,0 2.323288,0.16821 3.998204,1.32676 1.733993,1.19943 2.112953,1.31759 3.948333,1.23114 1.51892,-0.0715 2.41507,0.10073 3.55826,0.68393 1.26345,0.64456 1.92902,0.74735 3.84383,0.59365 2.1964,-0.17631 2.40861,-0.12208 4.11589,1.05235 1.39525,0.95976 2.12558,1.2257 3.24743,1.18253 2.34636,-0.0903 2.53967,-0.0381 3.92096,1.05964 l 1.32,1.04901 1.6002,-0.59307 c 1.49792,-0.55517 1.71129,-0.55363 3.33795,0.0241 2.34031,0.83121 2.79804,0.79176 5.50368,-0.47436 2.2683,-1.06148 2.3697,-1.07607 3.67818,-0.52935 1.26453,0.52836 1.42811,0.5187 2.71545,-0.16041 0.75342,-0.39745 2.01926,-1.06412 2.81297,-1.4815 l 1.44309,-0.75886 2.17483,0.79298 2.17483,0.79298 2.50061,-1.1526 c 2.33737,-1.07736 2.59741,-1.12388 3.98332,-0.71259 0.81549,0.24201 1.68193,0.60242 1.92542,0.80091 0.31385,0.25584 0.94773,0.0368 2.17756,-0.75235 1.87482,-1.20307 2.57554,-1.32227 4.28012,-0.72804 1.01318,0.3532 1.28738,0.25661 3.30056,-1.16255 2.14636,-1.51305 2.26113,-1.54818 5.11882,-1.56717 2.70192,-0.018 3.07015,-0.11275 4.86364,-1.25198 1.78177,-1.13179 2.1446,-1.22673 4.43882,-1.1614 2.07301,0.0591 2.74798,-0.075 3.96393,-0.78769 1.39,-0.8146 1.5899,-0.83753 3.88065,-0.44513 2.32303,0.3979 2.49157,0.37622 4.41827,-0.56873 1.79044,-0.87811 2.13749,-0.93807 3.2687,-0.56474 0.71226,0.23506 2.17293,0.3354 3.34094,0.22949 1.5877,-0.14397 2.39497,-0.0311 3.43548,0.48018 1.14856,0.56439 1.59531,0.60805 2.87216,0.28065 1.91503,-0.49103 2.4554,-0.27402 3.08806,1.24015 0.86969,2.08147 3.44828,1.95265 3.44828,-0.17224 0,-0.35021 -0.4829,-1.95993 -1.07312,-3.57716 -0.96671,-2.64886 -1.07311,-3.361 -1.07311,-7.18218 0,-5.01675 -0.10546,-5.28045 -3.39905,-8.49872 -3.35465,-3.27797 -3.68336,-4.05254 -3.96838,-9.351573 -0.13073,-2.431053 -0.43886,-4.916631 -0.68466,-5.523499 -0.58134,-1.43524 -2.36989,-2.849444 -9.1178,-7.209392 -5.6399,-3.644032 -9.18074,-5.542197 -17.16989,-9.204389 -2.45923,-1.127292 -6.48342,-2.991576 -8.94265,-4.142838 -4.74993,-2.223635 -4.90295,-2.266722 -20.9258,-5.892962 -5.70541,-1.291216 -11.23587,-2.591409 -12.28989,-2.889314 -1.05402,-0.297891 -1.98907,-0.468954 -2.0779,-0.38013 -0.0888,0.08882 -0.53869,1.240936 -0.99969,2.560246 l -0.83819,2.398742 1.42478,2.272387 c 1.57914,2.51858 0.95774,2.261937 7.06273,2.916921 l 2.65532,0.284871 0.51119,1.540585 0.51119,1.540572 2.02314,-0.100315 2.02313,-0.100316 4.82613,3.431981 c 5.42309,3.856479 6.77696,4.926041 6.25695,4.943022 -0.19675,0.0068 -2.73274,-1.597895 -5.63555,-3.565159 l -5.27783,-3.576843 h -2.66677 -2.66677 l -0.42665,-1.424046 c -0.47527,-1.586322 -0.60769,-1.653082 -3.89454,-1.963235 -5.04396,-0.475971 -4.93518,-0.431262 -5.98197,-2.458714 l -0.95242,-1.844695 -0.43628,3.040503 c -0.23996,1.672279 -0.45038,3.289102 -0.46758,3.592927 -0.023,0.406805 0.83791,0.764412 3.26597,1.35657 2.57797,0.628729 3.83393,1.170852 5.75745,2.485136 2.85538,1.951 5.09255,4.254685 5.81805,5.991088 0.28048,0.671261 0.7601,3.966325 1.06582,7.322349 l 0.55585,6.101867 -1.11885,1.955533 c -0.71283,1.24589 -1.19199,2.6643 -1.32043,3.90873 -0.18148,1.75855 -0.33581,2.04623 -1.54849,2.88662 -1.38565,0.96024 -1.75732,1.7065 -1.77708,3.568 -0.007,0.59021 -0.48756,1.77577 -1.06953,2.63458 -0.58198,0.85879 -1.15504,2.078 -1.27348,2.70934 -0.16325,0.87017 -0.90599,1.7349 -3.07011,3.57433 -1.57013,1.33455 -2.93612,2.34512 -3.03553,2.2457 -0.0994,-0.0994 0.99662,-1.19122 2.43565,-2.42621 2.12213,-1.82125 2.69344,-2.53601 3.02418,-3.78351 0.22428,-0.84594 0.82792,-2.03737 1.3414,-2.64761 0.77452,-0.92046 0.93362,-1.46769 0.93362,-3.21115 0,-2.08825 0.0108,-2.10864 1.60968,-3.20909 1.55357,-1.06888 1.60967,-1.17126 1.60967,-2.93682 0,-1.31735 0.26224,-2.28867 0.93694,-3.47046 0.81499,-1.42752 0.37042,-1.08246 -3.41594,2.65137 -2.39409,2.36086 -4.65398,4.77538 -5.02201,5.36559 -0.36802,0.59021 -1.00236,2.3816 -1.40964,3.98086 -0.72673,2.85362 -0.79446,2.96014 -3.63927,5.72329 -3.33852,3.24269 -3.56815,3.62452 -5.31231,8.8335 -0.71302,2.12944 -1.43813,3.81959 -1.61135,3.75591 -0.17321,-0.0637 -0.36849,-0.71038 -0.43395,-1.4371 -0.18,-1.99831 -1.51429,-5.24938 -2.3346,-5.6884 -0.99253,-0.53118 -0.8983,-0.88889 2.91404,-11.06168 1.77723,-4.74233 3.23241,-8.81356 3.23374,-9.0472 0.003,-0.55945 -4.06335,-10.606107 -4.2949,-10.610853 -0.0984,-0.0014 -0.58126,0.593754 -1.07311,1.323907 -1.33596,1.983271 -5.22511,6.015326 -7.20155,7.466166 -1.26042,0.92524 -1.7411,1.51973 -1.7411,2.15338 0,1.23787 -0.79004,2.97865 -2.48382,5.47284 l -1.46294,2.15429 -4.0182,1.2893 c -6.350237,2.03755 -8.616244,2.0272 -15.643635,-0.0715 -2.612771,-0.78028 -3.255384,-1.13766 -4.567961,-2.54036 -1.391437,-1.48695 -2.495502,-2.08307 -5.905658,-3.18866 -0.350428,-0.11357 -2.069363,0.39435 -3.822923,1.12969 l -3.186217,1.33611 -4.40432,-0.94323 -4.40432,-0.94322 -3.170845,-3.12058 c -4.17907,-4.11283 -6.143048,-6.792067 -6.990795,-9.536762 -1.362207,-4.410295 -4.41696,-20.246439 -4.228335,-21.920003 0.198211,-1.758534 1.8968,-3.89459 3.396245,-4.270921 0.793708,-0.199212 0.813582,-0.29827 0.589332,-2.936808 -0.305367,-3.592874 -0.710441,-4.401643 -2.51839,-5.028263 -1.411324,-0.489152 -1.537286,-0.469225 -3.215676,0.508702 -0.960757,0.559792 -2.59191,1.639048 -3.62478,2.398336 l -1.877967,1.380527 v 2.085032 c 0,1.595516 0.196318,2.374312 0.836147,3.317169 0.848625,1.250508 1.562297,4.073684 0.931203,3.683644 -0.185084,-0.114376 -0.336517,-0.427598 -0.336517,-0.69603 0,-0.268431 -0.545434,-1.202608 -1.212086,-2.075961 -1.169188,-1.53173 -1.20008,-1.653852 -0.873257,-3.452013 0.186354,-1.025272 0.289116,-1.995749 0.228386,-2.156632 -0.0607,-0.160883 -3.732206,2.307078 -8.15882,5.484359 l -8.048378,5.776884 -0.178851,2.322157 c -0.135061,1.754019 -0.243299,2.103365 -0.442253,1.427899 -0.144862,-0.491843 -0.265592,-1.336926 -0.268283,-1.877953 -0.0027,-0.541027 -0.09126,-0.983704 -0.196832,-0.983704 -0.50109,0 -4.819168,3.768484 -4.694206,4.096753 0.37817,0.993447 2.764514,8.924354 3.431557,11.404659 l 0.753799,2.802829 -1.283618,2.113059 c -0.948116,1.560771 -1.462293,3.025321 -1.967196,5.603261 -0.571257,2.91682 -1.17849,4.4892 -3.696258,9.57119 -1.656976,3.34456 -4.233568,7.93214 -5.7257391,10.19463 -2.4937302,3.7811 -2.7134507,4.26318 -2.7181014,5.96383 -0.00541,1.99232 -0.065435,1.93769 3.035447,2.76548 0.3934743,0.10505 -0.036503,0.12032 -0.9556598,0.0339 l -1.6710763,-0.15699 0.3171833,1.10593 c 0.5069173,1.76751 1.5684896,3.59745 2.4117609,4.15735 0.7174854,0.47639 0.8061604,0.45032 1.1112564,-0.32666 0.182353,-0.4644 1.141068,-1.63344 2.130473,-2.59785 l 1.798917,-1.75346 3.206173,0.20771 c 6.558302,0.4249 12.340215,2.70403 17.397477,6.8578 1.569328,1.28896 3.031864,2.34357 3.250084,2.34357 0.218206,0 1.145651,-0.58346 2.060968,-1.29658 z m -2.43131,-6.20546 c -0.584831,-0.38551 -2.638404,-1.20665 -4.563486,-1.82476 -1.925083,-0.61813 -3.605812,-1.29482 -3.734938,-1.50376 -0.153068,-0.24765 0.0041,-0.28839 0.449865,-0.11695 0.376575,0.1446 1.730955,0.59821 3.00976,1.00804 3.151147,1.00989 5.664549,2.10478 6.136166,2.67304 0.570298,0.68717 -0.07544,0.56995 -1.297367,-0.23554 z m 86.018535,-1.21422 c 0,-0.0722 0.64387,-0.55741 1.43082,-1.07819 1.06952,-0.70777 1.43717,-1.19399 1.45596,-1.9255 0.0138,-0.53823 0.15629,-1.30054 0.31658,-1.69402 0.18681,-0.45857 0.27409,0.15237 0.24313,1.70173 -0.0366,1.8343 -0.16157,2.37399 -0.51808,2.2382 -0.25839,-0.0984 -0.9345,0.0614 -1.50249,0.35507 -1.03761,0.53657 -1.42592,0.64624 -1.42592,0.40271 z m 10.34135,-1.2395 c 0.19291,-0.36047 0.601,-0.86308 0.90686,-1.11691 0.38637,-0.32067 0.55608,-1.09667 0.55608,-2.54285 0,-1.19236 0.17712,-2.19078 0.41469,-2.33762 0.30644,-0.18938 0.35738,0.35752 0.19514,2.09485 -0.17024,1.82311 -0.10275,2.44812 0.30072,2.78293 0.78942,0.65516 0.62179,1.12752 -0.21844,0.61549 -0.63853,-0.38912 -0.82821,-0.34102 -1.39874,0.35468 -0.79564,0.97022 -1.24287,1.05858 -0.75631,0.14943 z M 10.657034,133.25032 c 0.37283,-0.23435 1.349607,-0.92584 2.170625,-1.53662 0.821005,-0.61079 2.125646,-1.2204 2.899183,-1.35467 1.007359,-0.17486 1.254187,-0.14043 0.869892,0.12141 -0.295119,0.20103 -0.889238,0.36797 -1.320297,0.37098 -0.431045,0.003 -0.892929,0.18219 -1.026408,0.39816 -0.327215,0.52944 -3.420796,2.47432 -3.893765,2.44793 -0.207405,-0.0122 -0.07206,-0.21277 0.30077,-0.44714 z m 138.648626,-1.15964 c 0,-0.13466 0.62308,-0.86796 1.38462,-1.62949 l 1.38461,-1.38463 0.257,-4.20716 c 0.14133,-2.31395 0.38248,-5.17298 0.53586,-6.35342 0.46633,-3.58884 0.44074,-0.0453 -0.0433,5.99918 l -0.42314,5.28377 -1.54782,1.26831 c -0.8513,0.69759 -1.54781,1.15813 -1.54781,1.02344 z m -36.62384,-1.15393 c -0.77793,-0.46467 -1.07153,-0.50636 -1.19235,-0.16933 -0.0881,0.24592 -0.31879,0.44713 -0.51252,0.44713 -0.19374,0 -0.0193,-0.46751 0.38751,-1.03891 0.40687,-0.57141 0.73978,-1.44722 0.73978,-1.94627 0,-0.49905 0.17855,-1.01771 0.39678,-1.1526 0.28125,-0.17381 0.32197,0.19771 0.13984,1.27574 -0.23453,1.38811 -0.16763,1.59403 0.76575,2.35749 1.19685,0.97896 0.76221,1.11494 -0.72479,0.22675 z m 29.20197,-0.34818 c 0.74753,-0.78292 1.0073,-1.53126 1.27274,-3.66649 l 0.33353,-2.6828 0.0461,2.97459 c 0.0254,1.63602 0.216,3.32619 0.4236,3.75592 0.34268,0.70938 0.33082,0.72368 -0.12885,0.15533 -0.62048,-0.76714 -1.09594,-0.79245 -1.6794,-0.0894 -0.24492,0.2951 -0.61668,0.53655 -0.82614,0.53655 -0.20946,0 0.0418,-0.44266 0.55838,-0.98369 z m 16.36453,-0.3068 c 0,-0.19674 0.56339,-0.90376 1.25197,-1.57116 1.14472,-1.10951 1.25197,-1.3895 1.25197,-3.26841 0,-1.13023 0.1214,-2.13 0.26979,-2.2217 0.1484,-0.0917 0.26913,1.10522 0.26829,2.65985 -9.4e-4,1.73408 -0.13978,2.77517 -0.35923,2.6935 -0.19674,-0.0731 -0.88084,0.3616 -1.52025,0.96626 -0.6394,0.60465 -1.16254,0.9384 -1.16254,0.74166 z m -53.02667,-1.65568 c -0.41079,-0.61867 -0.64356,-0.70964 -1.02732,-0.40148 -0.70197,0.56369 -2.10587,0.95165 -2.10587,0.58197 0,-0.17049 0.56784,-0.51529 1.26185,-0.76625 0.83676,-0.30257 1.43516,-0.83893 1.77629,-1.59211 l 0.51443,-1.13582 -0.19934,1.30373 c -0.10965,0.71705 -0.018,1.64262 0.20368,2.05682 0.53339,0.99665 0.24821,0.96512 -0.42372,-0.0469 z m -8.419447,-1.19185 c -0.290252,-0.51865 -0.518733,-0.55366 -1.463604,-0.22429 -1.448449,0.50495 -1.46255,-0.0591 -0.01649,-0.65804 0.606759,-0.25133 1.255132,-0.85657 1.440824,-1.34498 0.185691,-0.48841 0.418107,-0.80753 0.516475,-0.70916 0.09842,0.0984 0.0095,0.62318 -0.196548,1.16624 -0.272041,0.71552 -0.260752,1.12552 0.04096,1.48908 0.229008,0.27593 0.327701,0.59036 0.219328,0.69873 -0.108427,0.10843 -0.351807,-0.0795 -0.540986,-0.41758 z m 70.388767,0.0675 c 0,-0.0886 0.78248,-0.73538 1.73885,-1.43742 l 1.73885,-1.27643 0.25066,-3.08932 c 0.2289,-2.82106 0.18663,-3.15748 -0.48688,-3.8744 -0.42253,-0.44975 -0.73755,-1.26612 -0.73755,-1.91133 0,-0.61943 -0.32783,-1.95796 -0.72851,-2.97451 -0.4007,-1.01657 -0.64425,-1.93256 -0.54126,-2.03556 0.28636,-0.28635 1.25373,2.24426 1.64343,4.29914 0.19125,1.00846 0.60051,2.11289 0.90947,2.45427 0.44583,0.49264 0.54217,1.3466 0.46685,4.1385 -0.0522,1.93476 0.0199,3.92018 0.16003,4.41203 0.24932,0.87459 0.24564,0.87655 -0.16679,0.0894 -0.51137,-0.97594 -0.69222,-0.9904 -1.7844,-0.14277 -1.00502,0.78002 -2.46275,1.57812 -2.46275,1.34837 z m 10.85568,-3.71937 c 0.78915,-0.84142 1.0765,-1.5759 1.27494,-3.25887 0.37823,-3.20788 0.78538,-3.11257 0.66982,0.15681 -0.0553,1.56397 0.0349,3.16554 0.20039,3.55901 0.24277,0.57725 0.16617,0.55059 -0.39664,-0.13807 -0.46116,-0.5643 -0.78223,-0.71646 -0.94749,-0.44907 -0.13748,0.22245 -0.60316,0.58714 -1.03487,0.81045 -0.65681,0.33972 -0.61863,0.22868 0.23385,-0.68026 z m -19.29308,-1.24216 c 0.13182,-1.03287 0.55501,-3.7819 0.94036,-6.10895 0.91488,-5.52496 0.88395,-7.24088 -0.18579,-10.30269 -0.48753,-1.39541 -1.07605,-3.89264 -1.30781,-5.54941 -0.36825,-2.632364 -0.33931,-3.371791 0.2295,-5.862276 0.78031,-3.416457 1.40539,-3.775672 1.0667,-0.613006 -0.21914,2.046245 -0.11803,2.55707 1.18643,5.991592 1.50646,3.96652 2.93421,8.55341 3.66425,11.772 l 0.4392,1.93638 -2.14006,1.99839 c -2.08143,1.94364 -2.16227,2.08899 -2.95137,5.30715 -0.44622,1.81984 -0.89452,3.3088 -0.99621,3.3088 -0.10167,0 -0.0771,-0.84509 0.0548,-1.87798 z m -67.626055,0.31258 c -0.339978,-0.71295 -0.819613,-1.29626 -1.065845,-1.29626 -0.246232,0 -1.463915,-0.69508 -2.705974,-1.54463 -3.035691,-2.07637 -4.022107,-2.366 -8.962493,-2.63164 -2.327831,-0.12519 -4.316415,-0.36349 -4.419083,-0.52959 -0.218977,-0.35434 8.263894,-0.36015 10.528224,-0.007 1.287498,0.20067 1.715529,0.48497 2.518214,1.67259 0.667084,0.98698 1.431523,1.59292 2.46438,1.95336 1.208462,0.42175 1.605371,0.79264 2.057506,1.92261 0.720527,1.8008 0.395962,2.16125 -0.414929,0.4608 z m 117.303415,0.56397 c -0.49923,-0.31726 -0.21126,-5.43729 0.30581,-5.43729 0.36245,0 0.35845,0.32009 -0.0335,2.68279 -0.1727,1.04089 -0.15851,2.05021 0.0339,2.41453 0.36711,0.69504 0.3254,0.74136 -0.30618,0.33997 z m -23.35466,-0.22138 c 0,-0.0823 0.60362,-0.50943 1.34139,-0.94914 1.8156,-1.08206 2.23471,-1.67534 2.24114,-3.1726 0.003,-0.70017 0.16648,-1.51448 0.36325,-1.80958 0.24623,-0.36929 0.28672,0.19817 0.12992,1.82022 -0.14795,1.53007 -0.08,2.65936 0.19351,3.21935 l 0.42139,0.86257 -0.68235,-0.77868 -0.68233,-0.77868 -1.39467,0.85695 c -1.34188,0.82451 -1.93122,1.04716 -1.93122,0.72959 z m 17.72467,-2.18423 1.30519,-2.33393 -0.98589,-1.29257 c -0.96739,-1.26831 -0.97552,-1.32015 -0.4329,-2.76339 l 0.553,-1.47082 -1.91703,-1.96739 c -1.76974,-1.81622 -1.94256,-2.14602 -2.24936,-4.29247 -0.18711,-1.30906 -0.97344,-3.77799 -1.79942,-5.64991 -1.5207,-3.446348 -1.84816,-4.647537 -0.94067,-3.450539 1.12915,1.48936 3.76606,8.317299 3.76606,9.751699 0,1.30351 0.19287,1.62028 1.90629,3.13094 l 1.90629,1.6807 -0.3396,1.71754 c -0.29706,1.50245 -0.2405,1.87789 0.45175,2.99795 l 0.79133,1.2804 -0.70464,1.3353 c -1.36128,2.57966 -2.04672,3.65591 -2.32982,3.65814 -0.15718,0.001 0.30155,-1.04801 1.01942,-2.33165 z m -8.47568,1.35677 c 0.2271,-0.42435 0.57301,-0.8705 0.76869,-0.99143 0.19569,-0.12087 0.35579,-1.00572 0.35579,-1.9662 0,-0.96047 0.16097,-1.84579 0.35771,-1.96738 0.22293,-0.13778 0.3577,0.56862 0.3577,1.87473 0,1.18117 0.19514,2.30611 0.44714,2.5777 0.36554,0.39396 0.32948,0.44039 -0.19761,0.25443 -0.36177,-0.12763 -1.05234,0.0396 -1.57353,0.38112 -0.91528,0.59972 -0.92279,0.59734 -0.51589,-0.16297 z m -87.01553,-0.18541 c 0.10505,-0.24592 1.14626,-1.23577 2.31386,-2.19968 1.45333,-1.19977 2.12293,-2.00852 2.12293,-2.56411 0,-1.34575 0.37272,-1.91915 1.95522,-3.00793 1.49218,-1.02666 2.54145,-2.95018 5.35175,-9.8108 0.31457,-0.76796 0.66849,-1.29978 0.78647,-1.1818 0.11803,0.11803 -0.34694,1.55117 -1.03317,3.18485 -0.68622,1.63368 -1.54946,3.76211 -1.91831,4.72983 -0.41123,1.07896 -1.33099,2.39035 -2.37794,3.39049 -0.97302,0.9295 -1.86544,2.17276 -2.07495,2.89068 -0.2579,0.88373 -1.04876,1.82017 -2.64986,3.13765 -2.35622,1.93884 -2.80323,2.19716 -2.476,1.43082 z m -10.547315,-4.0617 c -3.644613,-0.66129 -3.678818,-0.97186 -0.07247,-0.65831 2.743789,0.23856 3.140129,0.18906 4.519635,-0.56453 1.3311,-0.72715 1.69902,-0.78123 3.07348,-0.45178 l 1.56135,0.37425 -1.43083,0.0448 c -0.82792,0.026 -2.03371,0.41612 -2.86163,0.92605 -0.78696,0.4847 -1.591804,0.86504 -1.788541,0.84519 -0.196737,-0.0199 -1.547169,-0.25188 -3.000958,-0.51566 z m -57.812974,-0.13506 c 0.129247,-0.20903 1.209842,-0.87221 2.401445,-1.47373 l 2.16657,-1.09369 3.118079,0.77046 3.118065,0.77044 2.746628,-1.15292 c 2.433135,-1.02136 2.85788,-1.10165 3.721377,-0.70354 0.576002,0.26557 2.222676,0.42845 4.025325,0.39818 2.270224,-0.0381 3.688497,0.15139 5.544441,0.7409 2.856312,0.90725 2.241427,1.36348 -0.689351,0.51149 -2.24109,-0.65151 -4.137064,-0.71101 -6.017221,-0.18884 -1.099279,0.3053 -1.561324,0.25144 -2.654654,-0.30948 l -1.323731,-0.67912 -2.349355,1.06525 -2.349354,1.06525 -3.019156,-0.53755 c -2.780602,-0.49509 -3.16245,-0.48871 -4.832904,0.0807 -2.794393,0.95257 -3.876474,1.17346 -3.606204,0.73616 z m -10.548409,-0.68794 c 0,-0.74459 3.792977,-3.25316 4.918795,-3.25316 0.912667,0 1.496078,-0.4449 3.458123,-2.63715 1.977512,-2.20952 2.635254,-2.70855 4.056339,-3.07754 1.368278,-0.35529 2.126403,-0.89995 3.922184,-2.81788 1.224321,-1.3076 2.230368,-2.2674 2.235655,-2.13288 0.0054,0.13452 -0.804065,1.2613 -1.798567,2.50394 -1.568881,1.96038 -2.091643,2.35403 -3.950372,2.97477 -1.898624,0.63407 -2.396402,1.02047 -4.377578,3.3982 -1.990963,2.38947 -2.399025,2.70487 -3.732206,2.88463 -0.864092,0.11653 -2.180684,0.69293 -3.114604,1.36362 -0.889779,0.63899 -1.617769,0.99605 -1.617769,0.79345 z m -6.438708,-0.89766 c 0,-0.16032 0.409455,-1.79448 0.909896,-3.63144 0.859414,-3.15464 0.881478,-3.44876 0.397693,-5.30135 l -0.51219,-1.96142 1.890567,-3.89102 c 1.323419,-2.723739 1.849345,-4.206163 1.753153,-4.941575 -0.08761,-0.669599 0.08369,-0.41712 0.472132,0.696232 l 0.609558,1.746786 -1.691261,3.261107 c -1.548778,2.98634 -1.690923,3.47265 -1.687287,5.77221 0.0041,2.44125 -1.109512,7.49288 -1.807745,8.20217 -0.183989,0.18691 -0.334516,0.20863 -0.334516,0.0483 z m 58.842627,-4.36057 c -1.180423,-1.06062 -1.933059,-1.9287 -1.67251,-1.92905 0.540906,-7.3e-4 4.260769,3.43696 3.993838,3.69089 -0.09626,0.0917 -1.140892,-0.70122 -2.321328,-1.76184 z m 125.599009,1.45469 c -0.12262,-0.31969 -0.22304,-1.10934 -0.22304,-1.75478 0,-0.76537 -0.37323,-1.64319 -1.07312,-2.52388 -1.41983,-1.78661 -1.35997,-2.02803 0.14194,-0.57234 0.98413,0.95386 1.26166,1.55077 1.46032,3.14079 0.24761,1.98179 0.10464,2.78057 -0.3061,1.71021 z m -16.13561,-1.99686 c -1.01634,-0.89235 -1.48269,-1.07418 -2.32367,-0.90598 -0.57868,0.11573 -1.14837,0.0548 -1.26597,-0.13556 -0.11762,-0.19029 0.10437,-0.34599 0.49342,-0.34599 0.389,0 0.95323,-0.0944 1.25384,-0.20973 0.34024,-0.1306 1.12765,0.33862 2.08606,1.24303 1.80499,1.70328 1.61213,1.98365 -0.24368,0.35423 z M 28.63534,110.02043 c -1.055069,-2.77363 -1.065776,-3.57652 -0.08882,-6.66895 0.510229,-1.61514 0.927687,-3.32119 0.927687,-3.791231 0,-1.050797 -2.414086,-10.469616 -4.146352,-16.177455 l -1.279062,-4.214522 1.371306,-1.190144 c 1.977309,-1.716096 11.454844,-9.00447 11.70908,-9.00447 0.118026,0 0.214556,0.573974 0.214556,1.275492 0,1.514547 0.419837,2.391942 1.979485,4.136808 1.230905,1.377079 1.611847,2.880972 2.293478,9.054213 0.300554,2.721928 0.261929,2.986655 -0.920955,6.312963 l -1.234677,3.4719 1.087571,4.307871 c 0.598161,2.369322 1.08757,4.473025 1.08757,4.674905 0,0.20187 -0.845083,0.9909 -1.877953,1.75341 -7.558915,5.58025 -10.306611,7.57946 -10.417161,7.57946 -0.07003,0 -0.387634,-0.68412 -0.705696,-1.52025 z m 30.335772,-0.22494 c -0.73291,-1.10751 -1.423099,-1.62579 -2.901859,-2.17906 -1.067129,-0.39926 -2.072365,-0.72594 -2.23387,-0.72594 -0.344074,0 -2.519513,-3.20543 -3.400057,-5.00986 l -0.609978,-1.24999 0.823858,0.95197 c 0.453122,0.52357 1.335776,1.5859 1.96145,2.36073 0.786164,0.97356 1.725452,1.61941 3.040503,2.09058 1.625285,0.58233 2.10442,0.98446 3.284194,2.75631 0.759693,1.14097 1.294907,2.16087 1.189333,2.26645 -0.105588,0.10559 -0.624673,-0.46198 -1.153574,-1.26119 z m 116.050958,-0.6989 c -4.92563,-2.7629 -5.25058,-3.05578 -5.53431,-4.9881 -0.38009,-2.58847 -0.7021,-3.16112 -2.27447,-4.04484 l -1.45314,-0.816717 v -2.795772 c 0,-1.625394 0.14974,-2.795785 0.3577,-2.795785 0.2061,0 0.3577,1.116894 0.3577,2.635267 v 2.635253 l 1.3414,0.888481 c 0.86547,0.573243 1.51801,1.383323 1.83918,2.283203 1.14991,3.22186 2.86263,4.88558 8.13991,7.907 0.75794,0.43396 1.13663,0.79577 0.84152,0.80403 -0.2951,0.008 -1.92208,-0.76214 -3.61549,-1.71202 z m 15.38998,-0.20779 c -0.0819,-0.0814 -1.41479,-0.32374 -2.96179,-0.53861 -2.27186,-0.31552 -3.08565,-0.60679 -4.23192,-1.51465 -0.78055,-0.61821 -3.12972,-1.83091 -5.22039,-2.69488 -5.20225,-2.14986 -6.97284,-3.53101 -8.37187,-6.530491 -0.6417,-1.375768 -0.7102,-1.996263 -0.50915,-4.611873 0.3658,-4.758952 0.39972,-4.830187 2.18367,-4.585671 1.81,0.248085 10.6434,4.815153 12.67243,6.551921 1.48393,1.270193 6.22119,8.851134 7.08568,11.339044 0.5852,1.68419 0.15964,3.38553 -0.64666,2.58521 z m 2.96617,-8.52177 c -1.26344,-2.302089 -1.66074,-2.727294 -3.23893,-3.466478 -1.31691,-0.616804 -1.90941,-1.140405 -2.21157,-1.95442 -0.22701,-0.611545 -0.5537,-1.469931 -0.72597,-1.90752 -0.20708,-0.526007 -1.55972,-1.41876 -3.99158,-2.634456 -3.97981,-1.98953 -4.05586,-2.034943 -3.81362,-2.277187 0.29747,-0.297471 7.95415,3.299769 8.44118,3.965812 0.26325,0.360027 0.66063,1.262027 0.88307,2.004442 0.33638,1.122749 0.62455,1.409134 1.71275,1.702158 1.1778,0.317143 1.47911,0.676183 3.01994,3.598552 0.94139,1.785437 1.63358,3.324277 1.53823,3.419647 -0.0953,0.0953 -0.82144,-1.00739 -1.6135,-2.45055 z M 43.916487,97.730764 c -0.132222,-0.372452 -0.610194,-1.608981 -1.062113,-2.747845 l -0.821667,-2.070675 0.909571,-2.758363 c 0.749716,-2.273617 0.876138,-3.198385 0.719364,-5.2623 -0.176714,-2.326587 -0.155543,-2.42793 0.298932,-1.430833 0.994853,2.182739 1.053028,4.726519 0.172321,7.534796 -0.803943,2.563437 -0.807228,2.642959 -0.198765,4.811516 0.340288,1.212749 0.529617,2.294073 0.420743,2.402947 -0.108832,0.108832 -0.306137,-0.106805 -0.438386,-0.479243 z M 198.83138,94.772757 c -0.5811,-0.354565 -1.8336,-1.555862 -2.78331,-2.669552 -0.94972,-1.113691 -2.01131,-2.024885 -2.35907,-2.024885 -0.34778,0 -0.90613,-0.302555 -1.24076,-0.672329 -0.33465,-0.369775 -1.20468,-0.772334 -1.9334,-0.894578 -1.0044,-0.168495 -1.56096,-0.557778 -2.30041,-1.609049 -0.94075,-1.337439 -1.09666,-1.408607 -4.38115,-1.999994 -1.87311,-0.33726 -3.51153,-0.784475 -3.64091,-0.993826 -0.15904,-0.257345 0.15929,-0.301636 0.98294,-0.136764 0.66999,0.134114 2.59309,0.495507 4.27355,0.803064 2.8066,0.513677 3.12344,0.658553 3.89144,1.779368 0.62014,0.905029 1.09806,1.220157 1.85049,1.220157 0.66206,0 1.15305,0.259022 1.4135,0.745701 0.21951,0.41013 0.94677,0.974519 1.61615,1.254213 0.8019,0.335056 1.46766,0.99976 1.95176,1.948674 0.53543,1.049526 1.01852,1.49693 1.78103,1.649431 0.57547,0.115052 1.30676,0.606746 1.62508,1.092573 0.75753,1.156128 0.54852,1.298219 -0.74693,0.507796 z m -36.05157,-3.87354 c -0.38594,-0.09964 -1.07811,-1.111717 -1.68414,-2.462446 -0.56589,-1.26127 -1.15636,-2.288746 -1.31215,-2.283271 -0.15577,0.0054 -0.88634,0.466602 -1.62346,1.024732 l -1.34023,1.014781 -3.12886,-0.809973 c -2.83376,-0.733587 -3.23029,-0.760721 -4.20421,-0.287792 l -1.07535,0.522195 0.89425,-0.72899 c 1.0901,-0.88863 1.01386,-0.887427 4.17507,-0.06625 l 2.56537,0.666421 1.70063,-1.209112 c 0.93535,-0.665002 1.89664,-1.209098 2.13619,-1.209098 0.23955,0 0.86265,1.066845 1.38464,2.37077 0.52199,1.303911 1.30371,2.666781 1.73714,3.028592 0.43343,0.361812 0.70758,0.64452 0.60921,0.628242 -0.0984,-0.01622 -0.47371,-0.105723 -0.8341,-0.198819 z m 3.35951,-0.597323 c -0.0456,-0.663528 1.8688,-4.478542 2.33752,-4.658421 0.27166,-0.104236 1.34098,-0.270053 2.37626,-0.368476 l 1.88231,-0.178932 -2.16729,0.540013 c -2.14655,0.534849 -2.17799,0.561239 -3.2873,2.759404 -0.61601,1.220671 -1.12969,2.078557 -1.1415,1.906412 z m 8.66042,-8.987382 c -1.05985,-0.907192 -1.80309,-1.251969 -2.69894,-1.251969 -0.69825,0 -1.63559,-0.314087 -2.1538,-0.721703 -1.56996,-1.234938 -3.93696,-2.123892 -5.67701,-2.132085 -1.48575,-0.0068 -1.85888,-0.187152 -3.39821,-1.640725 -2.22131,-2.097552 -3.99808,-3.011003 -5.918,-3.04245 -0.84397,-0.01379 -1.85643,-0.163492 -2.2499,-0.332568 -0.46843,-0.20128 0.48142,-0.316102 2.75113,-0.332569 l 3.46653,-0.02515 1.8892,2.146236 1.88919,2.146236 h 2.07334 c 1.91498,0 2.22988,0.122893 4.12346,1.609454 1.81076,1.421531 2.25991,1.609485 3.8466,1.609687 1.47857,1.9e-4 2.03304,0.195237 3.1334,1.10224 1.29163,1.064681 1.39802,1.088922 3.13961,0.715416 2.15941,-0.463114 2.12516,-0.461599 2.12516,-0.09423 0,0.309531 -3.44921,1.496159 -4.34896,1.496159 -0.29157,0 -1.18834,-0.563388 -1.9928,-1.251982 z M 44.855504,72.578158 c 0,-0.51173 1.776854,-2.501207 2.631955,-2.946894 0.446565,-0.232753 0.206606,0.150892 -0.575151,0.919549 -0.737765,0.725408 -1.341388,1.552631 -1.341388,1.838273 0,0.285629 -0.160977,0.519342 -0.357715,0.519342 -0.196737,0 -0.357701,-0.148621 -0.357701,-0.33027 z m 97.760726,-3.069043 c -0.42219,-0.295701 -2.59083,-0.797792 -4.8192,-1.115732 -2.22837,-0.31794 -4.2045,-0.719865 -4.39141,-0.893159 -0.91736,-0.850626 8.27081,0.561212 9.22888,1.418084 0.44744,0.400194 1.60604,0.659202 3.57705,0.799671 l 2.91526,0.207756 -2.87148,0.06057 c -2.05628,0.0434 -3.0894,-0.09207 -3.6391,-0.477133 z m 31.88571,68.851045 c 1.44036,-1.95657 3.31347,-6.06485 3.98488,-8.74 l 0.26259,-1.04626 -1.39732,0.84691 c -2.89444,1.75428 -3.83893,2.13579 -4.73241,1.91154 -0.88629,-0.22244 -0.88956,-0.21398 -0.65888,1.70727 0.12749,1.06193 0.23323,3.17831 0.23494,4.70302 0.001,1.61143 0.1532,2.77223 0.36156,2.77223 0.19714,0 1.07224,-0.96962 1.94464,-2.15471 z m -71.46862,0.27675 c 0.79833,-0.83614 1.90941,-2.13983 2.46907,-2.89711 l 1.01755,-1.37686 -0.87434,-0.68151 c -0.6414,-0.49994 -1.34628,-0.65727 -2.64576,-0.59052 l -1.77142,0.091 -0.0172,3.48669 c -0.009,1.91768 0.0702,3.48712 0.17669,3.48763 0.10667,5.2e-4 0.84699,-0.68317 1.64532,-1.51931 z m -5.842374,-1.78853 c 1.117259,-1.37937 2.393577,-3.51451 2.393577,-4.00419 0,-0.24591 -2.882405,-2.34509 -3.220071,-2.34509 -0.138103,0 -0.350874,1.40847 -0.472834,3.12993 -0.121947,1.72145 -0.325512,3.4921 -0.452366,3.93476 -0.363136,1.26719 0.397409,0.95658 1.751694,-0.71541 z m 85.640324,-1.43083 c 1.42163,-2.11149 2.95909,-5.18732 3.48659,-6.97526 0.28216,-0.95644 -0.0648,-1.00722 -1.83333,-0.26828 -0.70629,0.2951 -2.08656,0.53656 -3.06728,0.53656 -1.56004,0 -1.75017,0.0783 -1.5198,0.62599 0.14483,0.34429 0.3437,2.35638 0.44193,4.47132 0.11681,2.51358 0.31854,3.84534 0.58263,3.84534 0.22222,0 1.08138,-1.00605 1.90926,-2.23567 z m -91.386356,0.45271 c 1.390883,-1.22431 3.847137,-4.48025 3.847137,-5.09968 0,-0.1114 -0.764601,-0.2699 -1.699103,-0.35236 -0.934515,-0.0825 -1.967696,-0.27116 -2.295965,-0.41932 -0.507661,-0.22915 -0.631947,0.042 -0.831577,1.8145 -0.129112,1.14615 -0.446498,2.8485 -0.705358,3.783 -0.25886,0.93452 -0.349982,1.69912 -0.202483,1.69912 0.147499,0 0.9968,-0.64137 1.887349,-1.42526 z M 203.7727,135.41755 c 1.02454,-1.77171 2.2151,-4.91728 2.53853,-6.70698 l 0.22627,-1.25198 h -2.42434 -2.42432 l 0.45005,2.14624 c 0.24753,1.18043 0.45341,3.31326 0.45752,4.7396 0.004,1.42636 0.0726,2.59337 0.15231,2.59337 0.0796,0 0.54048,-0.6841 1.02398,-1.52025 z m -11.68853,-4.3913 c 0.94016,-1.85663 1.61291,-3.47217 1.49499,-3.59007 -0.11789,-0.11789 -0.57766,-0.02 -1.02166,0.21765 -0.444,0.23762 -1.55655,0.41516 -2.47234,0.39453 l -1.66507,-0.0375 0.46687,2.22781 c 0.25678,1.22531 0.47022,2.85116 0.47432,3.61303 0.0108,1.9599 0.61982,1.32768 2.72289,-2.82543 z m 6.66917,-0.79298 c 0.80535,-1.62527 1.39757,-3.01439 1.316,-3.08693 -0.0815,-0.0726 -1.32451,-0.21232 -2.76215,-0.31065 -2.25167,-0.154 -2.58458,-0.10248 -2.40248,0.3721 0.38382,1.00023 0.96297,5.91643 0.7984,6.77735 l -0.16151,0.84484 0.87373,-0.82083 c 0.48054,-0.45145 1.53265,-2.15059 2.33801,-3.77588 z M 8.7121995,118.4391 c 0.013519,-2.90155 -0.067868,-3.34052 -0.6768992,-3.66648 -1.29004,-0.69042 -3.4628826,-0.43997 -4.6183755,0.53232 -1.3651549,1.14869 -2.69849805,3.85951 -2.42816019,4.93666 0.21688139,0.86411 2.55728579,2.38669 3.67351789,2.38984 0.366692,0.001 1.1496119,0.29959 1.7398234,0.66343 l 1.073118,0.66152 0.6109912,-1.11054 c 0.4475121,-0.81342 0.6150064,-1.99248 0.6259844,-4.40675 z m -5.6060903,0.076 c 0.296985,-0.59069 0.8705269,-1.37314 1.2745601,-1.73877 0.630554,-0.57065 0.9270252,-0.60966 2.0934285,-0.27541 1.0338706,0.29625 1.1021986,0.3547 0.2857096,0.24437 -0.8738392,-0.11803 -1.3628565,0.13249 -2.6333876,1.34939 -1.4633072,1.40152 -1.5267141,1.42764 -1.0203106,0.42042 z M 83.03317,108.46289 c -0.118838,-0.11884 -0.427382,-0.13155 -0.685606,-0.0283 -0.285358,0.11424 -0.200591,0.19896 0.216111,0.21612 0.377088,0.0155 0.588359,-0.069 0.469495,-0.18787 z M 79.314564,107.2851 C 73.92595,105.15874 69.59857,102.29763 65.933529,98.438015 58.443835,90.550682 54.954481,81.097374 53.80349,65.575426 c -0.218828,-2.951071 -0.454705,-5.538763 -0.524168,-5.750399 -0.06949,-0.211649 -1.792037,-0.596863 -3.827926,-0.85602 -2.035889,-0.259171 -4.164495,-0.603704 -4.730209,-0.765642 -0.693758,-0.198589 -1.334168,-0.133709 -1.967386,0.199266 l -0.9388,0.493695 0.894267,0.177634 c 4.073184,0.809066 7.368248,1.75533 7.952038,2.283662 1.159278,1.049121 1.354014,1.714988 1.729237,5.912877 0.755773,8.455413 2.340364,14.678934 5.184211,20.361126 3.69496,7.382795 9.659009,13.890155 16.006487,17.464665 2.294884,1.29234 6.921493,3.20038 7.760275,3.20038 0.295106,0 -0.61702,-0.45521 -2.026952,-1.01157 z m 22.161616,-0.17324 c 6.04228,-1.80985 10.87584,-4.75689 15.10386,-9.208843 6.25036,-6.581421 9.85762,-14.561606 11.08563,-24.524283 1.07914,-8.754723 2.34456,-11.648647 5.87563,-13.437181 4.28419,-2.169977 8.13979,-0.710698 11.01645,4.169552 0.15213,0.258075 0.85904,0.575718 1.57093,0.705871 l 1.29434,0.236647 0.23387,-1.76305 c 0.5851,-4.410714 2.83602,-8.773515 6.29558,-12.202247 2.91056,-2.884636 5.97558,-4.697208 10.37684,-6.136613 4.66609,-1.526011 11.04573,-1.808016 16.01272,-0.707845 8.38943,1.858241 14.87503,6.725255 18.66704,14.008371 3.60396,6.921952 4.10774,14.728478 1.59166,24.663723 -0.47219,1.864502 -0.85852,3.495911 -0.85852,3.625348 0,0.129382 0.3958,0.494682 0.87954,0.811635 l 0.87953,0.5763 0.71561,-2.413113 c 1.27615,-4.303368 1.87252,-8.721279 2.07689,-15.385765 l 0.20038,-6.533953 2.67938,-0.778526 2.67939,-0.778526 -0.1752,-6.06892 c -0.15294,-5.297614 -0.25669,-6.128501 -0.81636,-6.53774 -2.61636,-1.913131 -16.24655,-5.560448 -26.62796,-7.125409 -4.48663,-0.676344 -12.32687,-0.662892 -16.33699,0.02799 -1.74723,0.301041 -6.39613,1.423911 -10.3309,2.495271 -8.60992,2.344312 -12.44513,3.038854 -16.76962,3.036948 -6.21038,-0.0027 -12.42148,-1.378634 -26.8168,-5.940484 -15.52216,-4.91897 -23.287127,-5.913539 -36.182024,-4.634382 -4.779921,0.474159 -28.254593,3.564495 -30.315588,3.990917 l -0.983686,0.203524 v 7.63384 7.633841 l 0.983686,0.193357 c 0.541028,0.106399 2.754334,0.460032 4.918457,0.785948 2.164122,0.325917 4.053026,0.774836 4.197564,0.997598 0.144552,0.222762 0.266999,1.370833 0.272109,2.551256 0.0142,3.263671 0.957201,11.47876 1.757805,15.312593 2.366429,11.332144 7.469604,19.64022 15.57901,25.36302 3.036488,2.14284 4.878574,3.1018 8.419667,4.38312 4.483463,1.62233 6.833575,1.96645 12.519715,1.83329 4.33491,-0.10154 5.703025,-0.27614 8.330365,-1.06312 z M 85.102993,105.24532 C 74.554354,102.89411 65.931231,96.011179 61.489137,86.396853 58.557494,80.051701 57.337472,72.500136 58.044966,65.078526 c 1.246101,-13.071692 6.913286,-20.222762 18.288662,-23.07737 11.362261,-2.85131 24.941522,-1.538679 34.158882,3.301945 2.93881,1.543343 6.74962,5.009768 8.65207,7.870163 1.71361,2.576457 3.45576,7.197198 4.2714,11.329044 0.93054,4.713986 0.85837,12.246632 -0.1569,16.37375 -2.93889,11.946876 -10.79158,20.229022 -22.50062,23.731152 -4.038118,1.20777 -11.698781,1.52003 -15.655467,0.63811 z m 11.903234,-1.42691 c 3.432733,-0.70733 7.411453,-2.22521 10.447823,-3.985836 3.36964,-1.953865 9.0728,-7.780406 11.0455,-11.284442 10.4281,-18.523082 0.88379,-39.519706 -20.640804,-45.407896 -3.986699,-1.090586 -11.863541,-1.088571 -16.257653,0.0041 -10.513353,2.614487 -17.641533,8.763727 -20.460342,17.650455 -3.764762,11.868949 -0.444619,24.789173 8.726981,33.960786 7.719528,7.719513 17.616954,11.024703 27.138495,9.062753 z m -9.036133,-0.54554 C 80.992522,102.2565 73.01454,97.700074 68.384767,92.087184 63.020462,85.583798 60.456024,78.420963 60.493838,70.046749 c 0.01703,-3.76921 0.17032,-4.975334 0.976291,-7.681065 1.185114,-3.978574 2.571792,-6.617329 4.964734,-9.447575 3.655469,-4.323473 8.427319,-7.183976 14.798064,-8.870762 5.059236,-1.339536 11.636588,-1.332668 16.741912,0.01744 11.760021,3.110048 20.552731,11.575628 23.099881,22.240467 1.02369,4.286131 0.84299,11.525416 -0.38358,15.366892 -3.68024,11.526078 -13.52514,19.969244 -25.220239,21.629314 -2.894978,0.41094 -4.525671,0.40471 -7.500807,-0.0287 z m 8.955367,-1.76623 c 9.680199,-1.71457 17.033519,-7.2156 21.253379,-15.899683 2.10596,-4.333883 2.86885,-7.590582 2.86554,-12.232617 -0.009,-13.198195 -8.73437,-24.03303 -22.354125,-27.759869 -3.797073,-1.039022 -12.350381,-1.121126 -15.874629,-0.152393 -5.603711,1.540315 -9.519162,3.686023 -12.905456,7.072317 -2.695267,2.695267 -4.317673,5.26683 -5.669646,8.986571 -0.884749,2.434244 -0.951861,3.023874 -0.929621,8.168081 0.02136,4.949295 0.126679,5.881876 0.981307,8.688072 1.911319,6.27622 4.803188,10.923798 9.65452,15.515986 6.387671,6.046464 15.249307,8.982585 22.978731,7.613535 z m -6.82015,-0.59507 C 86.171136,100.3675 81.207199,98.382422 77.520743,95.878998 74.906161,94.103469 70.482333,89.430664 68.882424,86.7545 59.383068,70.864914 63.863598,53.322439 78.906245,47.508661 c 8.289987,-3.203969 17.845976,-2.688385 25.980865,1.401766 14.93474,7.509027 19.93116,25.569424 10.92527,39.491112 -5.54948,8.578617 -16.301201,13.810811 -25.707069,12.510031 z m 7.332976,-6.139286 c 0,-1.662627 1.03867,-4.598164 2.053816,-5.804598 1.225567,-1.456507 3.239757,-2.328427 6.120837,-2.649612 l 2.27249,-0.253343 -0.22085,-1.104268 c -0.98193,-4.909601 -0.53555,-6.509798 2.84886,-10.212883 1.76163,-1.927516 1.9895,-2.324357 1.49396,-2.601684 -1.47599,-0.825994 -3.72477,-2.775479 -4.45983,-3.86624 -1.06531,-1.580792 -1.05044,-3.709737 0.0508,-7.278843 l 0.85964,-2.786064 -2.2011,0.282127 c -3.35695,0.430288 -6.838195,0.273771 -8.563146,-0.384984 -2.101365,-0.802524 -3.58994,-2.43323 -5.40738,-5.923666 -1.738714,-3.339232 -1.606993,-3.367218 -3.607393,0.76625 -2.416493,4.993234 -5.609443,7.069668 -10.890063,7.081984 -3.219381,0.0081 -3.437817,0.198116 -2.563788,2.237169 1.069183,2.494298 1.498728,5.357519 1.110702,7.403575 -0.520653,2.745438 -1.177976,3.988011 -3.351657,6.335837 -1.108891,1.197742 -2.016177,2.259003 -2.016177,2.358372 0,0.09937 0.603636,0.29297 1.341401,0.430234 3.706059,0.689518 6.73864,3.024203 8.490509,6.536554 0.934827,1.874249 1.954434,5.850619 1.966182,7.667964 l 0.0068,0.960486 2.951085,-1.362464 c 3.62432,-1.673294 4.970047,-1.947985 6.470993,-1.320851 1.128291,0.471428 4.528456,3.908826 4.528456,4.578046 0,0.187071 0.160978,0.240649 0.357715,0.119108 0.196738,-0.121541 0.357702,-0.665259 0.357702,-1.208152 z m -8.679933,-9.017963 c -3.491382,-0.82256 -6.545743,-3.30953 -8.206652,-6.68216 -1.068387,-2.169463 -1.177571,-2.690913 -1.177571,-5.62422 0,-2.926208 0.110726,-3.458056 1.166011,-5.603724 1.356381,-2.757714 3.310828,-4.666167 6.074261,-5.931304 7.141916,-3.269688 15.522577,0.79721 17.471807,8.478558 2.31781,9.133803 -6.072597,17.543358 -15.327856,15.36285 z M 13.831422,106.03656 c 1.227079,-1.94238 2.51697,-7.556243 2.310567,-10.056124 -0.08125,-0.983686 -0.507053,-2.744289 -0.946305,-3.912437 -0.609531,-1.620999 -0.77113,-2.701093 -0.682482,-4.561552 0.06395,-1.340712 0.03569,-2.431202 -0.06273,-2.423307 -0.332961,0.02677 -2.676732,3.187989 -3.702815,4.994356 l -1.0200267,1.795686 0.5920097,6.337757 c 0.561685,6.012981 1.365777,9.396231 2.232761,9.394311 0.158612,-3.5e-4 0.734169,-0.70627 1.278995,-1.56869 z M 7.574282,94.998021 C 7.5575177,92.361375 7.4301496,90.901704 7.2543002,91.331533 7.0936198,91.724318 6.7176533,92.609054 6.4188432,93.297647 L 5.8755311,94.549616 6.0810155,92.582231 C 6.3595327,89.915599 7.6387705,87.212639 9.5034879,85.350761 10.355331,84.500202 15.881317,80.343102 21.78346,76.112735 27.685616,71.882372 34.942692,66.6541 37.910311,64.494358 l 5.395658,-3.926821 -1.997453,-0.538161 c -1.778368,-0.479148 -2.044285,-0.675304 -2.424402,-1.788534 -0.234822,-0.687702 -0.43602,-2.873456 -0.447133,-4.857227 -0.01082,-1.983784 -0.123299,-3.709939 -0.249234,-3.835915 -0.310059,-0.310058 -13.1351,6.225639 -16.403692,8.359397 -1.904722,1.243411 -2.998133,2.277078 -4.013739,3.794383 -2.020031,3.017912 -3.52706,5.724481 -2.935754,5.27248 0.280613,-0.214501 4.373415,-3.354428 9.095134,-6.977626 11.026921,-8.461483 11.285213,-8.652069 11.472054,-8.465214 0.08653,0.08653 -0.688634,0.86593 -1.722599,1.731995 -1.033952,0.866079 -4.294433,3.670544 -7.245504,6.232156 -5.409123,4.695275 -9.495651,7.956742 -13.771684,10.991243 -2.8949916,2.054424 -5.3153104,4.387461 -6.8605734,6.613178 -1.1412161,1.64374 -1.1830052,1.823118 -1.0653307,4.572508 0.1926678,4.501012 0.1835286,5.186212 -0.1096439,8.227229 -0.1783911,1.85013 -0.1353582,3.367421 0.1216764,4.292472 0.3704505,1.333005 2.3827614,5.186739 2.7083673,5.186739 0.080171,0 0.1331681,-1.971278 0.1177557,-4.380619 z M 7.008906,84.399522 c 0.2771382,-1.091829 0.2295492,-1.622879 -0.2240333,-2.500004 -0.5566018,-1.076362 -0.5389181,-1.186953 0.5277781,-3.30007 1.2734514,-2.522702 1.6466193,-2.648205 0.7898419,-0.265633 -0.5061467,1.407584 -0.5247091,1.84451 -0.1292474,3.042968 0.4175393,1.265151 0.3866064,1.543722 -0.3225235,2.904213 -0.4313968,0.827642 -0.8314687,1.504825 -0.8890622,1.504825 -0.057593,0 0.053673,-0.623834 0.2471788,-1.386299 z m 11.484817,-8.169248 c 0.354768,-0.405628 3.413157,-2.719183 6.796409,-5.141259 7.807541,-5.589407 12.812712,-9.35448 13.439467,-10.109671 0.537417,-0.647548 1.302924,-0.821518 0.925132,-0.21023 -0.258494,0.418243 -17.153448,13.077344 -20.017507,14.998763 -1.128089,0.756813 -1.550346,0.927552 -1.143501,0.462397 z m 180.816937,6.899068 c 1.13166,-3.357024 1.96057,-9.188449 1.68165,-11.830557 -1.46723,-13.898295 -12.77503,-24.850223 -26.32063,-25.492268 -12.38103,-0.586832 -23.07579,7.315427 -25.19598,18.617093 -0.42952,2.289544 0.39885,1.479761 1.08705,-1.06264 1.75908,-6.498533 5.73084,-11.325948 11.67958,-14.195753 8.3006,-4.004396 16.89498,-3.511364 25.07377,1.438418 3.02315,1.829593 7.3069,6.185702 9.17301,9.327954 4.2579,7.169658 4.74401,16.839767 1.27065,25.277121 -0.20439,0.496494 -0.14458,0.632461 0.22635,0.514583 0.27727,-0.08815 0.87332,-1.255403 1.32455,-2.593951 z m -0.42178,-4.105108 c 0.4393,-1.96583 0.54162,-3.624563 0.39715,-6.438708 -0.32954,-6.418794 -2.48525,-11.694911 -6.5896,-16.127973 -6.45454,-6.971516 -15.81896,-9.950302 -24.66601,-7.846207 -5.1589,1.226944 -10.91818,5.312877 -13.50427,9.580622 -1.69796,2.802058 -3.39909,7.997085 -2.55886,7.814395 0.18508,-0.04029 0.83812,-1.532473 1.45118,-3.31606 1.89972,-5.526865 4.88892,-8.959991 10.04518,-11.536975 5.65896,-2.828219 12.16683,-3.172752 18.47729,-0.978183 3.67333,1.277453 6.18158,2.903455 9.42186,6.107761 2.37987,2.353465 3.20256,3.479066 4.57528,6.259858 3.1961,6.474535 3.53584,12.317989 1.13297,19.486069 -0.46145,1.376539 -0.74281,2.658426 -0.62524,2.848647 0.33693,0.545164 1.79255,-2.942283 2.44307,-5.853246 z m -7.94719,-0.09694 c 1.20062,-0.427679 2.24446,-0.82452 2.31961,-0.88187 0.0752,-0.05732 -0.67189,-0.988932 -1.66011,-2.070202 -2.85546,-3.124325 -3.15298,-6.035892 -1.19756,-11.719436 l 0.65358,-1.899625 h -3.61646 c -4.61084,0 -5.73709,-0.552843 -9.87651,-4.847965 l -3.04069,-3.155082 -1.13289,2.034145 c -3.18558,5.719817 -6.09613,7.165089 -15.2378,7.566527 -0.15087,0.0068 0.12154,0.793248 0.60539,1.748056 l 0.87971,1.735998 2.90463,0.199089 2.90465,0.19909 1.38454,-1.502054 c 3.42573,-3.71647 8.78179,-4.579358 13.26818,-2.137557 4.17414,2.271847 6.26358,7.259618 5.22675,12.476912 -0.2783,1.4004 -0.24898,1.461279 1.07312,2.227448 1.69072,0.97981 1.86291,0.98081 4.54186,0.0265 z m 15.77579,-14.246046 c 0.12154,-0.196737 0.0602,-0.357701 -0.13663,-0.357701 -0.19673,0 -0.45719,0.160964 -0.57878,0.357701 -0.12155,0.196737 -0.0602,0.357702 0.13662,0.357702 0.19674,0 0.4572,-0.160965 0.57879,-0.357702 z m -64.20823,-1.031491 c 0,-0.266498 -2.68327,-2.903279 -2.95446,-2.903279 -0.0499,0 -0.61596,-0.150622 -1.25786,-0.334705 -0.87508,-0.250978 -1.10453,-0.228603 -0.91708,0.08936 1.50186,2.547998 1.97082,3.069801 2.88254,3.207349 1.80566,0.27242 2.24686,0.260874 2.24686,-0.05881 z M 42.998019,49.784171 c -0.06043,-3.775793 -0.215853,-6.97065 -0.345358,-7.099694 -0.129517,-0.129113 -0.894091,0.201252 -1.699102,0.733979 l -1.463645,0.968598 0.0041,5.586338 c 0.0027,3.072477 0.101802,6.178537 0.221532,6.902335 l 0.217611,1.316025 1.587458,-0.771253 1.587471,-0.771252 z" /></g></svg>
