<?xml version="1.0" encoding="UTF-8" standalone="no"?>
<svg
   width="1024"
   height="1024"
   viewBox="0 0 1024 1024"
   version="1.1"
   id="svg190"
   sodipodi:docname="logo (Copy 2).svg"
   inkscape:version="1.4.3 (fcd0343856, 2026-01-01)"
   xmlns:inkscape="http://www.inkscape.org/namespaces/inkscape"
   xmlns:sodipodi="http://sodipodi.sourceforge.net/DTD/sodipodi-0.dtd"
   xmlns="http://www.w3.org/2000/svg"
   xmlns:svg="http://www.w3.org/2000/svg">
  <defs
     id="defs190" />
  <sodipodi:namedview
     id="namedview190"
     pagecolor="#505050"
     bordercolor="#eeeeee"
     borderopacity="1"
     inkscape:showpageshadow="0"
     inkscape:pageopacity="0"
     inkscape:pagecheckerboard="0"
     inkscape:deskcolor="#505050"
     inkscape:zoom="0.42724609"
     inkscape:cx="498.54171"
     inkscape:cy="750.15314"
     inkscape:window-width="2048"
     inkscape:window-height="1083"
     inkscape:window-x="0"
     inkscape:window-y="0"
     inkscape:window-maximized="1"
     inkscape:current-layer="svg190" />
  <path
     fill="#F7F7F5"
     d="M0 0L1024 0L1024 1024L0 1024L0 0Z"
     id="path1" />
  <path
     fill="#010101"
     d="M313.631 170.942C316.638 168.46 327.693 161.137 331.061 160.15C335.433 158.868 344.999 157.82 349.915 157.136C365.248 155.008 380.596 153 395.96 151.11C417.536 148.31 448.081 144.101 469.809 144.123C500.637 144.847 530.713 153.703 559.969 162.757C590.051 172.068 620.36 183.62 652.4 181.125C662.79 180.316 674.51 176.81 684.561 174.054C695.317 171.081 706.105 168.224 716.923 165.484C746.194 158.28 769.871 159.412 799.235 164.87C828.539 170.317 850.867 175.229 877.604 188.47C878.014 203.676 878.295 218.885 878.45 234.097C873.725 238.714 866.828 243.629 861.51 248.186C861.272 273.878 858.066 295.16 850.149 319.469C863.324 330.811 855.552 346.393 862.008 361.926C866.483 372.691 873.996 381.592 881.508 390.385C881.44 397.148 880.917 407.575 882.358 413.985C887.059 434.899 897.75 442.793 879.206 461.242C874.948 485.764 867.355 503.166 850.778 522.107C851.978 513.334 853.058 504.976 853.365 496.118C848.389 507.819 840.232 519.636 830.033 527.324C831.865 520.165 832.348 516.515 832.613 509.123C832.525 508.039 832.872 505.326 831.702 505.177C827.472 518.857 821.799 528.227 810.986 537.55C811.343 525.28 811.389 518.965 810.128 506.736C805.24 520.837 800.498 531.87 788.717 541.679C790.3 530.078 790.185 523.658 789.116 512.372C783.076 525.746 778.361 534.187 767.193 544.19C769.011 532.808 770.573 521.5 769.011 509.91C764.227 519.019 756.101 528.246 747.361 533.614C745.962 524.618 746.631 515.885 745.591 507.246C739.578 515.945 736.385 519.618 727.235 524.686C728.385 516.412 729.33 512.387 727.23 504.057C713.866 513.361 712.073 515.168 703.097 529.13C700.944 523.284 700.429 517.751 700.453 511.531C698.618 513.166 690.115 520.738 688.056 521.003C687.549 520.003 687.261 519.377 686.849 518.335C684.532 518.856 682.143 523.249 679.194 522.751C678.29 521.346 678.928 509.699 678.912 506.94C675.154 512.362 671.507 516.478 666.389 520.707C670.994 531.384 675.937 542.363 676.68 554.132C678.124 556.051 676.115 560.434 677.696 563.398C678.454 560.853 680.22 553.725 681.36 551.911L681.999 551.875C685.343 556.903 686.135 571.993 686.711 578.615C689.195 572.224 691.207 567.25 692.606 560.483C697.04 572.073 698.794 585.353 698.634 597.721C701.031 591.622 703.004 585.195 704.934 578.922C709.237 590.277 709.9 602.506 710.331 614.535C714.356 607.272 714.939 600.536 716.859 592.635C721.272 603.636 723.674 617.248 723.642 629.08C727.265 621.278 728.833 615.158 731.088 606.931C737.889 619.547 739.554 633.75 739.923 647.895C743.195 641.988 745.056 631.536 746.393 624.693C753.443 636.868 754.551 645.88 756.029 659.888C758.526 651.85 759.675 646.708 760.386 638.257L760.517 636.948L761.052 636.833L762.386 638.814C766.926 648.145 769.477 656.881 771.215 667.124L771.963 667.592C775.974 657.636 776.291 654.055 778.285 643.394C785.441 656.015 787.231 669.218 787.814 683.343C791.857 676.02 793.979 666.041 796.032 657.877C807.733 675.845 809.043 690.235 806.169 710.845C808.424 713.648 809.707 718.742 810.352 722.276C812.605 734.607 799.797 737.992 793.88 746.206C790.667 750.666 789.426 756.724 787.745 761.903C783.4 776.74 776.703 785.191 762.902 792.349C746.316 801.215 727.437 805.145 708.755 802.178C704.203 801.455 700.126 800.254 695.682 798.988C681.595 794.975 669.857 787.065 656.93 780.581C635.379 769.772 614.377 757.783 592.798 747.026C576.206 738.754 558.91 730.253 541.2 724.66C538.526 737.927 535.495 753.46 534.826 767.123C533.068 802.978 537.999 840.079 542.08 875.651C543.049 884.097 544.845 892.377 545.785 900.734C535.618 904.016 523.154 906.072 512.56 907.855C488.783 911.894 464.793 914.56 440.709 915.837C391.263 918.506 339.232 917.185 289.487 916.81L240.249 916.471C230.057 916.426 220.35 916.409 209.898 915.864C197.344 916.027 188.67 897.809 196.94 888.619C202.891 882.005 222.157 880.615 231.175 878.79C239.698 877.066 252.058 873.957 260.155 873.207C257.4 865.412 256.521 860.392 254.484 852.838C249.861 835.696 226.519 845.993 214.302 838.9C207.75 835.097 206.262 829.976 204.081 823.072C193.625 813.451 178.28 815.982 172.935 799.865C169.042 790.723 172.342 779.699 182.382 775.787C200.913 768.567 221.819 766.999 240.789 760.238C239.923 756.94 235.226 741.54 233.922 739.344C229.934 732.627 209.647 733.58 201.932 731.34C192.116 728.489 192.218 721.683 187.224 713.302L186.869 712.718C176.229 707.22 160.826 709.032 157.199 694.043C155.734 687.989 155.114 680.428 158.393 674.885C159.856 672.386 162.05 670.394 164.679 669.179C169.248 667.062 177.546 666.235 182.842 665.125C194.957 662.587 207.291 660.755 219.278 657.609C216.003 647.538 219.552 645.553 218.934 637.128C213.687 631.053 186.788 644.719 184 611.057C178.802 608.732 174.256 604.13 169.53 601.746C149.017 592.602 153.958 566.274 175.255 563.949C186.205 562.753 206.449 566.222 217.909 567.527C218.23 564.037 218.874 558.728 219.738 555.354C223.523 540.591 217.027 542.604 205.429 538.374C202.758 537.376 200.153 536.207 197.632 534.874C186.14 528.786 189.621 523.636 186.129 512.961C180.976 508.108 172.568 506.472 170.195 499.609C166.631 489.062 174.689 476.933 184.569 473.247C192.113 470.433 202.547 475.995 209.629 479.14C203.735 466.453 202.293 462.389 204.293 448.421C203.008 445.759 197.658 434.109 195.844 432.598C188.342 426.348 182.898 424.527 187.726 413.352C194.231 398.294 201.359 394.325 216.958 401.018C217.36 389.347 220.178 373.957 217.767 362.901C217.479 361.578 214.993 357.263 214.178 355.827C209.986 354.341 206.188 351.736 203.54 348.273C191.934 333.101 197.64 322.046 198.121 305.21C198.23 301.414 194.816 294.942 195.637 290.002C198.003 275.771 220.122 259.72 231.102 251.457C232.404 243.727 234.544 236.313 237.808 229.178C240.122 224.119 242.937 218.404 246.976 214.483C257.558 204.212 297.654 189.877 313.455 183.975C313.432 179.523 313.433 175.405 313.631 170.942Z"
     id="path2" />
  <path
     fill="#D6D1CD"
     d="M676.68 554.132C678.124 556.051 676.115 560.434 677.696 563.398C675.952 570.988 676.658 554.349 676.68 554.132Z"
     id="path3" />
  <path
     fill="#989095"
     d="M831.702 505.177C831.828 504.49 831.904 502.968 832.634 502.701C833.445 502.932 832.712 508.326 832.613 509.123C832.525 508.039 832.872 505.326 831.702 505.177Z"
     id="path4" />
  <path
     fill="#F8EEE4"
     d="M771.215 667.124L771.963 667.592C771.747 668.009 771.733 668.177 771.373 668.424C770.921 668.313 771.183 667.387 771.215 667.124Z"
     id="path5" />
  <path
     fill="#F8EEE4"
     d="M342.309 229.099C355.663 231.858 354.046 235.688 355.073 248.183C355.281 250.711 355.441 253.319 355.663 255.845C350.536 256.69 347.793 259.273 344.417 263.256C340.564 267.8 341.93 277.835 342.982 283.487C345.615 297.027 348.424 310.532 351.406 323.999C355.103 341.254 355.246 348.059 367.407 362.196C374.061 369.93 382.278 375.678 388.38 383.273C393.288 385.017 413.44 389.328 418.874 389.838C425.646 386.508 432.587 383.532 439.668 380.924L440.177 381.113C447.384 383.842 446.436 384.998 455.292 386.702C456.944 388.899 461.722 394.851 463.985 396.284C470.982 400.716 498.964 407.809 506.219 406.381C514.176 404.815 532.449 399.357 539.841 396.18C546.156 386.063 552.726 380.157 552.722 368.473C567.201 358.946 575.573 349.088 585.439 335.051C589.493 346.945 595.363 358.785 599.746 370.683C592.019 391.266 583.102 414.087 576.002 434.623C577.566 435.456 579.578 436.451 581.061 437.34C583.893 444.17 587.842 451.917 586.905 459.194L586.771 460.201C587.425 461.471 586.91 461.063 588.231 461.583C590.422 459.46 597.211 433.166 600.454 428.993C605.533 422.457 614.033 415.661 620.247 409.747C621.862 403.523 624.342 389.769 627.982 385.57C636.295 375.983 646.366 366.845 655.081 357.585L656.792 357.657C649.74 367.265 651.547 367.077 651.282 378.497C648.113 380.496 643.86 383.005 641.052 385.338C640.826 390.043 640.992 394.401 641.129 399.095C635.394 405.217 633.978 407.329 633.233 415.946C630.454 417.804 616.209 429.493 614.98 431.848L615.144 432.734C616.676 432.618 631.905 418.636 635.116 416.456C636.345 408.641 638.104 405.024 643.519 399.102C643.741 395.044 643.856 390.863 644.621 386.883C647.92 384.355 650.925 382.119 654.342 379.759C654.113 365.738 655.965 366.5 662.421 354.918C661.191 342.392 660.562 328.163 658.869 316.001C657.549 306.515 647.349 296.534 639.388 292.359C637.173 291.109 634.787 288.094 632.487 286.751C625.257 283.814 615.801 282.365 608.293 280.192C609.915 272.044 610.371 264.715 611.553 256.654C613.599 260.414 616.123 266.007 618.222 269.26C627.121 270.217 636.369 271.086 645.214 272.279C646.476 276.22 647.195 278.978 649.475 282.469C654.183 282.007 661.021 281.939 665.837 282.095C675.636 288.088 694.903 303.25 703.979 306.648C700.398 302.056 671.323 282.289 664.755 277.714C660.684 278.299 656.104 278.369 651.962 278.468C650.926 274.669 650.021 271.879 648.679 268.17C639.68 267.373 630.615 266.422 621.609 265.851C618.426 260.013 616.111 256.609 612.51 251.09C614.024 245.21 615.887 239.296 618.747 233.912L619.499 234.185C626.196 236.583 638.445 239.028 645.573 240.659C660.02 244.09 674.487 247.433 688.974 250.689C697.659 252.625 707.754 254.5 716.216 256.786C723.463 258.743 733.891 264.834 741.224 268.051C760.937 276.7 780.863 286.095 799.943 296.046C808.603 300.562 817.889 307.724 826.295 312.933C832.25 316.622 845.983 324.892 848.926 330.879C853.201 339.576 849.693 355.83 852.672 365.248C855.891 375.526 868.262 382.011 873.432 390.154C877.695 396.87 874.003 412.167 875.094 420.113C876.057 427.134 886.714 443.976 879.818 448.999C878.057 449.314 874.377 447.875 871.767 447.436C870.4 436.01 865.611 438.573 856.524 440.999C852.759 439.882 850.667 438.79 847.29 436.725C839.181 437.495 832.894 439.122 825.774 435.093C811.458 442.622 812.384 442.324 796.27 438.896C793.294 440.703 785.149 446.428 781.876 445.045C771.409 440.622 764.924 448 756.514 452.808C745.791 451.817 739.993 450.094 731.325 457.445C729.345 459.125 725.756 461.535 723.378 462.497C719.887 460.875 718.161 460.051 714.305 459.24C709.216 461.375 705.894 464.629 701.143 466.888C686.384 457.893 683.877 464.849 671.31 470.007C652.382 459.018 654.542 468.934 639.241 473.714C636.553 472.72 633.218 471.356 630.484 470.721C622.603 472.844 621.218 475.645 614.37 477.766C610.026 479.111 602.6 472.646 598.607 473.702C595.375 474.557 592.378 476.389 588.623 477.39C585.969 474.81 579.529 469.008 575.951 469.873C563.53 472.877 563.58 466.478 554.182 462.041C542.133 465.25 540.925 464.656 530.05 458.517C525.646 458.524 522.223 459.001 517.881 459.544L517.289 459.298C511.259 456.72 510.027 453.298 504.539 451.025C501.233 449.656 494.672 450.997 491.599 450.404C486.168 449.355 479.76 444.739 474.617 442.228C468.879 433.863 461.99 430.576 452.413 428.057C417.347 418.836 373.531 417.631 342.299 437.559C335.135 434.353 327.225 430.642 319.561 428.467C296.998 422.066 270.154 422.414 247.923 430.237C238.716 433.477 233.98 438.738 226.333 444.333C223.734 446.234 220.884 447.876 218.337 449.838C222.34 448.527 229.044 445.753 232.629 444.925C242.727 442.595 263.88 441.22 273.218 446.067C279.917 449.597 285.468 453.701 292.459 456.781C300.814 460.461 328.894 462.578 332.177 472.448C335.142 481.36 320.866 492.977 314.255 497.28L313.734 497.497C311.2 498.219 301.345 488.736 298.495 486.421C280.904 472.134 257.761 466.501 235.462 466.693C231.212 470.907 225.826 475.334 221.935 479.547C222.179 480.313 222.483 480.978 222.846 481.692L222.29 482.56C215.522 485.439 210.883 469.292 209.559 464.591C216.838 466.03 220.675 467.497 227.516 463.175C231.217 460.838 232.955 459.605 235.796 456.261C238.624 456.113 240.55 455.977 243.375 455.573L243.929 454.79L244.062 455.409L244.913 455.088L244.541 454.746C240.894 454.297 238.636 454.709 234.994 455.143C230.323 460.611 226.729 461.124 220.699 465.447C216.528 464.757 212.317 463.528 208.307 462.216C207.998 457.425 207.935 453.841 208.714 449.06C212.524 444.924 213.069 442.159 215.941 438.337C225.326 425.85 231.482 412.04 238.416 398.155C240.619 393.744 244.338 387.145 245.753 382.578C248.66 373.199 247.599 362.841 253.964 354.483C255.367 352.568 257.329 348.762 258.643 346.523C256.61 340.256 255.262 333.213 253.377 326.814C250.594 317.371 247.499 308.049 244.625 298.634C249.973 294.626 255.228 290.496 260.386 286.246C260.739 289.662 261.102 296.011 262.748 298.872C264.023 296.516 263.189 287.66 263.019 284.511C274.669 275.626 287.714 267.157 299.521 258.267C305.541 253.734 311.437 250.077 317.371 245.126C317.846 244.687 317.858 244.649 318.435 244.356C323.365 240.256 336.519 231.697 342.309 229.099Z"
     id="path6" />
  <path
     fill="#010101"
     d="M317.219 248.075C318.259 249.822 317.898 250.688 318.087 252.77C317.883 258.943 320.387 262.273 324.319 266.676C324.378 268.85 323.911 270.534 324.776 272.706C325.301 274.025 325.455 274.526 324.717 275.732C323.986 275.943 323.736 275.153 323.581 274.501L323.089 272.489C321.819 266.668 318.457 265.278 314.985 260.39C315.564 256.256 316.519 252.188 317.219 248.075Z"
     id="path7" />
  <path
     fill="#171311"
     d="M317.371 245.126C317.846 244.687 317.858 244.649 318.435 244.356C318.498 247.646 318.681 249.504 318.087 252.77C317.898 250.688 318.259 249.822 317.219 248.075C317.248 247.084 317.334 246.129 317.371 245.126Z"
     id="path8" />
  <path
     fill="#010101"
     d="M309.452 253.528C310.441 254.894 309.635 261.948 311.422 265.441C313.262 269.039 318.951 272.853 319.791 275.328C322.489 283.277 324.504 302.414 324.973 310.234C325.102 312.389 318.103 330.221 317.047 333C319.624 343.884 321.667 352.594 324.836 363.438C311.529 373.702 296.42 383.53 283.598 393.825C281.548 388.405 279.674 382.92 277.979 377.379C279.858 371.229 284.352 359.404 284.461 353.446C284.546 348.778 268.999 292.661 266.489 287.048C278.949 276.406 296.244 263.655 309.452 253.528Z"
     id="path9" />
  <path
     fill="#010101"
     d="M742.941 317.524C754.268 317.191 753.356 318.285 763.097 323.566C778.174 331.721 792.989 335.907 800.348 352.948C802.593 358.148 819.767 380.282 812.485 384.837C805.21 382.961 800.353 382.571 792.893 381.836C789.105 379.051 784.378 375.157 780.252 373.128C768.573 367.374 754.683 365.148 746.495 354.059C741.93 347.877 739.789 342.726 740.707 334.854C741.385 329.039 742.194 323.28 742.941 317.524Z"
     id="path10" />
  <path
     fill="#010101"
     d="M708.812 328.095L710.071 328.668C710.822 331.832 708.43 342.327 709.394 344.733C717.373 364.655 722.729 379.155 726.961 400.43C711.798 416.437 714.943 406.038 709.078 430.368C708.634 432.27 708.158 435.427 706.627 436.522C706.271 434.4 707.258 429.655 707.597 427.252C708.545 420.176 709.621 413.117 710.824 406.079C713.155 392.295 715.081 387.546 709.287 374.122C706.489 367.64 704.267 352.736 704.62 345.656C704.779 342.453 707.855 331.734 708.812 328.095Z"
     id="path11" />
  <path
     fill="#010101"
     d="M684.641 263.706C690.442 263.041 700.841 263.69 707.538 263.452C711.448 267.172 716.509 273.262 720.702 277.529L733.913 277.517L746.571 287.493L758.741 287.478C761.718 290.459 764.793 292.72 768.208 295.151C771.051 294.522 779.552 292.013 781.627 293.204L781.386 294.316C776.592 295.916 770.376 297.48 765.39 298.969C762.476 296.913 759.022 293.251 755.646 290.656L747.292 290.24C742.176 287.004 736.541 281.629 730.449 281.276C726.368 281.039 723.245 280.898 719.117 280.38C714.318 275.344 707.316 267.835 700.497 266.193C695.874 265.08 689.005 266.264 684.641 263.706Z"
     id="path12" />
  <path
     fill="#010101"
     d="M368.049 403.445C370.878 404.175 374.288 405.676 377.074 406.801C387.963 405.335 391.576 404.552 402.487 408.214C405.561 409.246 407.711 409.599 410.808 411.241L410.823 411.771C405.154 412.96 397.251 407.965 390.255 408.298C383.978 408.597 383.579 408.917 377.261 410.721C374.468 409.466 371.276 407.78 368.509 406.392C363.877 408.437 359.262 410.521 354.665 412.643L352.446 413.508C346.024 412.351 339.615 411.124 333.221 409.828C327.588 411.403 320.443 414.861 314.817 415.265L314.362 414.82C317.039 411.657 326.681 407.596 330.666 405.951C337.489 407.778 343.778 409.596 350.768 410.736C355.731 409.037 363.065 405.619 368.049 403.445Z"
     id="path13" />
  <path
     fill="#010101"
     d="M827.738 344.806C831.46 347.27 839.165 367.793 841.803 372.973C842.339 374.024 842.495 382.139 842.545 384.06C846.091 387.983 850.672 392.785 855.132 395.591C854.55 399.226 853.425 403.241 852.505 406.847C853.761 409.207 856.449 413.016 858.017 415.369C856.16 420.718 851.592 427.224 848.51 432.249C847.988 432.021 848.322 432.204 847.639 431.508C847.865 429.288 853.827 420.903 855.644 416.414C853.477 413.116 851.682 410.95 848.894 408.217C850.779 404.322 851.496 402.485 852.834 398.363C848.892 393.722 844.107 389.171 839.767 384.837C839.703 382.111 839.661 377.502 839.155 374.928C837.418 366.099 829.426 353.249 827.738 344.806Z"
     id="path14" />
  <path
     fill="#010101"
     d="M273.473 341.716L274.65 342.286C276.119 345.437 277.149 349.563 277.863 352.973C273.967 359.999 270.196 367.093 266.553 374.252C266.687 377.16 267.299 381.984 267.294 384.771C267.284 390.285 263.169 405.879 260.674 410.483C260.389 410.156 259.636 409.238 259.726 408.746C261.03 401.629 264.472 393.547 265.322 386.515C265.542 384.696 263.087 376.328 262.469 374.056C265.258 365.74 271.512 357.132 274.604 347.745C273.998 345.369 273.768 344.149 273.473 341.716Z"
     id="path15" />
  <path
     fill="#010101"
     d="M776.115 301.58C777.687 301.595 784.253 303.049 786.259 303.464C792.584 304.773 798.196 305.897 804.611 306.725C806.321 310.174 807.827 311.626 810.384 314.42L816.93 314.708C819.8 321.327 819.983 319.949 826.665 322.668C831.336 328.918 829.816 333.234 838.885 333.617C840.562 336.105 842.158 338.186 843.242 340.98C841.343 340.451 840.113 338.869 838.922 338.459C832.077 336.103 829.457 328.132 825.33 324.739C820.571 320.826 820.032 325.235 815.028 318.234C812.234 318.072 810.12 317.801 807.36 317.419C804.972 314.331 803.028 311.735 800.862 308.497C793.964 306.626 786.497 305.857 779.587 303.952C776.891 303.209 777.147 303.445 776.115 301.58Z"
     id="path16" />
  <path
     fill="#010101"
     d="M774.232 316.007C776.59 316.385 798.657 326.259 801.633 327.805C804.025 331.868 805.405 336.114 807.065 340.531C809.126 341.272 812.828 342.193 815.014 342.799C817.501 347.076 826.712 362.729 827.065 366.44C823.636 364.575 817.682 348.889 814.435 347.382C802.716 341.941 804.083 345.073 800.464 331.278C795.373 327.19 782.144 321.999 775.992 318.318C774.417 317.375 774.54 317.366 774.232 316.007Z"
     id="path17" />
  <path
     fill="#010101"
     d="M428.423 410.252C436.757 409.25 460.07 410.077 468.708 410.479C475.912 419.494 472.705 421.379 485.622 423.846C486.982 428.027 489.376 432.358 490.171 436.666C488.46 435.522 485.318 428.599 484.065 426.255C483.02 425.929 478.427 424.504 477.586 423.956C471.535 420.018 468.359 415.561 460.612 413.875C451.332 411.856 439.127 412.471 429.568 411.284C429.186 410.94 428.805 410.596 428.423 410.252Z"
     id="path18" />
  <path
     fill="#010101"
     d="M730.868 333.197L731.687 333.516C732.887 335.233 732.467 348.806 732.534 351.903C735.51 353.869 738.46 355.873 741.385 357.915C742.496 360.361 743.146 363.46 744.359 366.018C748.606 374.973 755.12 380.345 763.853 384.65C766.062 385.739 772.103 389.1 773.664 390.548L773.693 391.741C766.428 388.852 748.098 379.072 742.747 373.68C742.48 367.479 742.088 365.152 740.342 359.197C738.25 357.516 733.128 354.627 730.613 353.122C730.394 346.826 730.84 339.633 730.868 333.197Z"
     id="path19" />
  <path
     fill="#010101"
     d="M341.899 364.875L342.448 365.543C342.112 367.918 331.952 379.456 329.72 382.163C325.807 383.715 320.918 384.879 316.789 385.984C310.734 391.754 307.501 399.15 300.228 404.484C290.402 404.491 288.416 407.519 280.822 413.702C280.418 413.298 280.384 413.073 280.11 412.532C281.646 409.457 290.576 403.207 293.926 401.489C294.402 401.245 299.759 400.949 300.727 400.895C304.776 397.821 311.587 388.766 315.284 384.432C319.524 383.089 324.011 381.837 328.292 380.581C332.789 375.725 337.336 369.963 341.899 364.875Z"
     id="path20" />
  <path
     fill="#010101"
     d="M579.343 366.096L580.505 366.601L580.647 367.708C576.03 376.506 572.484 388.67 568.127 397.48C563.998 405.83 556.584 404.083 555.345 416.201C549.635 420.793 544.562 425.261 539.083 430.137C538.031 429.873 538.488 430.146 537.747 429.264C538.359 427.298 549.988 418.195 552.636 415.631L553.105 415.17C553.553 411.574 553.768 409.442 554.781 405.961C556.782 404.573 563.666 400.553 564.455 399.184C569.674 390.138 575.096 375.659 579.343 366.096Z"
     id="path21" />
  <path
     fill="#010101"
     d="M329.709 298.311C330.022 298.381 330.346 298.411 330.646 298.522C332.672 299.272 334.651 314.004 335.285 316.77C333.736 322.232 331.201 328.61 329.421 334.28C330.77 338.437 333.712 346.931 333.407 350.844C330.672 349.022 329.339 338.514 325.233 332.854C326.953 326.163 331.226 317.593 331.447 311.482C331.503 309.922 330.014 300.955 329.709 298.311Z"
     id="path22" />
  <path
     fill="#010101"
     d="M350.97 357.427C352.687 358.24 354.992 361.232 355.932 362.794C362.421 373.585 364.417 373.242 376.109 377.453C378.836 380.955 384.183 388.603 385.715 392.73C381.763 391.382 379.921 384.494 376.9 382.626C373.004 380.216 367.254 379.37 362.514 377.132C360.317 374.225 351.232 360.557 350.97 357.427Z"
     id="path23" />
  <path
     fill="#010101"
     d="M710.077 306.392C710.976 306.386 712.198 306.178 712.592 307.197C714.57 312.312 717.159 317.539 719.016 322.658C719.843 323.217 723.128 324.988 723.232 325.787C723.126 326.013 723.21 325.885 722.908 326.114C720.841 326.249 719.129 324.84 717.497 323.765C716.026 319.267 713.306 313.785 711.295 309.33C708.786 311.019 705.521 313.121 703.303 315.146C700.727 317.499 699.961 316.583 696.629 315.726C691.272 314.191 685.697 312.736 680.241 311.586C669.953 317.49 672.836 313.793 680.503 309.86C686.624 311.52 692.586 313.039 698.728 314.575C703.596 310.409 704.735 309.678 710.077 306.392Z"
     id="path24" />
  <path
     fill="#010101"
     d="M738.386 390.226L739.678 390.922C743.997 400.086 744.182 400.888 745.103 410.893L749.622 415.33C749.034 422.565 748.4 429.796 747.72 437.023C749.246 440.012 750.429 441.12 751.219 444.569L750.834 444.702L751.128 444.408L750.48 444.319L750.997 443.99L750.921 443.787L750.066 443.789C748.916 442.349 747.669 439.769 746.768 438.067L742.372 441.575C740.751 442.629 736.619 445.626 735.059 445.74L735.084 445.058C737.611 442.532 742.843 439.394 746.242 436.603C746.936 429.781 747.432 422.61 748.014 415.751C746.659 414.488 745.019 413.165 743.59 411.953C743.483 409.401 743.435 406.383 742.914 403.895C742.012 399.583 738.626 394.325 738.386 390.226Z"
     id="path25" />
  <path
     fill="#010101"
     d="M624.239 248.086C632.358 248.239 644.421 250.639 652.856 251.82C654.439 253.306 655.627 254.484 657.305 255.91C663.259 256.317 668.91 255.818 674.813 256.03C675.719 256.063 675.08 256.953 674.888 257.303C670.763 257.616 660.828 257.969 657.077 257.763C655.65 256.478 654.414 255.35 652.931 254.113C643.647 252.433 633.953 251.596 624.689 249.817C624.51 249.783 624.38 249.054 624.358 248.894L624.239 248.086Z"
     id="path26" />
  <path
     fill="#010101"
     d="M523.238 408.42C524.373 408.48 536.797 409.388 533.576 411.11C532.465 411.704 527.222 410.605 525.824 410.403C522.174 412.419 518.553 414.733 514.863 416.583C511.821 415.783 508.74 415.145 505.63 414.672C503.933 414.373 495.083 413.456 494.572 413.094C491.526 410.94 505.618 412.705 506.504 412.916C514.539 414.827 516.45 412.063 523.238 408.42Z"
     id="path27" />
  <path
     fill="#010101"
     d="M688.672 409.375C688.806 409.499 688.948 409.615 689.076 409.746C690.763 411.478 686.696 446.381 686.618 451.51C686.613 451.869 686.612 452.229 686.586 452.587C684.517 454.52 679.104 459.396 676.88 460.934C675.672 459.658 677.062 459.054 678.492 457.734C680.929 455.485 682.952 453.575 685.127 451.057C686.081 441.869 686.356 432.231 687.402 422.998C687.871 418.862 687.596 413.452 688.672 409.375Z"
     id="path28" />
  <path
     fill="#010101"
     d="M282.338 460.458C289.131 461.847 296.61 466.374 303.255 466.973C307.467 467.353 315.431 472.599 318.708 475.562C315.13 476.719 309.186 469.627 304.508 468.944C300.096 468.3 284.885 463.468 282.338 460.458Z"
     id="path29" />
  <path
     fill="#010101"
     d="M806.549 409.783C808.106 411.163 806.187 422.508 806.038 425.475C806.697 426.697 808.121 428.708 808.35 430.085C808.403 430.4 807.978 430.892 807.697 430.751C806.329 430.066 805.31 427.245 804.592 425.888C802.933 426.958 801.443 427.975 799.712 428.931C798.117 429.964 796.013 431.338 794.234 432.054C793.824 432.219 793.251 431.73 793.431 431.538C795.958 428.843 801.064 426.307 804.377 424.476C804.631 420.286 805.199 413.732 806.549 409.783Z"
     id="path30" />
  <path
     fill="#010101"
     d="M776.035 413.307C778.021 415.077 776.017 427.182 775.747 430.463C776.244 431.469 778.657 435.562 778.185 436.504C776.985 436.904 775.568 433.175 774.549 432.036C773.765 431.998 773.259 432.564 772.719 433.066C771.922 433.692 768.282 436.895 767.599 436.806C766.387 435.923 772.82 430.919 773.741 429.9C774.52 425.226 774.828 416.51 776.035 413.307Z"
     id="path31" />
  <path
     fill="#010101"
     d="M632.646 443.666C632.778 443.72 633.561 443.968 633.796 444.22C634.741 445.231 633.468 457.624 633.392 459.909C634.07 460.67 638.823 464.827 637.286 465.425C635.401 466.159 633.676 460.174 631.631 462.125C631.037 462.833 627.213 467.533 626.702 467.421C625.374 465.755 630.833 460.768 631.816 459.442C632.363 453.799 632.265 449.116 632.646 443.666Z"
     id="path32" />
  <path
     fill="#010101"
     d="M715.098 428.848C717.233 431.128 713.62 444.904 715.607 448.488C715.847 448.921 716.132 449.801 715.475 450.033C712.932 449.199 715.521 444.612 708.011 453.329C708.631 452.545 704.718 457.688 705.416 455.161C706.268 452.079 711.074 448.198 713.411 445.569C713.654 441.727 714.089 431.98 715.098 428.848Z"
     id="path33" />
  <path
     fill="#010101"
     d="M656.652 435.212C656.764 435.264 657.702 435.663 657.726 435.766C658.246 438.018 657.373 449.885 657.214 451.645L657.134 452.628C658.694 455.547 659.538 457.001 660.825 460.003L659.391 458.43C657.292 456.169 656.708 453.332 654.215 455.637C653.593 456.191 649.644 460.103 649.052 459.207C649.075 458.045 654.295 453.665 655.504 452.433C656.001 446.436 656.236 441.054 656.652 435.212Z"
     id="path34" />
  <path
     fill="#010101"
     d="M748.577 306.667C749.743 306.468 751.294 306.269 752.461 306.548L752.626 306.983C752.11 307.603 741.141 309.613 739.161 310.204C737.087 313.957 735.084 317.826 733.477 321.805C733.276 322.303 732.322 324.729 731.49 323.586C731.255 321.63 736.827 311.239 737.954 308.849C741.648 307.926 744.819 307.239 748.577 306.667Z"
     id="path35" />
  <path
     fill="#010101"
     d="M828.405 410.754C830.378 412.245 829.389 422.226 829.395 425.298C829.845 425.74 832.236 427.851 832.163 427.993C830.536 431.192 829.834 425.033 826.726 428.115C826.203 428.582 824.266 430.473 823.733 430.475C820.764 430.487 826.369 426.047 827.484 424.526C827.66 421.521 827.47 412.759 828.405 410.754Z"
     id="path36" />
  <path
     fill="#010101"
     d="M603.91 451.266C606.461 453.811 602.49 461.109 604.739 464.963C604.897 465.365 605.643 466.7 605.318 467.192C604.285 468.761 602.72 465.38 602.202 465.492C600.859 465.781 598.56 467.293 597.328 467.977C596.971 468.186 595.223 469.248 594.853 469.267C590.22 469.503 600.049 464.066 600.808 463.612L601.627 463.129C601.876 462.975 602.124 462.821 602.373 462.667C602.975 458.965 603.14 454.773 603.91 451.266Z"
     id="path37" />
  <path
     fill="#010101"
     d="M555.525 442.126C557.82 443.776 556.02 450.481 555.723 453.561C556.521 454.16 562.025 458.053 562.201 458.493C563.36 461.38 557.172 456.706 557.051 456.627C550.939 451.556 553.592 459.036 550.34 457.677C549.681 456.712 553.467 452.898 554.232 451.936C554.9 448.069 555.133 446.147 555.525 442.126Z"
     id="path38" />
  <path
     fill="#010101"
     d="M854.286 379.762C857.471 380.744 860.651 384.67 862.974 387.189C864.269 392.416 864.254 396.854 865.322 401.842C862.261 401.887 862.686 395.834 862.578 393.25C862.283 386.186 857.681 385.029 854.286 379.762Z"
     id="path39" />
  <path
     fill="#010101"
     d="M533.149 437.848C534.438 439.627 532.764 443.546 532.229 445.667C533.352 448.322 534.333 450.724 535.362 453.418C533.138 450.702 532.601 449.788 530.68 446.863C529.513 447.52 528.241 448.408 527.008 449.127C525.84 449.482 522.657 450.501 521.57 450.253C520.688 450.052 521.06 448.67 522.23 448.539C525.272 448.199 528.248 446.42 530.958 445.059C531.394 443.347 531.9 440.172 532.672 438.752L533.149 437.848Z"
     id="path40" />
  <path
     fill="#010101"
     d="M805.703 387.709C805.934 387.656 806.165 387.603 806.397 387.55C807.538 388.146 816.357 396.34 816.367 396.243C816.116 398.891 811.855 394.075 811.306 393.557C809.739 392.067 808.092 390.689 806.438 389.298C804.582 389.688 800.872 390.754 798.779 390.363C797.68 390.157 797.79 388.631 798.52 388.559C800.619 388.35 803.565 388.008 805.703 387.709Z"
     id="path41" />
  <path
     fill="#010101"
     d="M445.216 387.858C449.817 388.052 458.871 398.215 461.169 402.214C458.758 401.675 458.56 400.686 456.865 398.663C453.519 394.667 447.736 392.317 445.216 387.858Z"
     id="path42" />
  <path
     fill="#010101"
     d="M505.613 434.813C507.442 436.453 505.365 440.208 504.62 442.41C505.014 443.055 507.077 446.197 506.767 446.405C503.996 448.268 505.466 441.95 501.393 443.87C500.182 444.306 496.945 445.647 495.986 445.392C493.645 444.769 503 441.099 503.598 440.817C504.321 438.26 504.355 437.186 505.613 434.813Z"
     id="path43" />
  <path
     fill="#010101"
     d="M869.995 413.62L870.359 413.795C870.652 413.931 871.014 413.984 871.225 414.228C872.067 415.203 870.764 423.135 870.559 424.738C870.378 426.152 869.981 427.603 869.926 429.02C869.896 429.799 870.203 430.406 870.748 430.95C871.06 431.262 871.527 431.628 871.738 432.045C872.049 432.657 871.882 432.939 871.675 433.587L871.186 433.111C869.534 431.473 867.93 431.082 867.658 430.75C867.646 430.635 868.508 427.73 868.634 427.242C869.794 422.752 869.818 418.217 869.995 413.62Z"
     id="path44" />
  <path
     fill="#010101"
     d="M345.281 254.411C345.768 254.55 345.994 254.552 346.146 254.785C345.616 256.83 337.946 259.176 336.11 267.338C330.677 265.053 343.818 255.418 345.281 254.411Z"
     id="path45" />
  <path
     fill="#EC3E44"
     d="M332.504 163.324C356.569 159.536 380.976 156.943 404.537 153.474C451.852 146.508 489.013 144.658 535.367 158.816C566.753 168.402 600.942 181.53 633.592 184.352C660.785 186.442 684.659 177.438 710.493 170.563C744.669 161.468 770.017 162.458 804.104 169.596C829.613 174.938 849.864 178.863 874.003 190.213C874.126 203.998 874.467 217.78 875.025 231.555C868.911 233.099 863.144 235.538 857.165 236.848C858.314 261.337 856.382 294.357 847.048 317.049C844.885 315.377 842.354 313.272 840.028 311.926C838.831 311.168 837.53 310.187 836.362 309.35L834.928 308.37C833.657 307.88 832.31 306.969 831.111 306.25L830.049 305.391C821.059 299.199 813.352 294.756 803.818 289.361C800.339 287.812 796.755 285.547 793.453 283.577C795.211 276.185 796.346 271.064 795.022 263.376C793.402 253.778 788.022 245.223 780.073 239.605C762.905 227.506 740.735 233.419 729.254 250.253C722.444 249.197 717.193 248.541 710.312 248.576C701.803 248.552 694.042 247.178 685.781 245.149L684.245 244.874L678.037 243.486L676.714 243.295L670.403 241.795L660.978 239.922C652.325 224.187 640.984 215.652 623.369 225.536C605.049 235.815 607.921 268.646 603.501 286.454C595.729 317.766 577.452 348.321 549.94 365.905C495.27 400.917 423.952 382.032 390.659 327.19C371.153 295.059 368.068 256.751 366.267 219.843C355.159 217.953 344.202 216.57 333.016 214.595C332.764 197.887 333.03 179.818 332.504 163.324Z"
     id="path46" />
  <path
     fill="#3442aa"
     d="m 685.781,245.149 c 5.079,-20.509 12.121,-35.718 31.141,-47.048 17.813,-10.517 39.066,-13.547 59.109,-8.429 21.917,5.594 40.623,19.849 51.83,39.498 14.319,24.895 12.806,50.406 2.188,76.221 -8.99,-6.192 -16.697,-10.635 -26.231,-16.03 -3.479,-1.549 -86.625,-40.82 -93.506,-40.785 -8.509,-0.024 -16.27,-1.398 -24.531,-3.427 z"
     id="path47"
     sodipodi:nodetypes="cccccccc" />
  <path
     fill="#3442AA"
     d="M670.403 241.795C677.295 163.971 785.206 148.495 829.337 204.258C845.867 225.146 851.356 249.492 848.39 275.734C847.313 285.55 843.914 303.253 840.028 311.926C838.831 311.168 837.53 310.187 836.362 309.35L834.928 308.37C833.657 307.88 832.31 306.969 831.111 306.25L830.049 305.391C840.667 279.576 842.18 254.065 827.861 229.17C816.654 209.521 797.948 195.266 776.031 189.672C755.988 184.554 734.735 187.584 716.922 198.101C697.902 209.431 690.86 224.64 685.781 245.149L684.245 244.874L678.037 243.486L676.714 243.295L670.403 241.795Z"
     id="path49" />
  <path
     fill="#3442AA"
     d="M678.037 243.486C682.704 221.861 691.265 205.529 710.44 193.042C728.866 181.098 751.324 177.073 772.75 181.875C796.406 187.231 816.988 201.717 830.015 222.177C847.281 249.092 846.192 279.444 834.928 308.37C833.657 307.88 832.31 306.969 831.111 306.25L830.049 305.391C840.667 279.576 842.18 254.065 827.861 229.17C816.654 209.521 797.948 195.266 776.031 189.672C755.988 184.554 734.735 187.584 716.922 198.101C697.902 209.431 690.86 224.64 685.781 245.149L684.245 244.874L678.037 243.486Z"
     id="path50" />
  <path
     fill="#F7F7F5"
     d="M684.245 244.874C687.695 225.711 696.244 210.259 712.462 198.979C729.143 187.377 751.346 183.007 771.276 186.834C793.682 191.156 813.455 204.201 826.244 223.1C841.73 246.291 845.488 281.751 831.111 306.25L830.049 305.391C840.667 279.576 842.18 254.065 827.861 229.17C816.654 209.521 797.948 195.266 776.031 189.672C755.988 184.554 734.735 187.584 716.922 198.101C697.902 209.431 690.86 224.64 685.781 245.149L684.245 244.874Z"
     id="path51" />
  <path
     fill="#F7F7F5"
     d="M676.714 243.295C679.101 224.489 688.818 207.388 703.751 195.711C721.036 182.222 742.933 176.071 764.714 178.586C814.423 184.733 852.246 231.9 844.23 281.048C842.872 289.379 840.267 301.861 836.362 309.35L834.928 308.37C846.192 279.444 847.281 249.092 830.015 222.177C816.988 201.717 796.406 187.231 772.75 181.875C751.324 177.073 728.866 181.098 710.44 193.042C691.265 205.529 682.704 221.861 678.037 243.486L676.714 243.295Z"
     id="path52" />
  <path
     fill="#3442AA"
     d="M471.539 161.211C500.772 160.13 535.867 165.903 560.019 183.568C581.261 199.793 589.433 223.153 592.745 248.511C600.964 311.451 563.921 365.745 499.619 373.853C491.418 374.294 482.817 374.634 474.68 373.618C454.096 371.049 432.28 361.062 416.579 347.726C394.15 328.676 379.811 296.291 377.962 267.169C376.302 241.011 379.349 209.022 397.429 188.624C416.171 167.48 444.817 162.92 471.539 161.211Z"
     id="path53" />
  <path
     fill="#F7F7F5"
     d="M476.857 166.719C502.388 165.426 529.121 174.13 549.5 189.516C623.058 245.052 587.874 357.25 497.609 368.892C496.965 368.955 496.322 369.015 495.678 369.072C438.68 374.089 387.84 324.076 383.706 268.497C379.167 207.477 417.758 170.656 476.857 166.719Z"
     id="path54" />
  <path
     fill="#3442AA"
     d="M472.436 168.698C499.461 166.689 526.298 174.537 547.981 190.792C569.18 206.622 582.448 227.258 586.236 253.547C590.088 279.536 583.233 305.976 567.24 326.821C550.567 348.942 527.1 363.14 499.616 366.901C490.97 367.953 481.019 367.896 472.502 366.139C365.318 344.033 346.589 181.259 472.436 168.698Z"
     id="path55" />
  <path
     fill="#F7F7F5"
     d="M476.177 174.703C526.433 171.37 574.167 202.556 582.744 253.726C586.696 277.465 581.038 301.801 567.019 321.362C551.086 343.562 530.27 355.883 503.483 360.371C502.453 360.509 501.421 360.63 500.387 360.734C476.919 363.066 452.282 354.418 434.245 339.48C411.665 320.564 397.511 293.463 394.887 264.123C390.445 212.406 426.608 178.964 476.177 174.703Z"
     id="path56" />
  <path
     fill="#3442AA"
     d="M474.331 176.701C498.78 173.924 527.158 182.47 546.753 197.393C565.635 211.799 578.07 233.074 581.357 256.596C584.549 280.289 578.103 304.273 563.463 323.173C548.908 341.921 528.224 355.357 504.453 358.459C480.92 362.785 453.935 353.057 435.735 338.274C398.645 308.149 380.693 246.39 413.389 206.676C429.099 187.593 450.157 179.16 474.331 176.701Z"
     id="path57" />
  <path
     fill="#F8EEE4"
     d="M239.174 475.705C262.266 475.11 270.016 488.73 286.236 502.758C305.768 519.507 325.481 536.045 345.37 552.369C345.739 552.409 346.108 552.451 346.476 552.496C364.631 554.682 387.374 560.884 402.895 570.528C418.564 580.263 435.048 597.588 435.189 617.141C435.205 619.338 434.256 624.18 435.318 625.53C437.549 621.437 436.993 611.501 435.695 606.818C430.021 586.349 420.012 575.569 402.238 564.826C404.91 561.042 409.465 554.977 411.266 551.014L411.644 550.17C412.958 547.28 413.018 544.225 413.316 541.035C422.132 537.664 434.354 534.474 443.652 531.886C458.052 541.879 469.097 553.937 481.489 566.106C485.662 570.205 492.368 572.438 496.889 575.899C501.082 579.11 504.353 583.229 508.751 586.662L515.023 587.443C518.001 592.382 521.216 595.932 526.862 597.644C531.339 604.366 535.909 607.945 544.185 608.478C544.826 609.464 545.517 610.418 546.254 611.334C550.648 616.836 554.18 618.206 560.722 618.973C567.104 625.99 567.977 626.768 576.924 629.852C581.292 639.436 586.927 638.657 593.108 644.461C602.707 653.476 600.819 655.429 615.217 657.566C620.803 667.904 622.861 666.33 633.1 671.136C633.784 672.896 634.41 674.905 635.02 676.712C641.63 680.605 644.115 681.716 651.574 683.251C658.655 691.298 660.952 691.577 670.749 694.421C676.637 705.53 684.682 705.968 695.857 705.16C702.483 718.371 708.989 716.576 721.278 718.373C730.922 719.784 739.067 726.404 748.353 718.121C754.347 721.487 757.929 721.636 764.598 722.552C765.954 721.813 767.21 721.002 768.517 720.182C777.587 723.754 779.877 723.822 788.258 720.123C788.703 719.926 794.856 722.326 796.474 722.896C800.283 721.468 800.954 721.018 804.023 718.4C804.42 721.801 804.454 723.918 804.47 727.352C801.034 733.243 792.749 737.851 787.649 743.786C776.839 756.366 773.489 776.234 757.123 783.202C755.315 783.972 753.642 783.592 751.982 782.813C751.679 782.422 751.375 782.031 751.071 781.64C752.055 774.651 756.668 767.642 758.749 760.95C759.685 757.94 759.795 755.697 760.026 753.21C754.291 770.455 740.343 780.832 723.241 786.058C709.23 790.166 690.427 788.837 677.035 782.734C657.202 773.695 636.265 762.356 617.183 751.713C603.953 744.587 590.783 737.464 577.481 730.468C570.854 726.982 561.977 723.541 555.954 720.13C558.943 719.022 570.322 713.691 572.111 713.662C582.328 713.496 584.852 714.532 595.106 710.58L595.061 710.232C590.628 710.552 586.997 711.952 583.003 712.495C581.146 712.748 573.794 712.003 571.516 711.799C565.509 714.842 559.951 716.965 553.699 719.417C546.298 716.379 538.519 714.359 530.575 713.413C513.361 711.32 514.327 712.025 499.106 703.785C502.767 703.527 511.996 701.182 516.485 700.438C518.672 698.626 520.413 697.309 522.266 695.13L522.034 694.597C519.712 695.241 517.543 697.922 515.543 698.592C509.917 700.479 503.263 701.637 497.419 702.848C477.274 694.303 465.987 688.512 443.64 684.355C426.872 681.236 415.159 682.138 399.085 680.71C384.848 679.445 359.409 672.862 345.756 668.266C349.278 654.504 348.272 653.848 346.442 639.458C350.194 632.365 354.026 624.857 358.111 617.992C354.557 613.97 350.997 610.006 347.624 605.829C348.057 601.119 348.577 596.416 349.183 591.725L340.227 585.714C341.584 581.049 342.759 577.318 344.435 572.751C332.475 565.284 329.559 561.48 320.265 551.01C312.485 542.281 304.813 533.456 297.252 524.536C294.117 520.865 286.135 511.27 283.073 508.308C279.938 505.274 253.738 485.836 251.911 485.664L251.817 486.286C258.324 493.606 273.801 500.653 281.107 508.521C287.026 514.897 292.46 521.192 298.094 527.791C304.915 535.746 311.807 543.64 318.769 551.472C328.267 562.238 330.79 565.467 342.724 573.376L338.426 586.296C341.758 588.309 344.46 590.269 347.623 592.55C347.008 597.426 346.562 601.089 346.387 606.03C348.478 609.429 353.53 614.996 356.312 618.149C352.681 625.051 348.971 631.912 345.182 638.729C346.391 654.655 347.784 652.234 344.44 667.887C339.287 666.388 333.639 664.712 328.932 662.015C302.271 646.737 277.913 614.691 270.769 584.72C267.005 568.927 268.709 555.092 262.507 539.225C257.354 526.042 251.365 518.697 243.822 507.301L228.278 483.303C231.513 480.833 235.768 478.06 239.174 475.705Z"
     id="path60" />
  <path
     fill="#010101"
     d="M267.886 511.032C286.74 533.756 285.738 541.934 290.066 569.498C292.431 585.302 299.991 599.87 311.554 610.901C316.783 615.897 320.851 617.937 326.355 622.002C311.252 616.87 296.177 601.018 289.382 586.77C283.932 575.34 284.386 566.194 283.319 553.997C282.01 538.974 276.516 524.62 267.462 512.561L267.886 511.032Z"
     id="path61" />
  <path
     fill="#010101"
     d="M283.494 602.273C289.563 605.83 293.386 618.928 301.253 620.459C302.372 620.677 305.558 621.676 306.24 622.513C309.853 626.949 319.093 637.473 321.923 641.652C315.746 640.186 309.694 626.572 295.341 622.745C292.001 618.728 285.288 607.112 283.494 602.273Z"
     id="path62" />
  <path
     fill="#010101"
     d="M425.309 664.149C434.219 667.798 444.08 671.873 453.221 674.848C456.54 675.928 466.148 674.499 469.208 675.898L469.439 677.249C466.177 676.913 456.643 677.111 454.365 676.478C445.351 673.97 434.059 669.231 425.225 665.844C420.943 667.29 417.059 668.556 412.905 670.378C403.754 669.528 393.092 667.707 383.957 666.165C382.528 665.923 382.656 665.637 382.061 664.609C383.811 664.575 388.773 665.409 390.608 665.662C408.601 668.141 408.568 670.771 425.309 664.149Z"
     id="path63" />
  <path
     fill="#010101"
     d="M518.357 602.033C521.209 602.665 523.545 605.817 525.486 608.018C525.52 611.398 525.5 614.854 525.292 618.228C524.174 636.327 524.197 654.569 523.272 672.658L522.669 672.431C521.078 670.082 523.69 616.286 523.474 608.389C521.333 605.403 518.55 604.305 518.357 602.033Z"
     id="path64" />
  <path
     fill="#010101"
     d="M469.765 587.491C473.023 588.942 477.827 595.866 481.353 599.209C485.974 599.18 488.773 599.181 493.439 599.562C493.825 605.638 494.288 611.531 494.495 617.644C496.435 619.9 501.283 624.005 500.587 626.782C498.355 624.18 494.712 620.561 493.074 617.995C492.713 612.338 492.496 606.847 491.839 601.229C486.562 600.429 486.088 600.522 480.83 601.101C478.744 598.819 469.922 589.585 469.765 587.491Z"
     id="path65" />
  <path
     fill="#010101"
     d="M656.574 759.284C658.152 759.641 672.577 767.809 677.733 769.633C680.891 769.033 692.138 766.323 694.407 766.942C693.032 768.89 683.806 769.897 681.123 770.352L677.384 771.098C670.08 768.205 662.197 762.763 655.139 761.022C653.687 760.664 645.12 761.879 642.293 761.736L642.418 761.21C645.702 759.441 652.498 759.529 656.574 759.284Z"
     id="path66" />
  <path
     fill="#010101"
     d="M554.669 628.392C556.939 628.798 562.817 633.365 563.126 634.29C563.627 643.437 563.77 658.983 563.497 668.241C563.16 668.273 562.426 668.323 562.41 668.072C561.987 661.673 561.632 640.939 561.552 635.91C559.845 634.21 556.019 630.26 554.669 628.392Z"
     id="path67" />
  <path
     fill="#010101"
     d="M703.599 722.479C705.42 722.624 705.486 722.758 707.004 723.933C708.698 725.165 710.125 726.629 712.033 727.557C713.063 727.952 714.053 726.733 715 726.657C718.779 726.353 713.061 730.027 712.733 730.295C712.369 733.373 711.928 736.388 711.441 739.449C711.396 740.565 711.354 742.104 710.738 743.116C710.323 743.798 709.27 743.135 709.271 742.91C709.275 738.352 709.618 733.305 710.155 728.754C708.054 726.882 704 724.384 703.599 722.479Z"
     id="path68" />
  <path
     fill="#010101"
     d="M762.437 729.433C764.346 731.278 759.223 733.736 757.935 734.58C757.163 737.914 756.316 741.425 755.634 744.759L755.1 747.26C754.74 748.939 754.628 750.648 753.341 751.723C751.729 751.083 752.527 749.296 752.871 747.893C753.638 744.69 754.351 741.233 754.945 737.997L755.649 734.106C753.3 732.311 751.598 731.097 749.302 729.194C753.521 730.715 753.547 730.808 757.548 732.918C759.999 731.444 760.216 731.377 762.437 729.433Z"
     id="path69" />
  <path
     fill="#010101"
     d="M630.999 680.764C633.536 681.376 637.099 686.354 638.934 688.551C638.802 693.146 638.886 702.619 638.287 706.564C635.665 705.566 636.944 692.466 636.98 689.421C634.694 686.568 631.106 683.592 630.999 680.764Z"
     id="path70" />
  <path
     fill="#010101"
     d="M772.646 727.982C773.733 728.185 776.338 729.149 777.065 729.738C779.233 731.498 782.081 728.454 782.857 729.636C782.385 730.99 780.755 731.532 780.079 733.76C778.813 737.935 777.59 742.237 776.219 746.372C775.913 747.353 775.699 748.838 774.633 749.096C773.049 748.527 778.002 734.331 778.49 732.235C775.251 730.691 774.053 730.873 772.646 727.982Z"
     id="path71" />
  <path
     fill="#010101"
     d="M535.031 615.363C539.274 615.93 539.454 618.222 542.889 620.796C541.987 626.473 541.213 632.133 540.233 637.79C538.522 638.082 538.239 637.472 538.544 635.76C539.39 631.007 539.702 626.102 540.399 621.358C537.971 618.203 537.318 617.979 535.031 615.363Z"
     id="path72" />
  <path
     fill="#010101"
     d="M738.197 752.844C739.68 754.797 736.448 757.23 735.404 758.944C732.545 763.64 730.236 763.625 726.183 765.812C724.498 766.721 718.817 773.936 717.349 775.663C714.767 773.741 719.776 770.601 721.302 768.466C724.191 764.423 726.171 763.885 730.539 762.456C733.218 759.353 735.911 755.376 738.197 752.844Z"
     id="path73" />
  <path
     fill="#010101"
     d="M576.434 644.838C580.573 646.086 580.743 648.365 584.18 650.187C584.261 650.196 585.562 650.426 585.509 650.762C584.603 656.529 585.379 664.204 585.263 670.078C585.181 670.129 584.173 670.823 584.102 670.319C583.38 665.134 583.547 657.852 583.344 652.693C581.297 650.376 577.975 647.136 576.434 644.838Z"
     id="path74" />
  <path
     fill="#010101"
     d="M676.592 711.373C681.184 712.024 681.37 715.276 685.002 716.357C688.293 717.335 685.94 717.262 685.514 719.495C684.918 722.62 684.662 725.92 684.394 729.008C684.107 730.481 683.19 730.02 683.043 729.691C682.197 727.798 683.047 720.484 683.056 718.532C681.043 716.167 678.147 713.569 676.592 711.373Z"
     id="path75" />
  <path
     fill="#010101"
     d="M652.757 697.397C656.107 698.168 658.844 701.863 661.664 703.718C662.33 704.156 663.551 702.657 664.346 702.649C665.155 703.418 662.798 705.423 662.351 705.984C662.184 709.028 662.105 712.076 662.113 715.125C662.242 716.504 662.455 717.513 661.251 718.361L660.815 718.284C660.176 717.159 660.628 707.464 660.578 705.345C658.049 702.798 654.369 700.107 652.757 697.397Z"
     id="path76" />
  <path
     fill="#010101"
     d="M742.288 729.431C742.416 729.59 742.545 729.748 742.673 729.907C743.107 730.51 740.205 733.038 739.761 733.528C737.891 735.388 737.637 738.052 737.138 740.506C737.116 740.614 736.624 744.348 735.422 743.251C734.961 742.831 735.305 741.52 735.382 740.995L735.624 739.034C737.047 731.606 735.705 735.234 730.123 728.69C734.039 730.388 734.286 730.423 737.827 732.689C739.308 731.616 740.808 730.475 742.288 729.431Z"
     id="path77" />
  <path
     fill="#010101"
     d="M601.765 658.809C604.15 659.978 605.391 662.512 608.591 664.378L608.259 664.203C607.968 668.241 608.012 672.257 607.782 676.335C605.741 679.79 606.425 669.214 606.263 668.163C605.554 663.565 602.624 663.429 601.765 658.809Z"
     id="path78" />
  <path
     fill="#010101"
     d="M795.987 726.912C796.103 726.937 796.22 726.962 796.337 726.988C796.352 727.021 796.507 727.114 796.431 727.192C793.853 729.831 792.206 732.89 790.263 736.009C789.833 736.7 789.489 737.799 788.558 737.796L788.028 737.814C788.455 733.56 790.865 732.799 792.299 728.986C792.414 728.68 791.563 728.101 791.411 727.487C791.503 727.197 791.424 727.314 791.634 727.124C792.959 726.841 793.54 727.586 795.987 726.912Z"
     id="path79" />
  <path
     fill="#494542"
     d="M267.462 512.561L267.054 512.03C266.812 511.721 265.912 510.736 266.054 510.237C266.081 510.141 266.154 510.064 266.249 510.033C266.633 509.907 267.09 510.371 267.338 510.586L267.886 511.032L267.462 512.561Z"
     id="path80" />
  <path
     fill="#F8EEE4"
     d="M182.708 803.719C179.305 799.185 175.097 789.567 180.151 785.01C192.489 773.882 216.134 772.019 231.984 768.415C241.662 766.795 249.049 767.439 258.621 763.752C272.66 758.344 281.671 730.093 298.895 749.001C304.488 755.142 304.155 762.201 311.313 769.296C323.111 780.991 336.315 784.443 349.519 793.72C362.432 804.377 342.662 818.408 343.933 836.189C338.878 833.099 320.469 822.997 317.576 819.79C315.059 818.051 313.485 816.779 310.732 815.053C307.705 816.952 304.56 818.875 301.603 820.872C294.876 825.412 287.168 830.895 280.346 835.102C275.668 832.071 268.257 827.082 264.087 823.486C260.175 824.582 246.757 827.335 244.162 828.674C248.215 830.178 252.114 830.812 256.037 832.082C262.111 832.517 268.809 835.503 274.108 838.355C270.956 840.337 268.487 842.449 265.692 844.242C262.924 846.536 261.357 847.52 258.288 849.424C247.263 831.628 237.613 838.667 220.347 833.19C209.771 829.834 210.084 821.913 206.834 813.596C204.6 807.881 190.197 806.353 183.337 803.947L182.708 803.719Z"
     id="path81" />
  <path
     fill="#010101"
     d="M286.906 778.575C287.098 778.79 287.289 779.006 287.48 779.222C287.467 788.946 289.333 817.337 289.8 825.117C283.405 823.321 270.631 817.219 263.938 814.358C253.987 817.465 244.066 820.669 234.177 823.969L231.312 821.128C225.91 815.358 219.403 807.669 214.458 801.478C221.399 799.791 231.232 796.478 238.191 794.275L286.906 778.575Z"
     id="path83" />
  <path
     fill="#010101"
     d="M341.898 798.529C340.478 797.553 332.718 793.594 333.442 792.311C335.161 791.683 346.852 798.043 347.471 802.008C348.501 808.6 345.033 813.584 340.694 817.569L339.845 816.216C343.818 810.347 343.123 805.152 341.898 798.529Z"
     id="path86" />
  <path
     fill="#010101"
     d="M260.117 770.794C261.947 770.59 263.152 770.255 264.841 770.938L264.733 771.422C261.353 772.617 253.936 772.016 251.484 773.041C242.756 776.691 240.495 779.907 230.248 778.163C227.023 777.614 218.307 782.097 214.639 783.837C213.543 784.379 213.579 784.323 212.391 784.664C213.499 782.15 223.249 776.397 225.504 776.512C235.008 776.995 239.971 778.417 248.421 772.326C250.356 770.931 257.085 770.867 260.117 770.794Z"
     id="path87" />
  <path
     fill="#010101"
     d="M284.531 747.973C288.188 747.932 288.67 748.398 292 749.057C296.744 749.996 298.102 752.558 299.268 757.164C299.46 757.923 299.812 763.377 298.586 763.334C297.051 762.2 299.791 756.793 293.345 752.915C282.55 749.643 282.179 753.289 274.945 761.071C277.493 755.312 279.043 751.218 284.531 747.973Z"
     id="path88" />
  <path
     fill="#010101"
     d="M297.905 765.891C301.682 767.54 301.232 770.985 304.162 773.73C307.119 776.501 310.684 777.534 314.15 779.295L314.376 779.919C315.754 783.613 317.271 787.871 317.635 791.775C315.35 790.417 313.88 784.684 311.45 780.773C305.183 777.407 298.871 773.734 297.905 765.891Z"
     id="path89" />
  <path
     fill="#010101"
     d="M186.211 786.215C190.964 786.679 186.504 788.111 185.728 790.189C184.288 794.049 188.35 796.812 189.409 799.607L189.762 800.56C184.788 797.261 179.479 792.172 185.469 786.898L186.211 786.215Z"
     id="path90" />
  <path
     fill="#171311"
     d="M339.845 816.216L340.694 817.569C336.915 819.513 335.993 819.552 331.904 819.858C334.643 818.662 337.262 817.686 339.845 816.216Z"
     id="path91" />
  <path
     fill="#F8EEE4"
     d="M241.134 732.7L238.509 734.222C236.528 734.222 231.319 730.304 226.362 729.319C218.862 727.83 210.666 727.159 203.556 724.649C192.766 720.84 196.512 710.561 188.127 705.409C180.939 700.991 170.757 702.47 164.965 696.83C161.318 693.018 160.797 686.947 161.024 682.014C161.516 671.298 172.695 671.974 180.471 670.81C188.664 669.583 196.846 668.509 205.094 667.431C214.755 666.167 224.916 665.78 234.143 662.419C240.197 660.099 246.468 652.896 251.364 648.412C257.935 642.393 262.842 643.396 270.951 643.807C277.413 644.135 283.993 661.525 287.372 667.44C289.441 671.117 291.951 674.528 294.846 677.596C304.276 687.506 335.37 702.454 340.079 709.674C341.186 711.37 340.354 717.891 339.944 719.739C338.792 724.93 334.86 727.102 330.748 729.823C329.823 732.598 328.789 737.345 328.051 740.32C319.895 734.405 311.033 729.21 302.655 723.092C297.31 719.733 290.666 714.253 285.216 710.522L284.532 710.801C279.106 713.069 271.717 716.461 266.826 719.6C264.056 721.097 261.316 722.65 258.608 724.257C259.333 711.271 260.408 696.244 260.478 683.288C238.786 685.999 217.162 690.141 195.994 692.624C200.682 698.738 206.877 707.497 211.794 713.035C218.099 710.141 226.637 705.896 232.937 703.461C239.389 710.124 248.599 720.091 255.578 725.711L246.624 729.998C242.619 725.029 234.802 715.744 231.877 710.718C228.634 711.937 221.409 714.385 219.055 716.312L219.16 717.05C222.767 718.581 228.649 718.222 232.587 718.16C236.52 723.082 239.372 726.156 243.75 730.672C243.019 732.085 242.846 731.8 241.134 732.7Z"
     id="path94" />
  <path
     fill="#010101"
     d="M325.52 704.416C327.23 704.968 333.173 708.383 333.726 709.755C337.407 718.887 329.512 720.926 323.978 723.889C322.848 726.975 322.696 729 321.606 731.822C318.121 730.656 321.36 727.766 320.412 726.738C316.146 722.111 326.256 719.032 328.814 716.181C330.163 714.677 330.773 713.339 332.182 710.751L331.732 710.321C329.105 707.769 327.532 707.354 325.52 704.416Z"
     id="path97" />
  <path
     fill="#010101"
     d="M206.121 673.758C214.997 671.128 215.065 671.469 224.002 672.335C225.659 672.495 230.213 668.878 233.99 668.379C237.722 667.887 241.488 667.704 245.25 667.832C245.947 667.841 247.175 668.017 247.396 668.842C247.029 670.189 235.816 669.898 233.512 670.679C229.738 671.959 227.818 674.901 224.003 675.545C217.345 675.531 216.805 673.795 209.267 674.694C208.482 674.812 204.347 675.627 204.255 674.527C204.622 674.015 205.555 673.88 206.121 673.758Z"
     id="path98" />
  <path
     fill="#010101"
     d="M281.794 671.746C284.257 672.681 287.086 677.574 288.799 680.057L289.334 680.819C290.919 681.463 295.267 682.946 296.243 684.072C298.619 686.812 309.45 698.992 310.841 701.157C305.685 700.23 300.115 690.9 296.261 687.741C294.961 686.676 290.171 684.747 288.067 683.588C285.799 679.747 282.996 675.82 281.794 671.746Z"
     id="path99" />
  <path
     fill="#010101"
     d="M262.096 649.079C265.038 648.781 267.494 648.648 270.204 650.101C270.974 650.514 275.137 653.077 274.129 654.286C273.991 654.453 273.476 654.89 273.527 655.25C273.646 656.087 274.9 656.75 274.87 657.68C274.558 658.547 272.767 656.737 272.768 656.738C270.322 653.542 266.904 653.268 263.09 651.638C257.83 652.805 255.272 656.43 250.997 658.963C250.747 659.11 250.067 658.45 250.39 658.054C253.424 654.34 257.748 651.08 262.096 649.079Z"
     id="path100" />
  <path
     fill="#010101"
     d="M178.11 674.475C183.054 673.874 172.546 679.022 172.511 679.043C170.382 682.496 170.298 683.003 169.043 686.965C170.158 689.197 174.111 693.922 172.851 695.572C161.634 685.204 165.195 679.741 178.11 674.475Z"
     id="path101" />
  <path
     fill="#F8EEE4"
     d="M229.173 635.087L226.785 635.728C224.911 636.229 224.772 636.447 222.889 635.713C217.047 629.076 208.056 632.916 199.958 629.831C185.331 624.259 192.3 610.538 183.09 602.067C177.463 596.891 167.74 597.039 164.166 589.741C162.667 586.755 161.685 581.062 163.219 578.305C172.945 560.82 209.739 574.12 226.133 571.528C239.313 569.444 243.916 562.434 253.149 558.567C257.421 559.228 259.804 559.983 263.612 561.817C264.429 575.928 263.676 577.677 267.818 591.651C265.229 591.157 262.48 590.21 259.87 589.571C259.947 587.489 260.312 587.474 259.373 586.132C238.867 585.166 218.305 586.05 197.822 584.381C193.103 583.996 187.841 583.496 183.129 583.462C187.517 590.214 190.682 596.554 194.608 603.555C197.579 608.852 201.363 613.673 203.906 619.319C209.178 620.682 214.558 621.752 219.519 623.892C220.897 622.673 220.835 623.545 222.607 623.679L223.551 623.747C229 624.683 232.937 629.15 236.675 632.728C234.185 633.549 231.684 634.335 229.173 635.087Z"
     id="path103" />
  <path
     fill="#010101"
     d="M222.81 578.942C223.514 578.743 224.213 578.527 224.907 578.296C230.206 576.516 234.049 577.131 239.499 576.926C240.106 576.903 241.94 576.582 241.376 577.91C240.966 578.877 238.661 578.367 237.999 578.519C235.345 578.525 233.372 578.636 230.887 579.775C227.324 581.177 226.753 581.331 223.143 582.156L222.4 581.909C220.028 581.133 218.378 580.303 216.1 579.409L209.233 580.84L208.26 581.033C207.51 581.187 205.016 581.466 205.466 580.015C205.553 579.944 215.274 577.454 216.314 577.131C217.019 577.152 220.599 578.438 221.876 578.717L222.81 578.942Z"
     id="path105" />
  <path
     fill="#010101"
     d="M171.74 589.346C167.754 584.024 169.768 580.72 174.795 575.829C177.546 573.152 184.309 574.087 187.946 574.723C191.708 575.268 189.513 576.323 186.155 575.694C178.172 574.988 171.485 579.144 171.97 587.728L171.74 589.346Z"
     id="path106" />
  <path
     fill="#494542"
     d="M187.946 574.723C191.708 575.268 189.513 576.323 186.155 575.694L187.946 574.723Z"
     id="path107" />
  <path
     fill="#010101"
     d="M252.596 567.541C259.341 567.303 260.308 570.183 264.672 575.484C259.236 572.538 259.241 570.596 253.823 570.509C249.666 571.97 248.824 572.895 245.209 574.58L242.118 576.017C245.036 573.125 249.143 569.764 252.596 567.541Z"
     id="path108" />
  <path
     fill="#494542"
     d="M171.97 587.728C172.323 588.275 174.253 590.613 173.724 591.184C173.023 591.172 172.11 589.802 171.74 589.346L171.97 587.728Z"
     id="path109" />
  <path
     fill="#010101"
     d="M192.869 590.012C210.102 591.93 235.917 591.789 253.883 591.947C253.393 595.239 249.233 626.9 248.888 627.495C244.078 623.662 237.342 614.755 233.034 609.676C225.172 611.96 217.218 613.919 209.194 615.547C204.755 609.405 195.283 596.705 192.869 590.012Z"
     id="path111" />
  <path
     fill="#F8EEE4"
     d="M234.945 248.658C239.656 240.387 244.524 230.352 251.155 223.518C258.752 215.688 301.198 194.688 313.031 189.344C313.105 196.514 312.913 215.754 316.036 222.301C316.918 224.15 327.365 225.672 330.189 226.189C324.398 229.707 314.215 237.604 308.293 241.938L271.701 268.448L238.12 292.329C221.891 304.042 207.222 313.279 207.495 335.677L209.02 335.155C210.06 330.261 211.145 327.277 213.341 322.807C211.754 334.416 212.102 343.167 213.658 354.562C204.592 345.726 199.954 330.381 203.086 318.788C206.616 305.719 202.348 300.391 202.372 290.757C204.068 278.723 220.599 264.564 229.565 258.608C257.247 240.218 279.113 217.56 304.761 197.127L304.841 196.321L304.016 196.162C296.565 200.73 285.638 209.641 278.326 215.242L234.945 248.658Z"
     id="path112" />
  <path
     fill="#171311"
     d="M207.495 335.677L209.02 335.155C208.94 335.834 208.914 337.918 208.293 338.566C208.233 338.629 208.079 338.491 208.026 338.443C207.53 337.987 207.515 336.064 207.495 335.677Z"
     id="path113" />
  <path
     fill="#010101"
     d="M317.501 225.345C317.738 225.672 317.91 226.398 318.049 226.834C315.771 229.89 249.874 278.42 246.798 280.124L246.376 279.514C246.611 276.011 310.966 234.088 317.501 225.345Z"
     id="path114" />
  <path
     fill="#010101"
     d="M208.335 293.049C211.705 286.795 212.893 281.969 217.382 276.229C215.665 281.12 213.769 285.975 212.605 291L215.816 299.136C213.498 302.953 212.716 303.441 211.198 307.876L210.205 307.189C212.567 299.876 211.94 299.791 208.335 293.049Z"
     id="path115" />
  <path
     fill="#171311"
     d="M211.198 307.876C211.023 308.193 210.557 309.487 210.017 309.069C209.731 308.332 209.965 307.938 210.205 307.189L211.198 307.876Z"
     id="path116" />
  <path
     fill="#F8EEE4"
     d="M224.751 911.886C211.452 911.713 200.769 914.66 199.295 896.494C198.989 892.725 203.041 888.814 206.556 888.017C232.657 882.091 260.584 880.095 285.502 870.12C296.684 865.644 310.321 844.791 322.348 858.906C325.465 862.641 326.268 869.305 327.51 874.02C330.327 875.91 332.61 877.041 335.791 878.455C341.114 880.818 345.406 881.991 343.953 889.04C341.62 900.355 330.679 904.637 323.397 912.259C323.19 912.475 320.99 912.603 320.522 912.621C316.422 913.052 309.258 912.913 304.927 912.96C305.012 905.398 304.914 897.835 304.633 890.277C290.684 895.21 276.987 901.944 262.724 906.294C258.977 907.437 250.807 911.871 247.258 912.142C240.124 912.688 232.036 911.88 224.751 911.886Z"
     id="path119" />
  <path
     fill="#010101"
     d="M286.493 877.555L286.786 877.948C286.044 879.702 279.331 884.641 277.22 886.088C272.42 889.377 269.136 888.757 263.982 887.742C259.924 890.52 257.707 892.331 253.002 893.768C244.667 891.818 242.828 891.769 234.469 893.208C233.614 892.827 233.965 893.13 233.468 892.244C237.06 889.047 250.251 889.626 254.642 890.058C258.19 888.222 261.153 886.407 264.882 884.607C273.678 886.829 278.832 881.87 286.493 877.555Z"
     id="path121" />
  <path
     fill="#010101"
     d="M319.689 867.789C319.164 865.224 318.738 863.498 315.765 862.953C309.831 861.867 301.762 866.091 301.05 872.511C300.959 873.331 300.998 874.111 300.541 874.838C300.038 874.963 299.846 874.674 299.653 874.201C296.246 865.872 310.166 855.95 317.263 860.475C319.323 861.789 320.25 863.09 320.72 865.566L320.927 866.56C320.508 867.357 320.546 867.711 319.689 867.789Z"
     id="path122" />
  <path
     fill="#010101"
     d="M219.819 889.067C220.712 888.91 221.966 889.235 220.884 889.801C215.661 892.537 206.917 893.096 208.6 901.234C209.385 905.028 215.179 905.98 215.125 907.307C214.976 907.553 215.086 907.4 214.729 907.712C211.399 906.862 205.206 905.119 204.432 901.011C203.759 897.436 205.979 892.215 209.98 891.528C212.301 891.129 215.225 890.293 217.559 889.668L219.819 889.067Z"
     id="path123" />
  <path
     fill="#010101"
     d="M335.122 886.593C333.981 886.239 328.278 882.431 327.921 881.539C326.286 877.453 334.852 885.056 336.405 885.871C338.03 888.069 337.959 888.636 337.643 891.414C337.15 895.75 335.02 896.769 331.005 897.582C327.701 898.252 325.34 901.377 323.574 904.008C323.238 904.497 322.844 904.853 322.266 905.026C322.1 905.182 321.111 904.852 321.221 904.643C322.591 902.046 326.103 897.097 328.619 895.667C332.444 893.493 336.212 891.534 335.122 886.593Z"
     id="path124" />
  <path
     fill="#494542"
     d="M320.927 866.56C320.892 867.745 321.442 870.082 320.246 870.613L320.4 870.366L319.912 870C319.745 869.277 319.722 868.528 319.689 867.789C320.546 867.711 320.508 867.357 320.927 866.56Z"
     id="path125" />
  <path
     fill="#F8EEE4"
     d="M315.14 498.23C318.475 496.148 321.228 494.526 324.066 491.853C333.055 483.384 336.779 473.106 351.298 476.711C360.07 478.89 373.001 485.338 380.194 490.577C378.619 507.378 375.452 509.945 381.898 525.554L376.969 551.607L376.376 551.043C366.037 541.112 355.938 526.186 344.721 517.017C334.129 508.358 322.678 511.258 313.802 499.15L313.734 497.497L314.255 497.28L315.14 498.23Z"
     id="path128" />
  <path
     fill="#494542"
     d="M314.255 497.28L315.14 498.23C314.681 498.536 314.253 498.833 313.802 499.15L313.734 497.497L314.255 497.28Z"
     id="path129" />
  <path
     fill="#F8EEE4"
     d="M225.478 546.019C225.044 544.908 224.578 543.81 224.081 542.726C220.639 535.411 203.854 535.338 197.016 529.403C190.147 525.427 193.321 513.803 188.711 509.303C180.225 501.019 168.641 502.049 176.846 485.298C178.779 481.386 182.279 478.475 186.478 477.288C194.313 475.002 212.305 484.77 219.417 488.691C221.278 488.041 223.39 486.967 225.199 486.114C226.668 488.817 228.697 491.837 230.379 494.466C232.124 496.451 233.847 499.555 235.218 501.868C222.802 501.617 209.528 500.073 197.928 499.99C199.395 502.55 205.946 514.082 207.588 515.751C212.279 522.752 214.184 526.8 219.618 533.824C225.983 536.831 227.789 541.117 233.515 544.524L234.022 544.83L234.433 545.539C231.418 545.798 228.499 545.901 225.478 546.019Z"
     id="path130" />
  <path
     fill="#010101"
     d="M188.465 482.08C189.509 482.107 193.551 482.286 194.09 482.667C195.894 483.941 188.423 483.527 188.107 483.531C184.504 486.378 183.932 487.348 181.567 491.248C181.573 491.323 182.218 494.526 181.121 493.909C179.262 492.864 179.567 490.392 180.623 488.803C182.844 485.461 184.592 483.207 188.465 482.08Z"
     id="path132" />
  <path
     fill="#F8EEE4"
     d="M381.582 491.63C388.289 495.447 405.625 508.705 410.425 514.488C410.569 517.686 409.971 521.56 410.259 524.509C411.084 532.964 411.611 539.931 411.476 548.454C408.799 553.059 405.33 557.945 402.468 562.654C401.856 563.495 402.244 563.119 401.257 563.73C398.822 563.074 381.505 554.426 378.012 552.771C380.118 545.106 382.042 533.824 383.706 525.727C377.388 512.082 379.78 506.601 381.582 491.63Z"
     id="path133" />
  <path
     fill="#EC3E44"
     d="M330.654 217.419C339.55 219.723 353.768 220.996 363.372 222.687C364.492 261.156 369.363 305.32 392.983 336.978C413.888 364.999 440.193 380.258 474.369 385.715L472.387 386.68C469.823 386.303 467.261 385.908 464.702 385.494C406.437 376.054 368.52 322.317 360.706 266.811C355.215 227.8 366.246 228.474 322.56 221.538C325.25 220.263 327.997 218.792 330.654 217.419Z"
     id="path134" />
  <path
     fill="#F7F7F5"
     d="M235.787 305.899C235.98 306.869 235.982 306.497 235.867 307.396C234.681 316.695 234.232 324.213 238.746 332.823C239.483 334.228 241.752 339.867 241.684 341.247C241.4 347.028 238.609 363.086 236.78 368.112C235.141 372.549 232.756 376.674 229.729 380.308C229.247 380.876 229.548 380.669 228.631 380.748C227.71 378.393 224.143 372.235 223.904 370.555C222.117 357.972 221.336 344.578 220.207 331.939C219.51 324.142 230.873 311.41 235.787 305.899Z"
     id="path135" />
  <path
     fill="#F8EEE4"
     d="M712.512 464.039C717.739 463.701 717.536 463.391 716.603 468.992C713.749 486.126 704.323 503.368 690.971 514.417C691.09 513.092 691.278 511.817 691.444 510.499C693.21 496.466 692.92 481.437 691.11 467.429C694.713 468.494 697.925 469.407 701.468 470.818C706.67 468.256 706.473 467.803 710.799 465.092L712.512 464.039Z"
     id="path139" />
  <path
     fill="#F8EEE4"
     d="M657.566 470.524C659.305 470.622 660.222 470.684 660.032 472.737C658.415 490.211 649.434 509.274 636.488 521.17C637.833 509.645 638.566 498.286 636.855 486.746C636.655 485.397 635.169 478.613 635.791 478.069C635.979 478.044 636.039 478.012 636.229 478.091C642.426 480.688 649.771 472.024 656.086 470.919C656.412 470.862 657.199 470.623 657.566 470.524Z"
     id="path141" />
  <path
     fill="#F8EEE4"
     d="M201.489 429.27C198.77 428.324 192.3 425.461 191.437 422.999C189.124 416.394 197.562 404.846 203.574 402.672C207.941 401.093 213.188 403.243 216.67 404.824C216.387 412.054 216.058 420.316 216.103 427.489C214.297 429.788 213.621 431.029 212.595 433.83L209.134 442.206C207.038 438.306 203.85 433.097 201.489 429.27Z"
     id="path142" />
  <path
     fill="#010101"
     d="M203.765 408.502C205.612 408.499 213.259 409.257 213.906 410.96C213.487 411.759 207.07 409.973 205.852 409.76C204.211 411.355 203.327 412.382 201.919 414.152C200.289 416.466 197.215 419.514 195.117 421.474C197.13 417.145 199.949 411.509 203.765 408.502Z"
     id="path144" />
  <path
     fill="#F8EEE4"
     d="M687.156 467.352C691.789 469.187 683.182 486.748 683.297 489.214C683.447 492.456 665.413 520.958 665.295 514.016C668.184 498.604 667.094 487.449 664.168 472.488C675.564 476.865 677.343 471.442 687.156 467.352Z"
     id="path145" />
  <path
     fill="#EC3E44"
     d="M328.394 165.477C329.347 167.101 329.133 209.266 329.18 214.567C325.307 215.905 321.554 217.884 317.869 219.706C316.211 210.522 316.523 183.703 316.545 173.247C320.522 170.215 324.14 168.024 328.394 165.477Z"
     id="path146" />
  <path
     fill="#F8EEE4"
     d="M628.456 476.518C632.516 476.358 632.341 476.268 631.699 480.497C631.341 482.853 630.61 484.977 630.021 487.252C626.85 499.503 620.372 510.209 611.341 519.016C609.624 519.84 611.025 512.811 611.141 511.747C612.22 501.879 610.883 492.192 609.169 482.492C618.952 482.059 619.384 480.169 628.456 476.518Z"
     id="path147" />
  <path
     fill="#F8EEE4"
     d="M741.02 457.096C746.591 456.525 746.599 455.848 745.579 460.756C742.484 475.646 736.674 487.581 725.842 498.309C724.867 499.191 724.578 499.09 724.693 497.778C725.5 488.559 724.867 479.806 723.076 470.745C722.833 469.447 722.574 468.152 722.299 466.86C730.947 464.856 733.513 459.747 741.02 457.096Z"
     id="path148" />
  <path
     fill="#F8EEE4"
     d="M731.453 674.297C738.37 680.675 744.178 703.806 743.488 713.775C743.257 717.11 737.138 716.324 734.669 715.727C717.946 708.289 718.734 714.116 726.881 700.213C729.957 694.964 731.125 680.74 731.453 674.297Z"
     id="path149" />
  <path
     fill="#F8EEE4"
     d="M684.542 657.274C686.869 659.082 689.713 666.897 690.663 669.869C693.896 679.983 695.213 690.637 695.244 701.164C691.607 701.189 690.567 701.31 687.002 700.606C681.255 698.362 680.337 698.24 675.932 693.671C682.712 679.023 684.031 673.668 684.542 657.274Z"
     id="path151" />
  <path
     fill="#F8EEE4"
     d="M771.815 449.46C772.426 449.97 772.532 450.205 772.283 451.041C768.219 464.697 763.214 478.961 752.262 488.701C751.731 489.173 751.548 488.284 751.488 488.035C751.789 475.952 751.426 468.884 749.696 456.999L750.218 457.168C751.712 457.64 752.991 458.1 754.456 458.633C762.176 456.74 764.73 452.809 771.815 449.46Z"
     id="path153" />
  <path
     fill="#F8EEE4"
     d="M709.524 674.388C711.701 677.654 713.462 683.878 714.4 687.758L714.871 689.758L715.087 690.744C716.529 697.114 717.825 705.84 717.416 712.239C717.225 715.229 709.211 712.607 708.031 712.106C702.625 708.87 702.199 708.701 698.863 703.298C703.324 696.762 705.627 689.646 707.412 681.993L707.882 679.993L708.403 677.743C708.769 676.171 708.882 675.959 709.524 674.388Z"
     id="path156" />
  <path
     fill="#F8EEE4"
     d="M562.471 473.705C567.984 476.72 570.022 475.374 576.058 474.471C579.179 475.925 579.617 476.142 582.486 478.088C579.898 486.599 577.598 490.336 571.67 497.072C567.097 501.995 565.461 503.85 560.052 507.775C562.529 495.573 563.528 486.155 562.471 473.705Z"
     id="path157" />
  <path
     fill="#F8EEE4"
     d="M645.111 636.857C651.954 645.029 653.463 668.368 653.487 678.647C651.92 678.409 649.511 678.062 647.994 677.692L646.222 677.25C641.091 675.314 640.207 674.226 636.384 670.27C642.916 656.558 643.144 651.415 645.111 636.857Z"
     id="path158" />
  <path
     fill="#F8EEE4"
     d="M797.274 444.918C800.92 450.129 778.728 486.636 778.467 478.125C778.758 465.951 778.784 460.892 776.01 449.064C788.056 451.214 787.012 449.495 797.274 444.918Z"
     id="path159" />
  <path
     fill="#F8EEE4"
     d="M599.351 478.639C602.447 478.406 603.342 479.817 606.087 481.967C603.727 493.929 600.551 499.653 592.17 508.562C590.73 509.914 589.423 510.995 587.915 512.259C589.67 499.427 589.059 493.369 588.434 480.981C592.29 480.156 595.405 479.254 599.351 478.639Z"
     id="path160" />
  <path
     fill="#F8EEE4"
     d="M550.324 467.602C559.046 466.402 557.805 469.877 555.44 475.734C551.842 484.641 548.162 489.371 541.61 496.167C540.442 497.343 539.326 498.537 537.971 499.497C539.733 488.414 540.484 478.953 538.449 467.823C544.31 469.087 544.471 468.8 550.324 467.602Z"
     id="path161" />
  <path
     fill="#F8EEE4"
     d="M418.368 519.986C427.138 519.65 435.316 525.729 442.295 530.909C437.932 532.255 433.641 533.31 429.247 534.528C423.801 536.428 418.934 537.587 413.138 539.755C412.808 534.416 412.709 531.116 411.032 525.993C413.613 523.966 415.836 521.873 418.368 519.986Z"
     id="path162" />
  <path
     fill="#F8EEE4"
     d="M798.534 671.296L798.701 671.632C802.905 679.935 804.048 695.668 802.486 704.748C801.413 710.984 801.203 715.423 794.549 713.859C792.429 713.159 787.348 711.259 788.99 708.008C795.36 695.393 796.21 684.785 798.534 671.296Z"
     id="path163" />
  <path
     fill="#F8EEE4"
     d="M762.559 683.298C766.203 688.751 767.788 707.872 766.388 714.497C765.529 718.561 757.596 717.097 754.764 715.86C751.61 714.063 750.807 713.803 747.513 712.428C749.448 710.438 751.406 709.086 752.79 706.687C756.96 699.455 759.771 692.145 762.246 684.271L762.559 683.298Z"
     id="path164" />
  <path
     fill="#F8EEE4"
     d="M866.132 453.487C867.004 453.051 867.889 452.657 868.781 452.264L869.625 452.459C871.517 452.928 873.442 452.903 875.376 453.043C875.087 459.914 874.399 465.061 872.904 471.744C870.938 480.733 867.678 489.389 863.224 497.442C863.065 497.748 862.906 498.055 862.748 498.362L861.777 496.245C862.152 494.074 862.59 491.938 862.945 489.748C864.8 478.29 863.441 464.683 866.132 453.487Z"
     id="path165" />
  <path
     fill="#F8EEE4"
     d="M604.614 618.781C607.772 621.42 612.446 633.043 613.359 637.278C614.132 640.866 615.724 645.882 615.483 649.504C615.213 653.569 613.56 652.438 610.73 651.72C604.742 649.29 602.773 648.209 598.38 643.482C601.943 633.386 603.66 630.129 604.614 618.781Z"
     id="path166" />
  <path
     fill="#F8EEE4"
     d="M665.748 656.256C670.861 660.723 673.114 682.287 673.185 688.891C670.711 688.44 669.434 688.167 666.995 687.556L665.277 687.123C659.745 685.327 661.532 685.607 656.621 681.502L655.853 680.866C661.44 672.835 663.229 665.524 665.748 656.256Z"
     id="path167" />
  <path
     fill="#F8EEE4"
     d="M626.785 633.807C631.515 638.194 635.164 659.256 635.533 665.721C633.296 665.275 631.217 664.622 628.993 664.111C623.126 661.857 623.074 660.177 619.391 655.06L619.131 654.703C622.924 648.572 625.106 640.839 626.785 633.807Z"
     id="path168" />
  <path
     fill="#F8EEE4"
     d="M847.49 443.806C854.408 447.549 856.181 446.671 863.467 444.41C862.834 454.099 860.999 458.051 857.246 466.671C854.949 471.262 853.864 472.832 850.931 476.97C851.455 464.251 850.594 456.143 847.49 443.806Z"
     id="path169" />
  <path
     fill="#F8EEE4"
     d="M779.232 686.83C780.966 688.406 783.9 695.941 783.932 698.255C784.068 707.845 790.251 718.27 777.037 717.94C772.137 716.855 767.75 716.101 771.093 711.46C775.97 704.69 779.188 695.26 779.232 686.83Z"
     id="path170" />
  <path
     fill="#F8EEE4"
     d="M555.624 582.757C561.076 586.983 565.237 604.921 564.465 611.76C564.116 614.85 561.015 613.159 559.147 612.701C553.905 611.554 553.343 611.438 549.706 607.334C553.746 597.684 555.244 593.364 555.624 582.757Z"
     id="path171" />
  <path
     fill="#F8EEE4"
     d="M588.698 608.111C591.405 615.215 596.029 621.795 596.093 629.75C596.102 630.901 596.856 640.892 593.529 639.014C589.634 636.645 585.329 633.079 582.141 629.802C584.513 623.418 586.373 616.092 586.663 609.262L588.698 608.111Z"
     id="path172" />
  <path
     fill="#F8EEE4"
     d="M572.929 592.714C575.796 595.915 578.646 604.133 579.451 608.504C580.318 613.621 580.288 619.156 579.492 624.278C579.233 625.94 576.35 624.681 575.482 624.414C571.921 623.018 569.978 622.109 567.202 619.432C569.592 609.53 571.992 603.079 572.929 592.714Z"
     id="path173" />
  <path
     fill="#F8EEE4"
     d="M825.371 441.566C831.178 444.593 836.663 443.886 842.998 443.38C840.771 449.594 838.319 455.342 834.858 460.979C832.201 464.887 831.212 466.406 827.969 469.897C828.074 463.518 828.39 458.095 827.321 451.779C826.798 448.685 824.975 444.34 825.371 441.566Z"
     id="path174" />
  <path
     fill="#F8EEE4"
     d="M524.124 463.706C525.914 463.438 528.2 463.432 530.048 463.364C532.473 464.97 534.101 465.997 536.607 467.495C533.244 472.508 529.648 477.363 525.554 481.806C523.031 484.281 521.375 485.623 518.733 487.879C519.562 481.487 520.304 474.643 519.049 468.261C517.983 462.841 518.67 464.111 524.124 463.706Z"
     id="path175" />
  <path
     fill="#F8EEE4"
     d="M484.245 452.639C491.565 455.947 492.407 455.12 500.214 454.997C497.027 461.689 494.616 465.558 489.436 470.961C485.437 474.707 484.096 475.594 479.483 478.44C483.354 469.082 483.913 462.629 484.245 452.639Z"
     id="path176" />
  <path
     fill="#F8EEE4"
     d="M821.118 444.542C823.379 446.456 809.91 470.426 807.256 471.19C807.257 470.724 807.311 470.319 807.377 469.854L807.485 469.016C807.486 460.548 806.296 454.545 804.055 446.484C809.988 447.868 813.614 448.635 819.502 445.43L821.118 444.542Z"
     id="path177" />
  <path
     fill="#F8EEE4"
     d="M502.482 455.121C506.576 456.29 510.755 460.087 514.196 462.901C511.234 469.217 509.501 471.754 504.972 477.168C502.652 479.66 501.709 480.516 499.011 482.581C501.823 473.261 502.179 464.781 502.482 455.121Z"
     id="path178" />
  <path
     fill="#F8EEE4"
     d="M524.952 568.265C527.142 571.642 534.894 597.579 526.523 593.993L525.584 593.623L525.214 593.363C521.82 591.03 520.792 589.826 519.005 586.096L518.567 585.218C522.078 577.801 523.372 576.309 524.952 568.265Z"
     id="path179" />
  <path
     fill="#F8EEE4"
     d="M540.924 578.723C543.465 583.08 546.738 595.576 546.014 600.75C545.529 604.221 541.551 602.761 539.535 601.989C536.441 599.812 535.437 599.182 532.656 596.477C537.285 590.969 539.275 585.74 540.924 578.723Z"
     id="path180" />
  <path
     fill="#F8EEE4"
     d="M508.487 556.279C512.662 563.758 513.081 573.577 514.161 581.818C514.529 584.626 512.19 583.622 509.98 583.16C506.836 580.501 505.484 579.155 502.981 575.789C505.881 567.668 506.795 564.728 508.487 556.279Z"
     id="path181" />
  <path
     fill="#EC3E44"
     d="M635.402 224.361C646.034 225.127 651.436 230.424 656.848 239.153C654.25 238.663 651.58 237.972 648.996 237.552L646.246 237.095C645.181 236.934 644.128 236.748 643.071 236.541C640.39 232.348 638.258 228.546 635.402 224.361Z"
     id="path182" />
  <path
     fill="#F8EEE4"
     d="M495.55 552.804C495.797 553.345 497.257 556.694 497.356 556.796C498.918 558.408 500.582 572.985 499.245 573.294C498.773 573.154 497.556 572.138 497.123 571.815C494.925 570.491 492.866 569.406 490.62 568.175C493.372 561.833 494.186 559.663 495.55 552.804Z"
     id="path183" />
  <path
     fill="#EC3E44"
     d="M867.987 237.11C867.585 238.848 862.341 242.087 860.739 243.217C859.783 238.514 863.392 238.652 867.987 237.11Z"
     id="path185" />
  <path
     fill="#D6D1CD"
     d="M866.132 453.487C866.788 450.435 866.325 446.279 867.091 441.981C867.502 445.559 867.66 448.823 868.781 452.264C867.889 452.657 867.004 453.051 866.132 453.487Z"
     id="path186" />
  <path
     fill="#943E3A"
     d="M474.369 385.715C476.845 385.839 480.185 386.313 482.636 386.683C479.044 387.413 476.023 387.283 472.387 386.68L474.369 385.715Z"
     id="path187" />
  <path
     fill="#F8EEE4"
     d="M862.748 498.362C862.454 498.861 861.449 500.96 860.845 501.032C860.59 500.549 861.607 497.123 861.777 496.245L862.748 498.362Z"
     id="path188" />
  <path
     fill="#F7F7F5"
     d="M586.663 609.262C586.727 608.812 586.843 606.281 587.333 606.224C587.939 606.487 588.376 607.542 588.698 608.111L586.663 609.262Z"
     id="path189" />
  <path
     fill="#D6D1CD"
     d="M655.081 357.585C656.682 355.823 659.221 353.489 656.792 357.657L655.081 357.585Z"
     id="path190" />
</svg>
